<?xml version="1.0" standalone="no"?>
<!DOCTYPE svg PUBLIC "-//W3C//DTD SVG 20010904//EN"
 "http://www.w3.org/TR/2001/REC-SVG-20010904/DTD/svg10.dtd">
<svg version="1.0" xmlns="http://www.w3.org/2000/svg"
 width="5000.000000pt" height="1286.000000pt" viewBox="0 0 5000.000000 1286.000000"
 preserveAspectRatio="xMidYMid meet">

<g transform="translate(0.000000,1286.000000) scale(0.100000,-0.100000)"
fill="#000000" stroke="none">
<path d="M19610 12025 l0 -835 820 0 820 0 0 835 0 835 -820 0 -820 0 0 -835z"/>
<path d="M29790 12025 l0 -835 825 0 825 0 0 835 0 835 -825 0 -825 0 0 -835z"/>
<path d="M25110 10030 c-1119 -86 -2031 -543 -2508 -1257 -157 -234 -260 -487
-313 -768 -27 -140 -37 -469 -19 -612 111 -903 773 -1509 2015 -1847 227 -61
434 -103 1080 -216 816 -144 978 -182 1193 -281 234 -108 388 -271 437 -464
19 -75 19 -221 0 -302 -34 -143 -126 -293 -259 -421 -232 -223 -559 -359 -991
-413 -128 -16 -546 -17 -690 -1 -728 81 -1271 325 -1717 774 l-148 147 -587
-475 c-324 -262 -598 -486 -611 -498 l-23 -23 82 -77 c402 -378 993 -717 1604
-920 793 -264 1783 -349 2615 -225 788 118 1474 440 1945 913 358 359 568 772
641 1256 24 156 24 445 0 599 -126 824 -686 1406 -1608 1671 -161 46 -301 74
-1267 255 -784 147 -966 184 -1182 246 -406 114 -637 260 -732 461 -45 96 -61
173 -61 308 0 145 22 240 81 353 67 127 222 267 389 350 125 63 356 128 559
159 136 20 618 17 762 -4 558 -84 998 -292 1338 -633 113 -113 245 -279 306
-385 19 -33 37 -58 41 -57 14 4 1148 1061 1148 1070 0 17 -276 284 -401 388
-379 315 -815 555 -1293 713 -278 92 -627 166 -956 201 -171 19 -700 28 -870
15z"/>
<path d="M44432 10025 c-556 -64 -1028 -224 -1412 -480 -130 -87 -218 -159
-333 -273 -127 -125 -196 -211 -326 -406 l-106 -159 -3 557 -2 556 -835 0
-835 0 0 -3745 0 -3745 835 0 835 0 0 1813 c0 1054 4 1885 10 1987 50 888 211
1377 579 1763 205 213 417 357 651 441 379 137 858 122 1196 -38 442 -210 687
-633 771 -1336 15 -133 17 -339 20 -2393 l4 -2247 815 0 815 0 -4 2753 c-3
3025 1 2823 -63 3152 -155 805 -619 1383 -1319 1643 -198 74 -367 116 -595
147 -163 22 -543 28 -698 10z"/>
<path d="M35765 10024 c-22 -2 -92 -9 -155 -15 -847 -80 -1611 -425 -2193
-988 -676 -655 -1080 -1535 -1178 -2566 -16 -164 -16 -568 0 -745 102 -1161
610 -2179 1405 -2818 551 -443 1173 -693 1966 -789 209 -25 802 -25 1015 0
668 80 1224 285 1715 631 223 158 485 401 656 608 649 786 993 1906 925 3012
-55 902 -319 1637 -807 2251 -112 141 -408 436 -547 547 -574 455 -1265 746
-2021 849 -117 16 -217 21 -446 24 -162 1 -313 1 -335 -1z m496 -1475 c729
-74 1298 -490 1635 -1194 186 -390 278 -791 291 -1275 10 -389 -33 -711 -139
-1040 -119 -366 -285 -649 -526 -893 -156 -158 -289 -256 -478 -351 -468 -234
-1074 -271 -1596 -96 -800 267 -1347 1027 -1462 2030 -34 294 -30 613 10 905
128 921 618 1578 1359 1820 279 91 605 125 906 94z"/>
<path d="M6415 9969 c-611 -57 -1179 -256 -1670 -584 -349 -233 -673 -546
-928 -897 -232 -319 -433 -718 -562 -1115 -311 -956 -275 -2081 96 -2986 193
-470 452 -860 809 -1218 176 -177 340 -313 538 -447 793 -537 1816 -759 2862
-622 813 108 1478 412 2078 951 111 101 346 345 392 409 l18 25 -505 452 -506
451 -121 -109 c-531 -477 -1018 -713 -1606 -780 -148 -17 -506 -17 -635 0
-975 125 -1650 766 -1875 1778 -11 51 -20 102 -20 113 0 20 2 20 2790 20 1759
0 2790 4 2790 10 0 5 7 87 16 182 27 289 10 734 -42 1088 -168 1153 -698 2100
-1490 2666 -450 320 -955 512 -1564 594 -178 24 -691 36 -865 19z m553 -1420
c411 -44 754 -199 1035 -468 176 -169 293 -332 413 -576 131 -268 204 -523
258 -902 l6 -43 -1950 0 -1950 0 5 23 c2 12 12 65 20 117 44 260 134 539 250
769 313 623 837 1007 1475 1080 109 12 326 13 438 0z"/>
<path d="M48800 9910 c-386 -40 -730 -294 -870 -643 -97 -242 -112 -514 -45
-766 96 -358 365 -634 716 -735 471 -135 957 34 1217 422 139 209 200 469 174
741 -38 387 -245 701 -575 869 -181 93 -405 133 -617 112z m340 -201 c253 -65
471 -263 565 -513 95 -254 82 -571 -35 -811 -102 -209 -282 -365 -505 -435
-90 -28 -294 -39 -399 -20 -174 31 -312 103 -436 229 -172 174 -252 383 -253
661 -1 185 26 306 104 461 174 349 572 526 959 428z"/>
<path d="M48510 8800 l0 -611 98 3 97 3 3 258 2 258 97 -3 97 -3 156 -255 157
-255 106 -3 c62 -1 107 1 107 7 0 5 -74 125 -165 267 l-165 257 69 18 c91 23
119 38 168 92 59 64 76 125 71 250 -3 86 -8 110 -31 153 -48 94 -132 142 -281
163 -43 6 -192 11 -332 11 l-254 0 0 -610z m587 429 c158 -40 165 -261 10
-324 -32 -14 -83 -19 -219 -23 l-178 -5 0 182 0 181 171 0 c95 0 190 -5 216
-11z"/>
<path d="M12134 9768 c7 -24 555 -1711 1216 -3750 l1204 -3708 915 0 916 0
1229 3738 c676 2055 1231 3743 1233 3750 4 9 -171 12 -856 12 l-860 0 -24 -77
c-13 -43 -381 -1281 -817 -2752 -539 -1814 -797 -2667 -802 -2655 -4 11 -377
1245 -829 2744 -451 1499 -823 2728 -825 2732 -3 5 -389 8 -859 8 l-854 0 13
-42z"/>
<path d="M19610 6065 l0 -3745 820 0 820 0 0 3745 0 3745 -820 0 -820 0 0
-3745z"/>
<path d="M29790 6065 l0 -3745 825 0 825 0 0 3745 0 3745 -825 0 -825 0 0
-3745z"/>
</g>
</svg>
