<?xml version="1.0" encoding="UTF-8"?>
<svg version="1.1" xmlns="http://www.w3.org/2000/svg" width="285" height="149">
<path d="M0 0 C94.05 0 188.1 0 285 0 C285 49.17 285 98.34 285 149 C190.95 149 96.9 149 0 149 C0 99.83 0 50.66 0 0 Z " fill="#F9831D" transform="translate(0,0)"/>
<path d="M0 0 C94.05 0 188.1 0 285 0 C285 49.17 285 98.34 285 149 C190.95 149 96.9 149 0 149 C0 99.83 0 50.66 0 0 Z M12.625 38.25 C5.41216887 47.55958437 3.85503031 57.48807651 5 69 C7.24863328 81.6726547 13.65944634 97.12468464 23 106 C24.389958 107.71716601 25.76398268 109.44730627 27.125 111.1875 C38.15146217 124.7668869 50.21842517 133.33376646 67 138 C67.59554687 138.185625 68.19109375 138.37125 68.8046875 138.5625 C87.86169315 142.36033742 107.24836251 135.06223639 125 129 C125.64083527 128.78175568 126.28167053 128.56351135 126.94192505 128.33865356 C130.86528152 127.00188462 134.7858352 125.65710418 138.70483398 124.30761719 C140.66943649 123.63121913 142.63449295 122.95615333 144.59960938 122.28125 C148.73502441 120.8597919 152.86781941 119.43082944 157 118 C157.77328644 117.73271088 158.54657288 117.46542175 159.34329224 117.19003296 C171.1369001 113.10882256 182.87103912 108.88827131 194.55493164 104.50268555 C197.06429237 103.56182797 199.57601265 102.62747239 202.08789062 101.69335938 C211.39306295 98.21586577 220.60075647 94.56667353 229.73146057 90.65211487 C234.60438374 88.56412937 239.51238436 86.68548313 244.515625 84.9296875 C248.25468565 83.53047927 251.8539222 81.85404119 255.47265625 80.171875 C258.62111401 78.71200278 261.80309552 77.34980412 265 76 C265 75.34 265 74.68 265 74 C265.680625 73.835 266.36125 73.67 267.0625 73.5 C272.56783575 70.68876473 275.94000799 65.82186128 279 60.5625 C280.28372471 55.98923073 280.5139666 52.53409585 279 48 C271.03662205 34.87691858 253.70186627 30.89898393 239.8125 27.5 C238.57781982 27.19666748 237.34313965 26.89333496 236.07104492 26.58081055 C224.77963281 23.8610663 213.49463184 21.65296168 202 20 C200.85160645 19.8340332 199.70321289 19.66806641 198.52001953 19.49707031 C99.95656116 3.76851326 99.95656116 3.76851326 12.625 38.25 Z " fill="#FEFEFD" transform="translate(0,0)"/>
<path d="M0 0 C2.1875 0.25 2.1875 0.25 4 1 C4.66 0.67 5.32 0.34 6 0 C8.09375 0.0859375 8.09375 0.0859375 10.5 0.375 C11.69109375 0.51035156 11.69109375 0.51035156 12.90625 0.6484375 C15 1 15 1 17 2 C17.33 1.34 17.66 0.68 18 0 C18 0.66 18 1.32 18 2 C19.98 1.34 21.96 0.68 24 0 C24.495 2.97 24.495 2.97 25 6 C25.66 6 26.32 6 27 6 C27.33 5.34 27.66 4.68 28 4 C30.6875 3.18359375 30.6875 3.18359375 34 2.4375 C37.81005673 1.84426216 37.81005673 1.84426216 41 0 C53.92435957 -0.36251252 53.92435957 -0.36251252 58.03515625 2.3359375 C59.3125 3.9375 59.3125 3.9375 61 7 C61.99 7.99 61.99 7.99 63 9 C63.36108214 13.4722426 63.0867858 17.95662916 62.9375 22.4375 C62.92267578 23.69111328 62.90785156 24.94472656 62.89257812 26.23632812 C62.83553711 28.03553711 62.83553711 28.03553711 62.77734375 29.87109375 C62.74890381 30.97380615 62.72046387 32.07651855 62.69116211 33.21264648 C62 36 62 36 59.63500977 37.80883789 C51.55636609 41.46080699 41.85146143 42.8814189 33.2421875 40.11328125 C29.99675255 38.50187191 28.21353603 36.88989426 26 34 C25.31043608 31.00014529 25.07363863 28.07273918 25 25 C23.68 25.33 22.36 25.66 21 26 C21.66 26.33 22.32 26.66 23 27 C19.26072816 30.99715265 16.62747947 32.15773507 11.1875 32.375 C7.73985677 32.31442647 5.25963311 32.08021671 2.375 30.125 C-0.53403549 26.29732172 -0.61206084 24.08183236 -0.50390625 19.40234375 C0.09363268 16.55361164 1.01239436 15.10977526 3 13 C6.56045177 11.81318274 9.43808337 11.90310168 13.1875 11.9375 C14.45980469 11.94652344 15.73210937 11.95554687 17.04296875 11.96484375 C18.50669922 11.98224609 18.50669922 11.98224609 20 12 C20.33 10.35 20.66 8.7 21 7 C14.27124679 5.46905432 7.17247733 4.96173469 0.5625 7.125 C-3.93650967 10.4169583 -6.57149695 12.37714663 -7.484375 17.96484375 C-7.78986925 25.23730411 -6.87133853 31.34650289 -2 37 C1.46712111 38.15570704 4.5414956 38.32835293 8.1875 38.5625 C9.45980469 38.64628906 10.73210937 38.73007813 12.04296875 38.81640625 C13.01878906 38.87699219 13.99460937 38.93757813 15 39 C15 39.66 15 40.32 15 41 C12.77110504 41.05428973 10.54182529 41.09292338 8.3125 41.125 C7.07113281 41.14820313 5.82976562 41.17140625 4.55078125 41.1953125 C-0.25790764 40.93080816 -3.0320918 39.64527213 -7 37 C-7.6875 33.875 -7.6875 33.875 -8 31 C-8.99 31.33 -9.98 31.66 -11 32 C-12.52991927 25.23010725 -14.0864708 16.78503435 -10.61328125 10.484375 C-8.85101537 8.48127886 -7.01447217 6.74587588 -5 5 C-4.10011391 3.98273746 -3.20370039 2.96238044 -2.3125 1.9375 C-1.1678125 0.9784375 -1.1678125 0.9784375 0 0 Z " fill="#FA8725" transform="translate(73,39)"/>
<path d="M0 0 C0.99 0 1.98 0 3 0 C3.61875 0.680625 3.61875 0.680625 4.25 1.375 C6.05111936 3.3174806 6.05111936 3.3174806 9.5 3.8125 C13 5 13 5 15 7.5625 C16.57756231 12.98537043 16.34810117 17.30817462 13.796875 22.40234375 C10.80177639 27.13932865 7.58011884 30.77309809 3 34 C2.34 34 1.68 34 1 34 C0.67 34.99 0.34 35.98 0 37 C-2.66015625 38.24609375 -2.66015625 38.24609375 -6.0625 39.4375 C-9.85087867 40.81284617 -13.5121416 42.15192578 -17.0625 44.0625 C-21.08978589 46.17283144 -25.29661613 47.45022924 -29.61791992 48.83203125 C-32.86291531 49.95265912 -35.94282958 51.24116566 -39.078125 52.63671875 C-47.69884664 56.39944965 -56.50859342 59.64460175 -65.32910156 62.90405273 C-68.10114842 63.92868375 -70.87102654 64.95900613 -73.640625 65.99023438 C-85.71040984 70.47361319 -97.8311046 74.79365251 -110 79 C-111.08867371 79.37697525 -111.08867371 79.37697525 -112.19934082 79.76156616 C-116.25004377 81.16385345 -120.30256289 82.56076804 -124.35668945 83.953125 C-126.33251722 84.63187647 -128.30787194 85.31199241 -130.28320312 85.9921875 C-134.18648044 87.33496487 -138.09256644 88.66937105 -142 90 C-142.66049347 90.2254953 -143.32098694 90.4509906 -144.00149536 90.68331909 C-163.40294955 97.29328662 -184.85769119 103.84111307 -205 96 C-205.66 95.34 -206.32 94.68 -207 94 C-199.375 94.875 -199.375 94.875 -196 96 C-192.19193463 96.23506576 -188.37707332 96.18979517 -184.5625 96.1875 C-182.93828125 96.1884668 -182.93828125 96.1884668 -181.28125 96.18945312 C-173.99317938 96.1412168 -167.10324703 95.74465717 -160 94 C-159.505 92.515 -159.505 92.515 -159 91 C-156.6015625 90.12109375 -156.6015625 90.12109375 -153.625 89.4375 C-150.1092601 88.61654227 -148.04325769 88.02883846 -145 86 C-142.67284 85.62599214 -140.33882138 85.29235267 -138 85 C-137.01 84.67 -136.02 84.34 -135 84 C-134.67 83.34 -134.34 82.68 -134 82 C-131.51136576 81.42800344 -129.07898835 80.96632837 -126.5625 80.5625 C-116.96619593 78.88548631 -108.67539236 76.4926139 -100 72 C-99.34 72 -98.68 72 -98 72 C-98 71.34 -98 70.68 -98 70 C-96.68 70 -95.36 70 -94 70 C-93.13375 69.01 -93.13375 69.01 -92.25 68 C-89.67806849 65.71383866 -89.05039785 65.72675776 -85.75 65.75 C-84.5125 65.8325 -83.275 65.915 -82 66 C-81.505 64.515 -81.505 64.515 -81 63 C-79.824375 62.9175 -78.64875 62.835 -77.4375 62.75 C-73.67449564 62.28787666 -71.09193728 61.09540158 -67.86328125 59.046875 C-65.06004587 57.4718916 -62.08710583 56.62379019 -59.015625 55.7109375 C-56.72968703 54.99771106 -56.72968703 54.99771106 -54 53 C-52.53818325 52.41311961 -51.0566384 51.87388601 -49.5625 51.375 C-48.80066406 51.11460938 -48.03882813 50.85421875 -47.25390625 50.5859375 C-45 50 -45 50 -41 50 C-41 49.34 -41 48.68 -41 48 C-38.81623368 46.78679649 -37.03537656 46.00634964 -34.5625 45.5625 C-31.59177627 44.91038991 -29.58587884 43.56513719 -27 42 C-26.01 42 -25.02 42 -24 42 C-23.67 41.34 -23.34 40.68 -23 40 C-22.34 40 -21.68 40 -21 40 C-20.67 39.34 -20.34 38.68 -20 38 C-19.29875 37.87625 -18.5975 37.7525 -17.875 37.625 C-15.17301685 37.03761236 -13.69700989 36.33956106 -11.375 34.9375 C-8 33 -8 33 -5 33 C-4.67 32.34 -4.34 31.68 -4 31 C-3.071875 30.566875 -2.14375 30.13375 -1.1875 29.6875 C2.23408003 27.87607528 3.69726291 26.04290259 6 23 C6.66 23 7.32 23 8 23 C9.20568053 18.32798795 9.09382426 13.78503708 9 9 C8.39671875 8.89558594 7.7934375 8.79117188 7.171875 8.68359375 C3.53196777 7.5379395 2.22465985 5.02800924 0 2 C0 1.34 0 0.68 0 0 Z " fill="#DB741A" transform="translate(264,40)"/>
<path d="M0 0 C3.09659777 2.44505118 4.58750763 5.23200256 5.06713867 9.1340332 C5.05142822 10.11331787 5.03571777 11.09260254 5.01953125 12.1015625 C5.00986328 13.16826172 5.00019531 14.23496094 4.99023438 15.33398438 C4.96509766 16.43677734 4.93996094 17.53957031 4.9140625 18.67578125 C4.89375977 20.35897461 4.89375977 20.35897461 4.87304688 22.07617188 C4.8377763 24.83903354 4.78848485 27.60090954 4.7265625 30.36328125 C-13.02579647 35.42451683 -13.02579647 35.42451683 -20.44140625 32.51171875 C-23.43107804 30.63759613 -24.68655045 28.47828175 -26.2734375 25.36328125 C-26.43488211 20.76210998 -25.84116703 19.00197697 -22.7734375 15.55078125 C-17.42139659 11.63967443 -10.73437372 11.03195119 -4.2734375 11.36328125 C-4.9334375 9.71328125 -5.5934375 8.06328125 -6.2734375 6.36328125 C-12.2134375 6.36328125 -18.1534375 6.36328125 -24.2734375 6.36328125 C-24.2734375 4.38328125 -24.2734375 2.40328125 -24.2734375 0.36328125 C-15.58055284 -3.08921195 -8.57270118 -4.28635059 0 0 Z " fill="#FDF9EF" transform="translate(128.2734375,45.63671875)"/>
<path d="M0 0 C5.53125 2.0625 5.53125 2.0625 7 5 C7.58350101 12.23541247 7.58350101 12.23541247 5.1875 15.375 C-1.19418307 20.11567885 -6.29606992 20.15105745 -14 20 C-12.91215032 23.24983135 -12.91215032 23.24983135 -11 26 C-8.13732433 26.07325168 -5.299281 26.09238205 -2.4375 26.0625 C-1.22803711 26.05573242 -1.22803711 26.05573242 0.00585938 26.04882812 C2.00393756 26.03700518 4.00197783 26.01906914 6 26 C6 27.98 6 29.96 6 32 C-0.67952442 34.54458073 -7.93957376 34.98478758 -15 34 C-19.20615287 31.21145483 -21.36846105 28.80874638 -23 24 C-23.64741459 17.54359153 -23.97210636 11.42854536 -20 6 C-13.6299814 -0.21713816 -8.69254853 -0.6573244 0 0 Z " fill="#FCF9EF" transform="translate(195,44)"/>
<path d="M0 0 C1.08599991 -0.00176743 1.08599991 -0.00176743 2.19393921 -0.00357056 C12.84739504 -0.00160344 23.43460566 0.46455361 34.0625 1.1875 C34.0625 1.5175 34.0625 1.8475 34.0625 2.1875 C33.49953217 2.19780746 32.93656433 2.20811493 32.35653687 2.21873474 C26.4838374 2.32712659 20.61128126 2.44169679 14.73876953 2.55981445 C12.54869595 2.60305877 10.35859093 2.64474105 8.16845703 2.68481445 C5.01585427 2.74277197 1.86340819 2.80639255 -1.2890625 2.87109375 C-2.7519017 2.89616249 -2.7519017 2.89616249 -4.24429321 2.92173767 C-8.91055299 3.02284516 -13.34441524 3.27160219 -17.9375 4.1875 C-19.37405937 4.32288256 -20.81156798 4.44872572 -22.25 4.5625 C-27.07612396 5.06316932 -31.41223538 6.48651401 -35.9375 8.1875 C-35.9375 7.5275 -35.9375 6.8675 -35.9375 6.1875 C-37.74002869 5.48555007 -37.74002869 5.48555007 -39.9375 5.1875 C-40.535625 5.496875 -41.13375 5.80625 -41.75 6.125 C-44.81419495 7.61332326 -47.55465965 7.1875 -50.9375 7.1875 C-52.95795442 7.78933749 -54.95861039 8.46056096 -56.9375 9.1875 C-58.24794656 9.48825823 -59.56062477 9.7794038 -60.875 10.0625 C-64.41494443 10.91720141 -67.15726207 12.29220074 -70.23828125 14.203125 C-71.9375 15.1875 -71.9375 15.1875 -75.1875 16.375 C-84.34108177 20.1889924 -93.76748504 29.03354731 -97.8046875 38.14453125 C-100.62310565 47.62291011 -99.46230376 57.58007217 -94.84765625 66.23046875 C-93.88710764 67.88835514 -92.91338341 69.53859355 -91.9375 71.1875 C-91.9375 71.8475 -91.9375 72.5075 -91.9375 73.1875 C-90.9475 73.5175 -89.9575 73.8475 -88.9375 74.1875 C-89.2675 75.8375 -89.5975 77.4875 -89.9375 79.1875 C-89.15375 79.538125 -88.37 79.88875 -87.5625 80.25 C-84.05591009 82.83819731 -83.87464339 85.0063987 -82.9375 89.1875 C-82.29550351 90.86382417 -81.63855843 92.53500513 -80.9375 94.1875 C-80.2775 94.1875 -79.6175 94.1875 -78.9375 94.1875 C-78.6075 95.8375 -78.2775 97.4875 -77.9375 99.1875 C-81.6072989 96.50953864 -83.71731257 94.12328681 -85.9375 90.1875 C-86.37964844 89.775 -86.82179688 89.3625 -87.27734375 88.9375 C-89.60450866 86.4843944 -91.20686053 83.6681583 -92.875 80.75 C-93.22763916 80.13326416 -93.58027832 79.51652832 -93.94360352 78.88110352 C-100.76848063 66.57676647 -104.67091438 51.75343361 -101.06640625 37.8203125 C-95.94340486 24.61808596 -86.36311811 17.24139433 -73.9375 11.1875 C-50.57809264 0.88997959 -25.13467361 0.03118571 0 0 Z " fill="#E2A361" transform="translate(106.9375,12.8125)"/>
<path d="M0 0 C7.3221107 -0.07097283 14.64414192 -0.12352923 21.96653271 -0.15543652 C25.37036025 -0.17078644 28.77376391 -0.19320372 32.17749023 -0.22631836 C51.32901025 -0.40763032 69.98589731 0.63042699 89 3 C90.53884032 3.18161694 92.07780192 3.36221264 93.61694336 3.54125977 C97.04190146 3.95307525 100.45845286 4.39890013 103.875 4.875 C105.06150146 5.04008057 106.24800293 5.20516113 107.47045898 5.37524414 C117.87065696 6.8801049 128.09703942 8.92240627 138.31542969 11.36328125 C141.02060767 12.00488767 143.7318243 12.6133658 146.4453125 13.21875 C158.43259399 15.96181736 169.94140837 19.19303592 179 28 C179 28.33 179 28.66 179 29 C177.35 29 175.7 29 174 29 C173.77828125 28.39414062 173.5565625 27.78828125 173.328125 27.1640625 C171.56392376 24.28945225 169.83219222 23.68029998 166.75 22.375 C165.35007812 21.76785156 165.35007812 21.76785156 163.921875 21.1484375 C158.93854443 19.18974875 154.24616663 17.75166961 148.9375 17 C145.4309951 16.49792312 141.93365723 15.98871226 138.44140625 15.39453125 C137.30574219 15.20246094 136.17007813 15.01039062 135 14.8125 C133.96875 14.63332031 132.9375 14.45414063 131.875 14.26953125 C129.02891664 13.8428692 129.02891664 13.8428692 126.4375 14.63671875 C123.08169682 15.13686249 121.82575456 13.77460791 119 12 C115.82790374 11.28913111 115.82790374 11.28913111 112.5 10.9375 C108.30414829 10.42282193 104.89256212 9.62413799 101 8 C99.33376361 7.96213099 97.66602403 7.95372155 96 8 C95.505 7.505 95.505 7.505 95 7 C91.30661807 6.85226472 87.90910821 7.01363377 84.25 7.5625 C81 8 81 8 78 7 C78 6.34 78 5.68 78 5 C76.989375 5.33 75.97875 5.66 74.9375 6 C71.2238643 7.05672561 67.87172164 7.30366444 64 7 C63.34 6.34 62.68 5.68 62 5 C60.09161517 4.8326522 60.09161517 4.8326522 57.9375 5 C54.5887862 5.08572707 51.74653445 4.82161856 48.5 4 C44.59216108 3.02132931 41.05861126 2.859111 37.04296875 3.02734375 C35 3 35 3 33.09375 2.4765625 C30.36981919 1.85656332 28.0901933 2.14941657 25.3125 2.4375 C17.20082807 3.15812689 9.13460171 3.08767834 1 3 C0.67 2.01 0.34 1.02 0 0 Z " fill="#F7943C" transform="translate(96,15)"/>
<path d="M0 0 C0.33 0.66 0.66 1.32 1 2 C4.465 1.505 4.465 1.505 8 1 C8.66 2.32 9.32 3.64 10 5 C10.55945313 4.72285156 11.11890625 4.44570313 11.6953125 4.16015625 C19.30978928 0.72017558 28.83474697 -1.72175101 37 1 C38.6875 2.375 38.6875 2.375 40 4 C40 4.99 40 5.98 40 7 C40.66 7 41.32 7 42 7 C43.31157516 9.62315032 42.89649988 11.23033436 42.5625 14.125 C42.46066406 15.03507812 42.35882813 15.94515625 42.25390625 16.8828125 C42.17011719 17.58148438 42.08632812 18.28015625 42 19 C40.35 19.66 38.7 20.32 37 21 C37.495 19.515 37.495 19.515 38 18 C38.57177806 12.76514154 38.57177806 12.76514154 36.6875 8.0625 C31.73002153 4.94112467 25.62526769 5.45681939 20 6 C15.96345889 7.9828623 13.3499944 10.16579861 11 14 C9.81304447 17.56086658 9.64904582 20.97331024 9.4375 24.6875 C9.39431641 25.38939453 9.35113281 26.09128906 9.30664062 26.81445312 C9.2008264 28.54275206 9.09993419 30.2713511 9 32 C8.67 31.01 8.34 30.02 8 29 C7.34 29 6.68 29 6 29 C3.8048926 23.44766951 4.15715676 20.52852971 6 15 C5.01 15.495 5.01 15.495 4 16 C1.72273821 15.95246702 -0.53665834 15.8054756 -2.80859375 15.64453125 C-5.09126389 15.82262227 -5.09126389 15.82262227 -6.7421875 17.46484375 C-8.57876634 21.16651973 -8.56899227 24.66656215 -8.6875 28.75 C-8.72166016 29.54277344 -8.75582031 30.33554688 -8.79101562 31.15234375 C-8.87319104 33.10107504 -8.93828045 35.05051362 -9 37 C-9.99 37.495 -9.99 37.495 -11 38 C-11.14575327 34.60462148 -11.23421542 31.21005098 -11.3125 27.8125 C-11.3753418 26.37293945 -11.3753418 26.37293945 -11.43945312 24.90429688 C-11.5206332 20.21208842 -11.55952304 17.78806062 -8.78125 13.875 C-5.97761929 11.98491188 -4.51620408 11.33654645 -1.1875 11.1875 C-0.39730469 11.13980469 0.39289063 11.09210937 1.20703125 11.04296875 C1.79871094 11.02878906 2.39039063 11.01460937 3 11 C3.66 9.35 4.32 7.7 5 6 C-1.74186768 5.67083105 -7.11600898 5.46960539 -13 9 C-16.94449699 12.85204785 -19.07258181 16.06684662 -19.31640625 21.5703125 C-19.35830078 22.46621094 -19.40019531 23.36210938 -19.44335938 24.28515625 C-19.50233398 25.69087891 -19.50233398 25.69087891 -19.5625 27.125 C-19.60568359 28.06988281 -19.64886719 29.01476562 -19.69335938 29.98828125 C-19.79959072 32.32537092 -19.90163176 34.6625683 -20 37 C-20.66 37 -21.32 37 -22 37 C-22.117292 33.81281557 -22.18760766 30.62619432 -22.25 27.4375 C-22.28351563 26.54224609 -22.31703125 25.64699219 -22.3515625 24.72460938 C-22.44234701 18.52856652 -21.50143613 15.11851159 -18 10 C-17.67 9.236875 -17.34 8.47375 -17 7.6875 C-15.67783556 5.45634751 -14.4104589 4.87653051 -12 4 C-11.01 4 -10.02 4 -9 4 C-9 3.34 -9 2.68 -9 2 C-6.94921875 1.77213542 -4.8984375 1.54427083 -2.84765625 1.31640625 C-0.98859771 1.18113386 -0.98859771 1.18113386 0 0 Z " fill="#EB8936" transform="translate(163,39)"/>
<path d="M0 0 C1.5159375 -0.00773437 1.5159375 -0.00773437 3.0625 -0.015625 C6.0703976 0.25636574 8.27306793 0.98678882 11 2.25 C10.67 3.9 10.34 5.55 10 7.25 C8.55367187 7.32347656 8.55367187 7.32347656 7.078125 7.3984375 C5.81484375 7.47320312 4.5515625 7.54796875 3.25 7.625 C1.37054688 7.72941406 1.37054688 7.72941406 -0.546875 7.8359375 C-3.62253987 8.20473894 -5.46398927 8.5388083 -8 10.25 C-9.20996679 12.66993358 -9.27083271 14.4246633 -9.375 17.125 C-9.42398438 17.98867188 -9.47296875 18.85234375 -9.5234375 19.7421875 C-9.17962697 22.43711566 -9.17962697 22.43711566 -6.93359375 24.5546875 C-3.25997181 26.67765944 -0.90020634 26.65748435 3.3125 26.5 C4.56675781 26.46390625 5.82101563 26.4278125 7.11328125 26.390625 C8.06589844 26.34421875 9.01851562 26.2978125 10 26.25 C10 28.23 10 30.21 10 32.25 C5.9021644 34.19802412 2.51917377 34.5478906 -2 34.5625 C-3.19625 34.57925781 -4.3925 34.59601563 -5.625 34.61328125 C-9.90185539 34.15292529 -12.54629519 32.94112938 -15.36328125 29.6640625 C-18.64066265 23.48694036 -19.28164881 17.11109331 -18 10.25 C-13.92505816 2.83998005 -8.33422655 -0.04252156 0 0 Z " fill="#FDF7EC" transform="translate(83,43.75)"/>
<path d="M0 0 C10.56636816 0.28210222 10.56636816 0.28210222 13.83203125 2.42578125 C15.109375 4.02734375 15.109375 4.02734375 16.796875 7.08984375 C17.456875 7.74984375 18.116875 8.40984375 18.796875 9.08984375 C19.15795714 13.56208635 18.8836608 18.04647291 18.734375 22.52734375 C18.71955078 23.78095703 18.70472656 25.03457031 18.68945312 26.32617188 C18.65142578 27.52564453 18.61339844 28.72511719 18.57421875 29.9609375 C18.54577881 31.0636499 18.51733887 32.1663623 18.48803711 33.30249023 C17.796875 36.08984375 17.796875 36.08984375 15.43188477 37.89868164 C7.36257588 41.54643093 -2.35680401 42.98325453 -10.953125 40.19921875 C-14.2877977 38.55503985 -16.03454535 37.15136797 -18.203125 34.08984375 C-18.52774286 29.1334833 -17.96683369 25.23540678 -15.203125 21.08984375 C-13.3984375 19.921875 -13.3984375 19.921875 -11.328125 18.90234375 C-10.65007812 18.55816406 -9.97203125 18.21398437 -9.2734375 17.859375 C-7.203125 17.08984375 -7.203125 17.08984375 -3.203125 17.08984375 C-3.203125 16.42984375 -3.203125 15.76984375 -3.203125 15.08984375 C-3.96238281 15.11304688 -4.72164062 15.13625 -5.50390625 15.16015625 C-6.49777344 15.17820312 -7.49164063 15.19625 -8.515625 15.21484375 C-9.99482422 15.24964844 -9.99482422 15.24964844 -11.50390625 15.28515625 C-14.203125 15.08984375 -14.203125 15.08984375 -17.203125 13.08984375 C-16.873125 10.11984375 -16.543125 7.14984375 -16.203125 4.08984375 C-15.34847656 3.88488281 -14.49382812 3.67992187 -13.61328125 3.46875 C-12.50855469 3.19933594 -11.40382813 2.92992187 -10.265625 2.65234375 C-8.61240234 2.25208984 -8.61240234 2.25208984 -6.92578125 1.84375 C-0.29738848 0.00834138 -0.29738848 0.00834138 0 0 Z M-13.203125 7.08984375 C-13.203125 9.06984375 -13.203125 11.04984375 -13.203125 13.08984375 C-7.263125 13.08984375 -1.323125 13.08984375 4.796875 13.08984375 C5.456875 14.73984375 6.116875 16.38984375 6.796875 18.08984375 C6.08402344 18.12722656 5.37117188 18.16460937 4.63671875 18.203125 C-2.63791261 18.7024604 -8.11134729 19.30724381 -13.703125 24.33984375 C-15.47317854 27.08003253 -15.47317854 27.08003253 -15.265625 30.58984375 C-14.0237447 34.68074355 -12.4633905 36.38620894 -9.203125 39.08984375 C-1.79207307 42.79536972 8.37110296 39.20578557 15.796875 37.08984375 C15.91355714 33.21509918 15.98428731 29.34080979 16.046875 25.46484375 C16.08039063 24.37042969 16.11390625 23.27601562 16.1484375 22.1484375 C16.22506981 15.82627173 16.19853699 11.81434678 11.796875 7.08984375 C3.32043864 2.10370472 -4.49414863 3.63095952 -13.203125 7.08984375 Z " fill="#D6823A" transform="translate(117.203125,38.91015625)"/>
<path d="M0 0 C-0.875 4.875 -0.875 4.875 -2 6 C-4.22393708 6.20299629 -6.44525444 6.31886344 -8.67578125 6.42578125 C-12.06718889 7.26365843 -13.05229357 8.04590628 -15 11 C-15.6352201 14.74363008 -15.69707869 18.45890968 -15.75 22.25 C-15.77964844 23.28125 -15.80929688 24.3125 -15.83984375 25.375 C-15.91044778 27.91674495 -15.96319009 30.45757783 -16 33 C-18.97 33 -21.94 33 -25 33 C-25.11681812 29.45861382 -25.187455 25.9177276 -25.25 22.375 C-25.28351563 21.37597656 -25.31703125 20.37695312 -25.3515625 19.34765625 C-25.44482169 12.30658736 -24.39933208 8.57779702 -19.4375 3.35546875 C-13.56163629 -1.41867051 -7.34224066 -2.44741355 0 0 Z " fill="#FDF0DB" transform="translate(168,45)"/>
<path d="M0 0 C2.97 0 5.94 0 9 0 C9 10.89 9 21.78 9 33 C6.03 33 3.06 33 0 33 C0 22.11 0 11.22 0 0 Z " fill="#FEFBF3" transform="translate(46,45)"/>
<path d="M0 0 C-8.27483843 3.44174696 -16.58296727 6.61136587 -25.10229492 9.39477539 C-33.84144084 12.25457898 -42.52898556 15.26295479 -51.22018433 18.26449585 C-55.81114231 19.84978943 -60.40394614 21.42953689 -65 23 C-65.66262848 23.22656281 -66.32525696 23.45312561 -67.00796509 23.68655396 C-86.40423903 30.29832407 -107.86346819 36.83886417 -128 29 C-128.66 28.34 -129.32 27.68 -130 27 C-122.375 27.875 -122.375 27.875 -119 29 C-115.19193463 29.23506576 -111.37707332 29.18979517 -107.5625 29.1875 C-105.93828125 29.1884668 -105.93828125 29.1884668 -104.28125 29.18945312 C-96.99317938 29.1412168 -90.10324703 28.74465717 -83 27 C-82.505 25.515 -82.505 25.515 -82 24 C-79.6015625 23.12109375 -79.6015625 23.12109375 -76.625 22.4375 C-73.1092601 21.61654227 -71.04325769 21.02883846 -68 19 C-65.67284 18.62599214 -63.33882138 18.29235267 -61 18 C-60.01 17.67 -59.02 17.34 -58 17 C-57.67 16.34 -57.34 15.68 -57 15 C-54.51136576 14.42800344 -52.07898835 13.96632837 -49.5625 13.5625 C-39.96619593 11.88548631 -31.67539236 9.4926139 -23 5 C-22.34 5 -21.68 5 -21 5 C-21 4.34 -21 3.68 -21 3 C-20.30003906 2.86851563 -19.60007812 2.73703125 -18.87890625 2.6015625 C-14.81818047 1.75305264 -10.83902476 0.62283405 -6.83984375 -0.4765625 C-4.07699812 -0.98580777 -2.60573113 -0.93731336 0 0 Z " fill="#D4843A" transform="translate(187,107)"/>
<path d="M0 0 C1.65 0.33 3.3 0.66 5 1 C5 1.66 5 2.32 5 3 C5.639375 3.226875 6.27875 3.45375 6.9375 3.6875 C9 5 9 5 9.8125 7.375 C10 10 10 10 9.52709961 11.77490234 C8.8533672 14.61899554 8.81761245 17.30465714 8.75390625 20.2265625 C8.72103516 21.4228125 8.68816406 22.6190625 8.65429688 23.8515625 C8.59291124 26.37490373 8.5356444 28.8983484 8.48242188 31.421875 C8.44826172 32.61554688 8.41410156 33.80921875 8.37890625 35.0390625 C8.3538501 36.13428223 8.32879395 37.22950195 8.30297852 38.35791016 C8 41 8 41 6 43 C-0.43698402 43.65460854 -3.65274769 42.56483487 -9 39 C-8.34 38.34 -7.68 37.68 -7 37 C-6.77096536 34.08451406 -6.77096536 34.08451406 -6.91015625 30.671875 C-6.93013672 29.39699219 -6.95011719 28.12210938 -6.97070312 26.80859375 C-7.01403128 24.78318617 -7.06228448 22.75805708 -7.11645508 20.73291016 C-7.1650946 18.77534927 -7.19406575 16.81733134 -7.22265625 14.859375 C-7.25109619 13.68858398 -7.27953613 12.51779297 -7.30883789 11.31152344 C-6.96277106 7.60081162 -5.85218064 5.20472589 -4 2 C-3.01 2 -2.02 2 -1 2 C-0.67 1.34 -0.34 0.68 0 0 Z M-3 7 C-3 17.89 -3 28.78 -3 40 C-0.03 40 2.94 40 6 40 C6 29.11 6 18.22 6 7 C3.03 7 0.06 7 -3 7 Z " fill="#ED9346" transform="translate(49,38)"/>
<path d="M0 0 C1.4971907 -0.0049926 1.4971907 -0.0049926 3.02462769 -0.01008606 C5.1340896 -0.01512643 7.24355941 -0.01749528 9.35302734 -0.01733398 C12.49721416 -0.01949181 15.64103267 -0.03759882 18.78515625 -0.05664062 C29.26587658 -0.08636923 39.6620734 0.17915424 50.109375 1.0546875 C51.05990753 1.13241898 52.01044006 1.21015045 52.98977661 1.29023743 C57.76350413 1.73537592 61.90612368 2.48773865 66.4296875 4.16796875 C69.79048093 4.51550086 73.12943082 4.66853361 76.50390625 4.82421875 C79.4296875 5.16796875 79.4296875 5.16796875 82.4296875 7.16796875 C79.76284429 7.04616581 77.09624166 6.92088272 74.4296875 6.79296875 C73.54740479 6.75115479 72.66512207 6.70934082 71.75610352 6.66625977 C66.23417288 6.39289686 60.7213184 6.05589933 55.20703125 5.65625 C24.46207689 3.46296448 -5.9422421 3.21020878 -36.5703125 7.16796875 C-36.2403125 6.50796875 -35.9103125 5.84796875 -35.5703125 5.16796875 C-33.06563162 4.37780157 -30.62002876 3.71068118 -28.0703125 3.10546875 C-27.04550781 2.84540039 -27.04550781 2.84540039 -26 2.58007812 C-17.3753387 0.47236595 -8.85339067 0.01057861 0 0 Z " fill="#FDEDD1" transform="translate(93.5703125,9.83203125)"/>
<path d="M0 0 C2.1875 0.25 2.1875 0.25 4 1 C4.66 0.67 5.32 0.34 6 0 C11.83043761 0.04749847 16.88455718 1.22913514 22 4 C22.495 5.485 22.495 5.485 23 7 C22.0925 6.835 21.185 6.67 20.25 6.5 C12.78774255 5.46653054 4.35747404 4.34818972 -2 9 C-5.53301381 11.91857663 -6.74464632 13.43698837 -7.484375 17.96484375 C-7.78986925 25.23730411 -6.87133853 31.34650289 -2 37 C1.46712111 38.15570704 4.5414956 38.32835293 8.1875 38.5625 C9.45980469 38.64628906 10.73210937 38.73007813 12.04296875 38.81640625 C13.01878906 38.87699219 13.99460937 38.93757813 15 39 C15 39.66 15 40.32 15 41 C12.77110504 41.05428973 10.54182529 41.09292338 8.3125 41.125 C7.07113281 41.14820313 5.82976562 41.17140625 4.55078125 41.1953125 C-0.25790764 40.93080816 -3.0320918 39.64527213 -7 37 C-7.6875 33.875 -7.6875 33.875 -8 31 C-8.99 31.33 -9.98 31.66 -11 32 C-12.52991927 25.23010725 -14.0864708 16.78503435 -10.61328125 10.484375 C-8.85101537 8.48127886 -7.01447217 6.74587588 -5 5 C-4.10011391 3.98273746 -3.20370039 2.96238044 -2.3125 1.9375 C-1.1678125 0.9784375 -1.1678125 0.9784375 0 0 Z " fill="#ED9142" transform="translate(73,39)"/>
<path d="M0 0 C4.09371966 0.34114331 6.4069788 0.92462771 9.75 3.3125 C10.625 6.5 10.625 6.5 10.75 9.3125 C11.41 9.3125 12.07 9.3125 12.75 9.3125 C12.75 15.9125 12.75 22.5125 12.75 29.3125 C9.99921116 30.22942961 8.39051087 30.42136083 5.5625 30.375 C3.6753125 30.3440625 3.6753125 30.3440625 1.75 30.3125 C2.41 29.3225 3.07 28.3325 3.75 27.3125 C4.17553704 24.18092566 4.07429029 21.03244034 4.0625 17.875 C4.07861328 17.01583984 4.09472656 16.15667969 4.11132812 15.27148438 C4.12524092 10.34205577 4.12524092 10.34205577 2.4296875 5.79296875 C0.10672682 3.74552201 -2.29062574 3.10166647 -5.25 2.3125 C-3.25 0.3125 -3.25 0.3125 0 0 Z " fill="#FDF8ED" transform="translate(119.25,44.6875)"/>
<path d="M0 0 C3.09659777 2.44505118 4.58750763 5.23200256 5.06713867 9.1340332 C5.05142822 10.11331787 5.03571777 11.09260254 5.01953125 12.1015625 C5.00986328 13.16826172 5.00019531 14.23496094 4.99023438 15.33398438 C4.96509766 16.43677734 4.93996094 17.53957031 4.9140625 18.67578125 C4.89375977 20.35897461 4.89375977 20.35897461 4.87304688 22.07617188 C4.8377763 24.83903354 4.78848485 27.60090954 4.7265625 30.36328125 C-10.41490177 34.68165402 -10.41490177 34.68165402 -18.2734375 33.36328125 C-20.5859375 31.83984375 -20.5859375 31.83984375 -22.2734375 30.36328125 C-21.48582031 30.38648438 -20.69820313 30.4096875 -19.88671875 30.43359375 C-11.77497181 30.56798956 -4.26340333 29.76811041 3.7265625 28.36328125 C3.7265625 21.76328125 3.7265625 15.16328125 3.7265625 8.36328125 C3.0665625 8.36328125 2.4065625 8.36328125 1.7265625 8.36328125 C1.3965625 6.38328125 1.0665625 4.40328125 0.7265625 2.36328125 C-3.76850869 0.60910713 -7.4518792 0.07966017 -12.2734375 0.36328125 C-12.6034375 0.69328125 -12.9334375 1.02328125 -13.2734375 1.36328125 C-11.2934375 2.02328125 -9.3134375 2.68328125 -7.2734375 3.36328125 C-7.2734375 4.02328125 -7.2734375 4.68328125 -7.2734375 5.36328125 C-15.6884375 5.85828125 -15.6884375 5.85828125 -24.2734375 6.36328125 C-24.2734375 4.38328125 -24.2734375 2.40328125 -24.2734375 0.36328125 C-15.58055284 -3.08921195 -8.57270118 -4.28635059 0 0 Z " fill="#FBDDBA" transform="translate(128.2734375,45.63671875)"/>
<path d="M0 0 C0.33 0 0.66 0 1 0 C0.96519531 1.26714844 0.93039062 2.53429688 0.89453125 3.83984375 C0.86636763 5.53904911 0.83907025 7.23826898 0.8125 8.9375 C0.78736328 9.76830078 0.76222656 10.59910156 0.73632812 11.45507812 C0.62997177 20.56627269 3.4291462 27.27683323 8 35 C8 35.66 8 36.32 8 37 C8.99 37.33 9.98 37.66 11 38 C10.505 40.475 10.505 40.475 10 43 C10.78375 43.350625 11.5675 43.70125 12.375 44.0625 C15.88158991 46.65069731 16.06285661 48.8188987 17 53 C17.64199649 54.67632417 18.29894157 56.34750513 19 58 C19.66 58 20.32 58 21 58 C21.33 59.65 21.66 61.3 22 63 C18.3302011 60.32203864 16.22018743 57.93578681 14 54 C13.33677734 53.38125 13.33677734 53.38125 12.66015625 52.75 C10.33299134 50.2968944 8.73063947 47.4806583 7.0625 44.5625 C6.70986084 43.94576416 6.35722168 43.32902832 5.99389648 42.69360352 C0.70643051 33.16101232 -2.13301733 23.39653382 -2.1875 12.5 C-2.20876953 10.56640625 -2.20876953 10.56640625 -2.23046875 8.59375 C-2.0146557 5.22852954 -1.46189261 3.00468046 0 0 Z " fill="#E99A4F" transform="translate(7,49)"/>
<path d="M0 0 C0.96374531 4.10968536 1.04837459 6.21050702 -1 10 C-4.38806521 12.25871014 -6.10517422 12.05399118 -10.05859375 11.9375 C-12.44036574 12.01417676 -14.02613943 12.68409295 -16 14 C-14.25 10.125 -14.25 10.125 -12 9 C-10.46331135 8.77532169 -8.92031946 8.59203195 -7.375 8.4375 C-6.55773437 8.35371094 -5.74046875 8.26992188 -4.8984375 8.18359375 C-4.27195313 8.12300781 -3.64546875 8.06242187 -3 8 C-2.34 6.35 -1.68 4.7 -1 3 C-7.74186768 2.67083105 -13.11600898 2.46960539 -19 6 C-22.94449699 9.85204785 -25.07258181 13.06684662 -25.31640625 18.5703125 C-25.35830078 19.46621094 -25.40019531 20.36210938 -25.44335938 21.28515625 C-25.50233398 22.69087891 -25.50233398 22.69087891 -25.5625 24.125 C-25.60568359 25.06988281 -25.64886719 26.01476562 -25.69335938 26.98828125 C-25.79959072 29.32537092 -25.90163176 31.6625683 -26 34 C-26.66 34 -27.32 34 -28 34 C-28.117292 30.81281557 -28.18760766 27.62619432 -28.25 24.4375 C-28.28351563 23.54224609 -28.31703125 22.64699219 -28.3515625 21.72460938 C-28.4423781 15.52644445 -27.49067102 12.12545745 -24 7 C-23.5978125 5.88625 -23.5978125 5.88625 -23.1875 4.75 C-18.41042986 -2.28989283 -7.41289888 -0.25759108 0 0 Z " fill="#B57236" transform="translate(169,42)"/>
<path d="M0 0 C-1.03125 0.5775 -2.0625 1.155 -3.125 1.75 C-5.57719183 3.14205233 -7.85414897 4.58618067 -10.1875 6.1875 C-12.73783038 7.83104625 -14.1684654 8.29211635 -17 9 C-24.76972975 13.51728474 -31.63807722 19.43840417 -36.02734375 27.3359375 C-37 29 -37 29 -39 31 C-39.98187035 28.42111162 -40.12277753 27.31388342 -39.1015625 24.703125 C-32.8524903 14.32106854 -13.70599399 -4.77680428 0 0 Z " fill="#EFAC6C" transform="translate(47,21)"/>
<path d="M0 0 C7.3221107 -0.07097283 14.64414192 -0.12352923 21.96653271 -0.15543652 C25.37036025 -0.17078644 28.77376391 -0.19320372 32.17749023 -0.22631836 C51.39706158 -0.40827458 69.94183957 0.59338135 89 3 C89 3.33 89 3.66 89 4 C80.79036237 4.17202966 72.68329772 3.61016949 64.5 3 C50.02714941 1.96989681 35.86218708 1.46006054 21.390625 2.77734375 C14.60423837 3.22299356 7.79751323 3.07326661 1 3 C0.67 2.01 0.34 1.02 0 0 Z " fill="#EF9947" transform="translate(96,15)"/>
<path d="M0 0 C0.66 0.33 1.32 0.66 2 1 C-2.78944649 5.78944649 -6.27494919 6.83560987 -13 7 C-13.33 7.99 -13.66 8.98 -14 10 C-18.47155739 12.2357787 -23.12344654 13.75639438 -27.88671875 15.25390625 C-30.02610007 15.95952104 -30.02610007 15.95952104 -32.046875 17.02734375 C-34 18 -34 18 -37.5625 19 C-41.08054877 19.83688497 -41.08054877 19.83688497 -44 22 C-46.12109375 22.66796875 -46.12109375 22.66796875 -48.4375 23.1875 C-49.58025391 23.45626953 -49.58025391 23.45626953 -50.74609375 23.73046875 C-53.14620939 24.01748431 -54.69593175 23.64054005 -57 23 C-56.27522461 22.72325439 -55.55044922 22.44650879 -54.80371094 22.16137695 C-51.45176373 20.88026764 -48.10088034 19.59639709 -44.75 18.3125 C-43.61046875 17.87744141 -42.4709375 17.44238281 -41.296875 16.99414062 C-34.70300505 14.46524164 -28.15498158 11.85391677 -21.64819336 9.10839844 C-19.04788824 8.02004357 -16.43497296 6.97114436 -13.8125 5.9375 C-9.73213517 4.32908478 -5.7655793 2.53560863 -1.8125 0.63671875 C-1.214375 0.42660156 -0.61625 0.21648437 0 0 Z " fill="#FBE3C1" transform="translate(258,78)"/>
<path d="M0 0 C0.66 0.33 1.32 0.66 2 1 C0 4 0 4 -2.6015625 4.73046875 C-4.09816406 4.95669922 -4.09816406 4.95669922 -5.625 5.1875 C-6.62789062 5.34605469 -7.63078125 5.50460938 -8.6640625 5.66796875 C-9.82035156 5.83232422 -9.82035156 5.83232422 -11 6 C-8.11584117 7.44207941 -5.58278472 7.09394887 -2.375 7.0625 C-0.59222656 7.04896484 -0.59222656 7.04896484 1.2265625 7.03515625 C2.59941406 7.01775391 2.59941406 7.01775391 4 7 C5.60725635 10.21451269 5.05748185 13.43612536 5 17 C3.75579353 17.5345256 2.50429064 18.05208611 1.25 18.5625 C0.55390625 18.85253906 -0.1421875 19.14257812 -0.859375 19.44140625 C-3.30012784 20.07831803 -4.6403655 19.80248831 -7 19 C-0.375 16 -0.375 16 3 16 C3 14.02 3 12.04 3 10 C2.01 10.33 1.02 10.66 0 11 C-2.33027407 11.14564213 -4.66536143 11.22081702 -7 11.25 C-8.2375 11.27578125 -9.475 11.3015625 -10.75 11.328125 C-14 11 -14 11 -15.9375 9.734375 C-17 8 -17 8 -17 4 C-16.02417969 3.87882812 -15.04835937 3.75765625 -14.04296875 3.6328125 C-12.77066406 3.46523438 -11.49835938 3.29765625 -10.1875 3.125 C-8.92292969 2.96257813 -7.65835938 2.80015625 -6.35546875 2.6328125 C-2.88300683 2.20431547 -2.88300683 2.20431547 0 0 Z " fill="#EA8330" transform="translate(198,60)"/>
<path d="M0 0 C2.69660762 1.79251243 3.39765359 3.09203799 5 6 C5.66 6.66 6.32 7.32 7 8 C7.13525391 10.70556641 7.13525391 10.70556641 6.9765625 14.1015625 C6.925 15.31328125 6.8734375 16.525 6.8203125 17.7734375 C6.75585938 19.04445313 6.69140625 20.31546875 6.625 21.625 C6.56828125 22.90375 6.5115625 24.1825 6.453125 25.5 C6.31130977 28.66720687 6.15986504 31.83366113 6 35 C5.01 35.495 5.01 35.495 4 36 C3.98018066 35.30438965 3.96036133 34.6087793 3.93994141 33.89208984 C3.84427876 30.71936679 3.73476696 27.54726513 3.625 24.375 C3.5940625 23.28058594 3.563125 22.18617187 3.53125 21.05859375 C3.41009395 13.27530797 3.41009395 13.27530797 1 6 C-3.10699244 2.3725434 -7.58909883 2.46574312 -12.8125 2.3125 C-13.60076172 2.27833984 -14.38902344 2.24417969 -15.20117188 2.20898438 C-17.13363119 2.12700125 -19.06679035 2.06181155 -21 2 C-21 1.67 -21 1.34 -21 1 C-14.0204007 -1.76163435 -7.29736623 -1.44461436 0 0 Z " fill="#EB8832" transform="translate(129,40)"/>
<path d="M0 0 C3.47628303 1.95276421 6.21647637 4.03228038 9.0625 6.8125 C22.51285021 18.9267227 38.74142531 20.44389037 56 21 C56 21.33 56 21.66 56 22 C51.56251365 22.02896822 47.12505153 22.04678788 42.6875 22.0625 C41.42486328 22.07087891 40.16222656 22.07925781 38.86132812 22.08789062 C37.04858398 22.09272461 37.04858398 22.09272461 35.19921875 22.09765625 C34.08377686 22.10289307 32.96833496 22.10812988 31.8190918 22.11352539 C29 22 29 22 26 21 C26 20.34 26 19.68 26 19 C25.484375 18.896875 24.96875 18.79375 24.4375 18.6875 C21.13973565 17.75736134 18.13366668 16.38604488 15 15 C15 14.34 15 13.68 15 13 C14.360625 12.87625 13.72125 12.7525 13.0625 12.625 C12.381875 12.41875 11.70125 12.2125 11 12 C10.67 11.34 10.34 10.68 10 10 C8.17790028 9.24292527 8.17790028 9.24292527 6.0625 8.625 C2.19001218 7.25334957 2.19001218 7.25334957 0.5 5 C0 3 0 3 0 0 Z " fill="#FDEBCD" transform="translate(33,118)"/>
<path d="M0 0 C2.97 0 5.94 0 9 0 C9 10.89 9 21.78 9 33 C6.03 33 3.06 33 0 33 C0 22.11 0 11.22 0 0 Z M1 1 C1 10.57 1 20.14 1 30 C2.98 30 4.96 30 7 30 C7 20.43 7 10.86 7 1 C5.02 1 3.04 1 1 1 Z " fill="#FAD7B2" transform="translate(46,45)"/>
<path d="M0 0 C3.5625 0.1875 3.5625 0.1875 5.5625 2.1875 C5.625 5.125 5.625 5.125 4.5625 8.1875 C0.17207825 10.77010103 -3.3812589 11.55746886 -8.4375 11.1875 C-8.4375 9.2075 -8.4375 7.2275 -8.4375 5.1875 C-7.7775 5.1875 -7.1175 5.1875 -6.4375 5.1875 C-5.9734375 4.2284375 -5.9734375 4.2284375 -5.5 3.25 C-3.93636621 0.21471088 -3.93636621 0.21471088 0 0 Z " fill="#E18B42" transform="translate(188.4375,48.8125)"/>
<path d="M0 0 C-0.33 7.26 -0.66 14.52 -1 22 C-2.65 22 -4.3 22 -6 22 C-7.1053873 18.6838381 -7.16753642 16.11463365 -7.1875 12.625 C-7.20167969 11.50351562 -7.21585938 10.38203125 -7.23046875 9.2265625 C-7.00019566 6.00273929 -6.54817308 3.82888769 -5 1 C-2 0 -2 0 0 0 Z " fill="#FDFCF5" transform="translate(151,52)"/>
<path d="M0 0 C0 3.3 0 6.6 0 10 C-1.79133978 10.05391993 -3.58313899 10.09275571 -5.375 10.125 C-6.37273437 10.14820312 -7.37046875 10.17140625 -8.3984375 10.1953125 C-11 10 -11 10 -13 8 C-13.125 5.375 -13.125 5.375 -13 3 C-8.37802694 0.78145293 -5.23175837 -0.38281159 0 0 Z " fill="#CE7830" transform="translate(124,62)"/>
<path d="M0 0 C3 0.375 3 0.375 5 1 C6.59051299 4.18102598 6.39740378 7.5369099 6 11 C4.1259849 13.90472341 2.2505011 14.25453384 -1 15 C-0.98839844 14.38511719 -0.97679687 13.77023438 -0.96484375 13.13671875 C-0.95582031 12.32847656 -0.94679687 11.52023438 -0.9375 10.6875 C-0.92589844 9.88699219 -0.91429687 9.08648437 -0.90234375 8.26171875 C-0.90342145 5.83138666 -0.90342145 5.83138666 -2 3 C-5.63 3.33 -9.26 3.66 -13 4 C-9.40610777 -1.00019788 -5.62963057 -0.5117846 0 0 Z " fill="#FDFBF3" transform="translate(194,45)"/>
<path d="M0 0 C2.31 0 4.62 0 7 0 C5.68 0.33 4.36 0.66 3 1 C3 3.31 3 5.62 3 8 C3.66 8.33 4.32 8.66 5 9 C5.33 10.65 5.66 12.3 6 14 C10.62 14 15.24 14 20 14 C17.02662425 16.97337575 14.23398008 17.21338943 10.1875 17.375 C6.73985677 17.31442647 4.25963311 17.08021671 1.375 15.125 C-1.57874398 11.23849476 -1.54340929 8.9531514 -1.30859375 4.20703125 C-1 2 -1 2 0 0 Z " fill="#CD823F" transform="translate(74,54)"/>
<path d="M0 0 C2.76647781 2.05712453 4.11677127 3.62721307 5.4375 6.8125 C5.125 9.125 5.125 9.125 4.4375 10.8125 C3.81901042 9.0546875 3.20052083 7.296875 2.58203125 5.5390625 C0.92120436 3.03365128 -0.70614942 2.63784776 -3.5625 1.8125 C-9.1706545 1.1633731 -14.01081795 1.05027022 -19.125 3.5625 C-24.74415643 8.74941363 -25.69882335 13.01745592 -26.125 20.5 C-26.16818359 21.20189453 -26.21136719 21.90378906 -26.25585938 22.62695312 C-26.3616736 24.35525206 -26.46256581 26.0838511 -26.5625 27.8125 C-29.70132751 23.10425873 -29.10146387 18.32113069 -28.5625 12.8125 C-27.0666729 6.75891785 -23.45886615 3.06946922 -18.19921875 -0.12109375 C-12.18551994 -2.55330083 -6.04989932 -2.01663311 0 0 Z " fill="#B57740" transform="translate(198.5625,43.1875)"/>
<path d="M0 0 C0.99 0 1.98 0 3 0 C3.45375 0.474375 3.9075 0.94875 4.375 1.4375 C5.94194692 3.23706571 5.94194692 3.23706571 8.5625 3.4375 C11 4 11 4 12.14453125 5.61328125 C13.26929289 8.75131487 13.19150013 11.42499361 13.125 14.75 C13.10695313 15.92046875 13.08890625 17.0909375 13.0703125 18.296875 C13.03550781 19.63492188 13.03550781 19.63492188 13 21 C12.34 21.33 11.68 21.66 11 22 C9.21590198 18.93753253 8.77119979 16.77920727 8.875 13.25 C8.89304687 12.45078125 8.91109375 11.6515625 8.9296875 10.828125 C8.95289063 10.22484375 8.97609375 9.6215625 9 9 C8.39671875 8.89558594 7.7934375 8.79117188 7.171875 8.68359375 C3.53196777 7.5379395 2.22465985 5.02800924 0 2 C0 1.34 0 0.68 0 0 Z " fill="#E26A06" transform="translate(264,40)"/>
<path d="M0 0 C0.66 0.33 1.32 0.66 2 1 C4.88370333 1.07194869 7.74239664 1.09291708 10.625 1.0625 C11.82769531 1.05573242 11.82769531 1.05573242 13.0546875 1.04882812 C15.03649006 1.03703168 17.01825433 1.01909605 19 1 C19 2.98 19 4.96 19 7 C12.24641002 9.57279618 5.14731217 9.89777214 -2 9 C-4.57554658 7.567477 -5.36800339 6.51076402 -7 4 C-2.125 4.875 -2.125 4.875 -1 6 C1.69654854 6.07319621 4.36691458 6.09242537 7.0625 6.0625 C8.20041992 6.05573242 8.20041992 6.05573242 9.36132812 6.04882812 C11.24091871 6.0370068 13.12046899 6.01907078 15 6 C15 5.01 15 4.02 15 3 C10.38 3 5.76 3 1 3 C0.67 2.01 0.34 1.02 0 0 Z " fill="#FBC596" transform="translate(182,69)"/>
<path d="M0 0 C0.83337891 -0.02900391 1.66675781 -0.05800781 2.52539062 -0.08789062 C8.01648332 -0.14432083 11.27198927 0.53875443 15.5625 4.3125 C15.8925 5.3025 16.2225 6.2925 16.5625 7.3125 C15.9025 7.3125 15.2425 7.3125 14.5625 7.3125 C13.9128125 6.631875 13.9128125 6.631875 13.25 5.9375 C10.00982676 2.81733317 6.68891366 2.17686621 2.3125 2.0625 C-2.43202686 2.15818794 -6.86382976 3.10150457 -11.4375 4.3125 C-11.7675 6.6225 -12.0975 8.9325 -12.4375 11.3125 C-13.4275 10.9825 -14.4175 10.6525 -15.4375 10.3125 C-15.1075 7.3425 -14.7775 4.3725 -14.4375 1.3125 C-9.6425484 0.10640788 -4.91415632 0.05674545 0 0 Z " fill="#C57732" transform="translate(115.4375,41.6875)"/>
<path d="M0 0 C0.66 0 1.32 0 2 0 C2.66 0.99 3.32 1.98 4 3 C4.99 3.33 5.98 3.66 7 4 C7 3.01 7 2.02 7 1 C7.66 1 8.32 1 9 1 C9.33 1.66 9.66 2.32 10 3 C13.27555608 3.47001033 13.27555608 3.47001033 17.0625 3.625 C18.99802734 3.73714844 18.99802734 3.73714844 20.97265625 3.8515625 C22.47119141 3.92503906 22.47119141 3.92503906 24 4 C24 4.99 24 5.98 24 7 C20.3905118 7.82183247 17.01305639 8.16225746 13.3125 8.1875 C12.35988281 8.20167969 11.40726563 8.21585938 10.42578125 8.23046875 C8 8 8 8 6 6 C5.154375 5.71125 4.30875 5.4225 3.4375 5.125 C1 4 1 4 0.1875 1.875 C0.125625 1.25625 0.06375 0.6375 0 0 Z " fill="#FDF8E9" transform="translate(173,68)"/>
<path d="M0 0 C1.32 0.33 2.64 0.66 4 1 C-1.75 6 -1.75 6 -4 6 C-4.33 6.99 -4.66 7.98 -5 9 C-7.66015625 10.24609375 -7.66015625 10.24609375 -11.0625 11.4375 C-14.97703404 12.85357734 -18.71514038 14.26486904 -22.375 16.25 C-25.92536958 18.1233865 -29.01118293 18.66759858 -33 19 C-32.67 18.34 -32.34 17.68 -32 17 C-30.66666667 16.66666667 -29.33333333 16.33333333 -28 16 C-27.67 15.34 -27.34 14.68 -27 14 C-21.07178143 10.98709879 -14.71991583 9.30316365 -8.25 7.90625 C-5.83269533 7.1886643 -5.83269533 7.1886643 -4.6875 4.90625 C-4.3471875 3.96265625 -4.3471875 3.96265625 -4 3 C-3.01 3 -2.02 3 -1 3 C-0.67 2.01 -0.34 1.02 0 0 Z " fill="#D37E2F" transform="translate(269,68)"/>
<path d="M0 0 C2.95839355 -0.02689449 5.91654427 -0.04678741 8.875 -0.0625 C9.71675781 -0.07087891 10.55851563 -0.07925781 11.42578125 -0.08789062 C12.23144531 -0.09111328 13.03710938 -0.09433594 13.8671875 -0.09765625 C14.98262939 -0.10551147 14.98262939 -0.10551147 16.12060547 -0.11352539 C18 0 18 0 20 1 C21.47674029 1.13424912 22.95687555 1.23165467 24.4375 1.3125 C30.07471073 1.77850942 35.53124386 2.79441189 41.0625 3.9375 C41.90804443 4.10741455 42.75358887 4.2773291 43.62475586 4.45239258 C44.42018799 4.62150146 45.21562012 4.79061035 46.03515625 4.96484375 C46.7506665 5.1155835 47.46617676 5.26632324 48.20336914 5.42163086 C50 6 50 6 52 8 C46.06626884 7.52906896 40.28536431 6.72138727 34.4375 5.625 C23.03942178 3.50522739 11.51524269 2.29520451 0 1 C0 0.67 0 0.34 0 0 Z " fill="#FDE4BF" transform="translate(177,17)"/>
<path d="M0 0 C5.58784676 1.3659181 5.58784676 1.3659181 7.625 4.5 C8.07875 5.325 8.5325 6.15 9 7 C11.06700655 8.32793606 11.06700655 8.32793606 13 9 C13 9.66 13 10.32 13 11 C14.32 11 15.64 11 17 11 C17.33 11.99 17.66 12.98 18 14 C18.99 14.66 19.98 15.32 21 16 C21 16.66 21 17.32 21 18 C22.98 18.33 24.96 18.66 27 19 C27.33 19.99 27.66 20.98 28 22 C20.38733461 20.81580761 15.64364466 15.95001235 10 11 C9.11828125 10.25234375 8.2365625 9.5046875 7.328125 8.734375 C1.13690476 3.41071429 1.13690476 3.41071429 0 0 Z " fill="#E8984D" transform="translate(29,112)"/>
<path d="M0 0 C14.25049463 0.26257193 28.06054682 3.24309605 42 6 C42 6.33 42 6.66 42 7 C40.64631959 7.05525226 39.29193765 7.09334369 37.9375 7.125 C37.18339844 7.14820313 36.42929688 7.17140625 35.65234375 7.1953125 C33 7 33 7 29.85546875 6.01953125 C24.12933958 4.50532688 18.45934245 4.60747999 12.5625 4.52148438 C3.96282817 4.26891522 3.96282817 4.26891522 0 1 C0 0.67 0 0.34 0 0 Z " fill="#E79D57" transform="translate(187,19)"/>
<path d="M0 0 C1.51400391 0.01740234 1.51400391 0.01740234 3.05859375 0.03515625 C4.07050781 0.04417969 5.08242188 0.05320313 6.125 0.0625 C7.29869141 0.07990234 7.29869141 0.07990234 8.49609375 0.09765625 C8.49609375 0.42765625 8.49609375 0.75765625 8.49609375 1.09765625 C5.19609375 1.42765625 1.89609375 1.75765625 -1.50390625 2.09765625 C-1.50390625 12.65765625 -1.50390625 23.21765625 -1.50390625 34.09765625 C-2.49390625 34.59265625 -2.49390625 34.59265625 -3.50390625 35.09765625 C-3.52855815 30.27384823 -3.54674318 25.45007658 -3.55883789 20.6262207 C-3.56387799 18.98396161 -3.57071003 17.34170702 -3.5793457 15.69946289 C-3.59142551 13.34390146 -3.59713764 10.98839916 -3.6015625 8.6328125 C-3.60672379 7.89426529 -3.61188507 7.15571808 -3.61720276 6.39479065 C-3.61739875 4.62867537 -3.56585344 2.86268479 -3.50390625 1.09765625 C-2.50390625 0.09765625 -2.50390625 0.09765625 0 0 Z " fill="#B57639" transform="translate(47.50390625,42.90234375)"/>
<path d="M0 0 C1.36125 0.7425 1.36125 0.7425 2.75 1.5 C-0.26031744 2.43423645 -1.11650268 2.54449911 -4.25 1.5 C-13.76428286 0.77264156 -13.76428286 0.77264156 -22.25 4.5 C-26.78946487 9.03946487 -28.29099225 12.85490592 -28.8125 19.1875 C-28.89628906 20.18136719 -28.98007813 21.17523438 -29.06640625 22.19921875 C-29.12699219 22.95847656 -29.18757813 23.71773437 -29.25 24.5 C-29.58 24.5 -29.91 24.5 -30.25 24.5 C-30.25 19.55 -30.25 14.6 -30.25 9.5 C-29.59 9.5 -28.93 9.5 -28.25 9.5 C-28.01023437 8.74332031 -27.77046875 7.98664062 -27.5234375 7.20703125 C-22.83244976 -2.76491509 -9.15067386 -3.82664543 0 0 Z " fill="#AD733A" transform="translate(93.25,43.5)"/>
<path d="M0 0 C2.1479894 0.44812018 4.29336561 0.90878348 6.4375 1.375 C8.22994141 1.75785156 8.22994141 1.75785156 10.05859375 2.1484375 C11.51458984 2.56996094 11.51458984 2.56996094 13 3 C13.33 3.66 13.66 4.32 14 5 C15.65 5 17.3 5 19 5 C19 5.66 19 6.32 19 7 C22.63 7.66 26.26 8.32 30 9 C30 9.33 30 9.66 30 10 C22.44409601 10.39460234 15.01558052 10.14536174 8 7 C7.67 6.01 7.34 5.02 7 4 C4.03 3.505 4.03 3.505 1 3 C0.67 2.01 0.34 1.02 0 0 Z " fill="#FB8D2D" transform="translate(49,127)"/>
<path d="M0 0 C0.33 0 0.66 0 1 0 C1 7.92 1 15.84 1 24 C-14.23729688 28.30229559 -14.23729688 28.30229559 -22 27 C-24.3125 25.4765625 -24.3125 25.4765625 -26 24 C-25.21238281 24.02320312 -24.42476563 24.04640625 -23.61328125 24.0703125 C-15.50153431 24.20470831 -7.98996583 23.40482916 0 22 C0 14.74 0 7.48 0 0 Z " fill="#FAC596" transform="translate(132,52)"/>
<path d="M0 0 C2.97 0 5.94 0 9 0 C9 0.66 9 1.32 9 2 C10.3303125 2.12375 10.3303125 2.12375 11.6875 2.25 C15.44444156 3.10062828 17.1237137 4.51240104 20 7 C20.99 7.33 21.98 7.66 23 8 C23 8.66 23 9.32 23 10 C23.66 10 24.32 10 25 10 C25.33 12.31 25.66 14.62 26 17 C25.34 16.29875 24.68 15.5975 24 14.875 C16.83459093 7.82901442 9.50429687 4.27434618 0 1 C0 0.67 0 0.34 0 0 Z " fill="#FADCB6" transform="translate(253,31)"/>
<path d="M0 0 C1.59134766 -0.02126953 1.59134766 -0.02126953 3.21484375 -0.04296875 C6.0625 0.1875 6.0625 0.1875 9.0625 2.1875 C8.14726562 2.16429687 7.23203125 2.14109375 6.2890625 2.1171875 C5.10054687 2.09914062 3.91203125 2.08109375 2.6875 2.0625 C1.50414062 2.03929687 0.32078125 2.01609375 -0.8984375 1.9921875 C-4.04903817 1.85883771 -4.04903817 1.85883771 -5.9375 4.1875 C-2.9675 4.1875 0.0025 4.1875 3.0625 4.1875 C3.0625 4.5175 3.0625 4.8475 3.0625 5.1875 C1.969375 5.27 0.87625 5.3525 -0.25 5.4375 C-3.97193943 5.80760299 -3.97193943 5.80760299 -5.75 8.25 C-6.141875 8.889375 -6.53375 9.52875 -6.9375 10.1875 C-7.5975 10.1875 -8.2575 10.1875 -8.9375 10.1875 C-8.9375 11.8375 -8.9375 13.4875 -8.9375 15.1875 C-9.2675 15.1875 -9.5975 15.1875 -9.9375 15.1875 C-9.9375 12.2175 -9.9375 9.2475 -9.9375 6.1875 C-10.5975 6.1875 -11.2575 6.1875 -11.9375 6.1875 C-11.9375 6.8475 -11.9375 7.5075 -11.9375 8.1875 C-12.9275 8.5175 -13.9175 8.8475 -14.9375 9.1875 C-12.22680774 2.28755606 -6.92296612 0.04195737 0 0 Z " fill="#FAE8CF" transform="translate(188.9375,43.8125)"/>
<path d="M0 0 C0 1.65 0 3.3 0 5 C-4.26616316 6.13764351 -7.56486311 7 -12 7 C-12 6.01 -12 5.02 -12 4 C-13.98 4.33 -15.96 4.66 -18 5 C-13.59844152 -0.10021856 -6.39378477 -0.3278864 0 0 Z " fill="#F6D8B5" transform="translate(124,57)"/>
<path d="M0 0 C1 2 1 2 0.25 4.8125 C0.1675 5.864375 0.085 6.91625 0 8 C2.35426499 10.77122275 2.35426499 10.77122275 5 13 C5 13.66 5 14.32 5 15 C11.26716785 16.83036444 18.16857503 16.67821463 24.4375 14.9375 C27.87065774 14.03403744 28.81395751 13.99867236 32 15 C23.66394578 18.2268597 13.94964353 19.9436068 5.26171875 17.10546875 C1.91557777 15.46996288 0.17196121 14.06629818 -2 11 C-2.17069462 7.56477082 -1.78082601 4.34639719 -1 1 C-0.67 0.67 -0.34 0.34 0 0 Z " fill="#E5883B" transform="translate(101,62)"/>
<path d="M0 0 C1.0528418 0.01353516 1.0528418 0.01353516 2.12695312 0.02734375 C3.85561525 0.05086296 5.58410145 0.08673287 7.3125 0.125 C8.27624531 4.23468536 8.36087459 6.33550702 6.3125 10.125 C2.92443479 12.38371014 1.20732578 12.17899118 -2.74609375 12.0625 C-5.12786574 12.13917676 -6.71363943 12.80909295 -8.6875 14.125 C-6.9375 10.25 -6.9375 10.25 -4.6875 9.125 C-3.15081135 8.90032169 -1.60781946 8.71703195 -0.0625 8.5625 C0.75476563 8.47871094 1.57203125 8.39492188 2.4140625 8.30859375 C3.04054687 8.24800781 3.66703125 8.18742187 4.3125 8.125 C4.9725 6.475 5.6325 4.825 6.3125 3.125 C2.75204823 1.93818274 -0.12558337 2.02810168 -3.875 2.0625 C-5.14730469 2.07152344 -6.41960937 2.08054688 -7.73046875 2.08984375 C-8.70628906 2.10144531 -9.68210938 2.11304688 -10.6875 2.125 C-7.00662647 -0.32891569 -4.24394412 -0.10302759 0 0 Z " fill="#C67F41" transform="translate(161.6875,41.875)"/>
<path d="M0 0 C13.25719613 2.50413705 25.98593985 5.26410819 36 15 C36 15.33 36 15.66 36 16 C34.35 16 32.7 16 31 16 C30.7628125 15.39027344 30.525625 14.78054687 30.28125 14.15234375 C25.45673188 6.04774166 8.62752011 4.23043699 0 2 C0 1.34 0 0.68 0 0 Z " fill="#E79750" transform="translate(239,28)"/>
<path d="M0 0 C2 2 2 2 2.375 5.4375 C2.27266557 10.99425929 0.09030852 15.92353646 -2 21 C-2.66 21 -3.32 21 -4 21 C-4.226875 21.5775 -4.45375 22.155 -4.6875 22.75 C-6.38050483 25.652294 -8.18146859 27.18808695 -11 29 C-13.3125 28.75 -13.3125 28.75 -15 28 C-12.99763486 25.91875381 -10.92272618 24.1789893 -8.625 22.4375 C-3.742103 18.24919769 -0.4390446 12.81068197 0.3046875 6.35546875 C0.34777262 3.63914883 0.34777262 3.63914883 0 0 Z " fill="#F9DDBA" transform="translate(279,48)"/>
<path d="M0 0 C2.86761722 2.44165816 2.98678474 2.88106263 3.4375 6.9375 C3.32415251 10.02621921 3.13334729 10.82526907 1.1875 13.375 C-5.19418307 18.11567885 -10.29606992 18.15105745 -18 18 C-17.67 19.65 -17.34 21.3 -17 23 C-17.66 23 -18.32 23 -19 23 C-19 20.69 -19 18.38 -19 16 C-18.10796875 15.93941406 -17.2159375 15.87882812 -16.296875 15.81640625 C-14.54117188 15.69072266 -14.54117188 15.69072266 -12.75 15.5625 C-11.58984375 15.48128906 -10.4296875 15.40007813 -9.234375 15.31640625 C-5.51805574 15.03308413 -5.51805574 15.03308413 -2 14 C0.15755085 10.98757052 0.22050748 8.3792843 0.125 4.75 C0.09792969 3.41195312 0.09792969 3.41195312 0.0703125 2.046875 C0.04710937 1.37140625 0.02390625 0.6959375 0 0 Z " fill="#F9D0A8" transform="translate(199,46)"/>
<path d="M0 0 C0.268125 0.639375 0.53625 1.27875 0.8125 1.9375 C1.88667752 4.33131686 1.88667752 4.33131686 5 5 C6.4296875 6.6015625 6.4296875 6.6015625 7.875 8.625 C8.390625 9.33914062 8.90625 10.05328125 9.4375 10.7890625 C9.953125 11.51867187 10.46875 12.24828125 11 13 C11.495 13.68835938 11.99 14.37671875 12.5 15.0859375 C13.67329482 16.71921722 14.83759242 18.358954 16 20 C13.6875 20.3125 13.6875 20.3125 11 20 C8.75756777 17.13896577 8 15.65923696 8 12 C7.01 12 6.02 12 5 12 C5 11.34 5 10.68 5 10 C4.01 9.67 3.02 9.34 2 9 C-0.04108797 5.99208089 -0.19878036 3.57804656 0 0 Z " fill="#FDECD1" transform="translate(17,98)"/>
<path d="M0 0 C0.99 0.495 0.99 0.495 2 1 C8.35692906 3.11897635 13.83990074 2.05336642 20 0 C21.60725635 3.21451269 21.05748185 6.43612536 21 10 C19.75579353 10.5345256 18.50429064 11.05208611 17.25 11.5625 C16.55390625 11.85253906 15.8578125 12.14257812 15.140625 12.44140625 C12.69987216 13.07831803 11.3596345 12.80248831 9 12 C15.625 9 15.625 9 19 9 C19 7.02 19 5.04 19 3 C18.01 3.33 17.02 3.66 16 4 C13.60509014 4.06970052 11.20832309 4.08448003 8.8125 4.0625 C7.54019531 4.05347656 6.26789063 4.04445313 4.95703125 4.03515625 C3.49330078 4.01775391 3.49330078 4.01775391 2 4 C1.34 2.68 0.68 1.36 0 0 Z " fill="#CE742C" transform="translate(182,67)"/>
<path d="M0 0 C2.475 0.495 2.475 0.495 5 1 C4.67 2.65 4.34 4.3 4 6 C2.55367187 6.07347656 2.55367187 6.07347656 1.078125 6.1484375 C-0.18515625 6.22320312 -1.4484375 6.29796875 -2.75 6.375 C-4.62945312 6.47941406 -4.62945312 6.47941406 -6.546875 6.5859375 C-9.62253987 6.95473894 -11.46398927 7.2888083 -14 9 C-15.21693876 11.43387753 -15.31959896 13.41838846 -15.5625 16.125 C-15.68818359 17.49011719 -15.68818359 17.49011719 -15.81640625 18.8828125 C-15.87699219 19.58148438 -15.93757813 20.28015625 -16 21 C-16.33 21 -16.66 21 -17 21 C-17.05429959 19.25034642 -17.09292823 17.50020213 -17.125 15.75 C-17.15980469 14.28820312 -17.15980469 14.28820312 -17.1953125 12.796875 C-16.99283641 9.89741737 -16.66426446 8.3655583 -15 6 C-11.61237916 3.52921232 -8.33183656 3.79336327 -4.25 3.875 C-2.49429688 3.90207031 -2.49429688 3.90207031 -0.703125 3.9296875 C0.63492188 3.96449219 0.63492188 3.96449219 2 4 C1.34 2.68 0.68 1.36 0 0 Z " fill="#FEE2C5" transform="translate(89,45)"/>
<path d="M0 0 C0.88365234 0.00451172 1.76730469 0.00902344 2.67773438 0.01367188 C4.84768559 0.02540134 7.01760172 0.04333505 9.1875 0.0625 C7.1875 2.0625 7.1875 2.0625 5.15625 2.1171875 C4.3415625 2.05789062 3.526875 1.99859375 2.6875 1.9375 C-2.44654544 1.80317904 -6.14699211 3.07568628 -10.78125 5.1875 C-12.8125 6.0625 -12.8125 6.0625 -14.8125 6.0625 C-14.8125 5.4025 -14.8125 4.7425 -14.8125 4.0625 C-15.8025 3.7325 -16.7925 3.4025 -17.8125 3.0625 C-12.25598032 -0.64184645 -6.46056261 -0.06263036 0 0 Z " fill="#F9A24D" transform="translate(85.8125,14.9375)"/>
<path d="M0 0 C-1.70845744 3.41691488 -5.40755123 3.83727663 -8.87109375 5.04296875 C-20.84521372 8.70546487 -20.84521372 8.70546487 -27 7 C-23.25614186 5.62841249 -19.50408803 4.28080868 -15.75 2.9375 C-14.68652344 2.54755859 -13.62304688 2.15761719 -12.52734375 1.75585938 C-11.50253906 1.39169922 -10.47773438 1.02753906 -9.421875 0.65234375 C-8.47924805 0.31195068 -7.53662109 -0.02844238 -6.56542969 -0.37915039 C-3.89647093 -1.02505467 -2.5478969 -0.92531647 0 0 Z " fill="#FAE3C2" transform="translate(149,122)"/>
<path d="M0 0 C1.32 0 2.64 0 4 0 C4 1.98 4 3.96 4 6 C-0.0978356 7.94802412 -3.48082623 8.2978906 -8 8.3125 C-9.19625 8.32925781 -10.3925 8.34601563 -11.625 8.36328125 C-15.21409147 7.97695543 -17.09716474 7.08366395 -20 5 C-16.98968256 4.06576355 -16.13349732 3.95550089 -13 5 C-11.00179272 5.09435979 -9.00042797 5.12990301 -7 5.125 C-5.948125 5.12757812 -4.89625 5.13015625 -3.8125 5.1328125 C-0.91873122 5.12353635 -0.91873122 5.12353635 2 4 C2 3.01 2 2.02 2 1 C1.34 0.67 0.68 0.34 0 0 Z " fill="#FCD6AD" transform="translate(89,70)"/>
<path d="M0 0 C0.33 0 0.66 0 1 0 C0.98839844 1.23234375 0.97679687 2.4646875 0.96484375 3.734375 C0.90568211 12.87762114 0.982703 21.89882504 2 31 C-3.40915847 25.59084153 -2.23647575 15.53639374 -2.265625 8.453125 C-2.01387896 5.18042648 -1.41184164 2.93573421 0 0 Z " fill="#EAA764" transform="translate(7,49)"/>
<path d="M0 0 C-0.72445313 0.4846875 -1.44890625 0.969375 -2.1953125 1.46875 C-10.8423324 7.46401713 -16.29943194 13.1318185 -20 23 C-21.37095624 19.30962722 -20.60010967 17.29116165 -19.0625 13.75 C-18.68222656 12.85796875 -18.30195313 11.9659375 -17.91015625 11.046875 C-17.60980469 10.37140625 -17.30945313 9.6959375 -17 9 C-16.34 9 -15.68 9 -15 9 C-15 8.34 -15 7.68 -15 7 C-14.34 7 -13.68 7 -13 7 C-13 6.34 -13 5.68 -13 5 C-12.01 5 -11.02 5 -10 5 C-10 4.34 -10 3.68 -10 3 C-9.01 3 -8.02 3 -7 3 C-7 2.01 -7 1.02 -7 0 C-2.25 -1.125 -2.25 -1.125 0 0 Z " fill="#FEEFD3" transform="translate(27,28)"/>
<path d="M0 0 C0.33 0 0.66 0 1 0 C1 6.27 1 12.54 1 19 C3.31 19 5.62 19 8 19 C8 14.05 8 9.1 8 4 C8.33 4 8.66 4 9 4 C9 9.94 9 15.88 9 22 C6.03 22 3.06 22 0 22 C0 14.74 0 7.48 0 0 Z " fill="#F5C89D" transform="translate(143,56)"/>
<path d="M0 0 C0 0.33 0 0.66 0 1 C-1.093125 1.0825 -2.18625 1.165 -3.3125 1.25 C-6.9 1.65833333 -6.9 1.65833333 -8.6875 3.5 C-10.61527174 7.17194617 -10.56872338 10.65729702 -10.6875 14.75 C-10.72166016 15.54277344 -10.75582031 16.33554688 -10.79101562 17.15234375 C-10.87319104 19.10107504 -10.93828045 21.05051362 -11 23 C-11.66 23.33 -12.32 23.66 -13 24 C-13.14505175 20.56294295 -13.23398014 17.12666967 -13.3125 13.6875 C-13.3753418 12.22280273 -13.3753418 12.22280273 -13.43945312 10.72851562 C-13.48517505 8.06749982 -13.46809105 5.62055907 -13 3 C-9.01402892 -0.81988895 -5.20127434 -0.26447158 0 0 Z " fill="#E5904B" transform="translate(165,53)"/>
<path d="M0 0 C1.32 0 2.64 0 4 0 C4.22038826 6.08516473 3.98420252 11.16411024 2 17 C1.65864073 18.33130115 1.32074044 19.66358148 1 21 C0.67 21 0.34 21 0 21 C0 14.07 0 7.14 0 0 Z " fill="#FB8E2F" transform="translate(57,56)"/>
<path d="M0 0 C0.99 0 1.98 0 3 0 C3.94401042 1.7578125 4.88802083 3.515625 5.83203125 5.2734375 C7.04763493 7.30502365 7.04763493 7.30502365 10 9 C13.19806665 9.4603764 13.19806665 9.4603764 16.6875 9.625 C17.86699219 9.69976562 19.04648438 9.77453125 20.26171875 9.8515625 C21.61716797 9.92503906 21.61716797 9.92503906 23 10 C20.30898766 12.69101234 18.80924054 12.29887549 15.0625 12.3125 C13.47115234 12.33763672 13.47115234 12.33763672 11.84765625 12.36328125 C8.64714937 11.95498613 7.98706565 11.41588529 6 9 C5.13375 8.566875 4.2675 8.13375 3.375 7.6875 C1 6 1 6 0.1875 2.8125 C0.125625 1.884375 0.06375 0.95625 0 0 Z " fill="#EC8C44" transform="translate(170,68)"/>
<path d="M0 0 C1.32 0 2.64 0 4 0 C4 8.58 4 17.16 4 26 C3.34 26.33 2.68 26.66 2 27 C1.96241577 25.9330188 1.96241577 25.9330188 1.92407227 24.84448242 C1.80811561 21.62530483 1.68538755 18.40642015 1.5625 15.1875 C1.52318359 14.06794922 1.48386719 12.94839844 1.44335938 11.79492188 C1.40146484 10.72177734 1.35957031 9.64863281 1.31640625 8.54296875 C1.27974854 7.55321045 1.24309082 6.56345215 1.20532227 5.54370117 C1.09209669 2.8781649 1.09209669 2.8781649 0 0 Z " fill="#E4863E" transform="translate(131,49)"/>
<path d="M0 0 C0.33 0.99 0.66 1.98 1 3 C-2.66202916 6.29514683 -5.50204805 7.69084349 -10.3125 8.6875 C-11.446875 8.9246875 -12.58125 9.161875 -13.75 9.40625 C-17.49955905 10.0912656 -21.20723403 10.6281602 -25 11 C-22.68186264 8.27321663 -20.99984609 7.53830691 -17.5 6.9375 C-14.21827148 6.36319751 -12.87897329 5.91931552 -10 4 C-7.67284 3.62599214 -5.33882138 3.29235267 -3 3 C-2.01 2.67 -1.02 2.34 0 2 C0 1.34 0 0.68 0 0 Z " fill="#DC7112" transform="translate(129,122)"/>
<path d="M0 0 C-0.99 0.33 -1.98 0.66 -3 1 C-3.33 1.66 -3.66 2.32 -4 3 C-5.99117408 3.69258229 -7.9921136 4.35747635 -10 5 C-10.99 5.66 -11.98 6.32 -13 7 C-15.48046875 7.1953125 -15.48046875 7.1953125 -18.1875 7.125 C-19.08855469 7.10695313 -19.98960937 7.08890625 -20.91796875 7.0703125 C-21.60503906 7.04710938 -22.29210937 7.02390625 -23 7 C-19.53362755 4.68908503 -15.93072245 3.28429458 -12.0625 1.8125 C-11.34642578 1.52697266 -10.63035156 1.24144531 -9.89257812 0.94726562 C-6.13808732 -0.48285089 -3.83152613 -1.24181125 0 0 Z " fill="#FCECCF" transform="translate(172,114)"/>
<path d="M0 0 C-1 2 -1 2 -3.109375 2.74609375 C-4.41648438 3.08833984 -4.41648438 3.08833984 -5.75 3.4375 C-9.63106257 4.52595664 -12.55221906 5.91318522 -16 8 C-20.38805703 9.51587425 -23.48486414 10.23786011 -28 9 C-24.33762186 7.54773 -20.67146143 6.10552023 -17.00146484 4.67260742 C-15.13820096 3.94267149 -13.27806786 3.20476033 -11.41796875 2.46679688 C-10.25136719 2.01240234 -9.08476562 1.55800781 -7.8828125 1.08984375 C-6.80402832 0.66566162 -5.72524414 0.24147949 -4.61376953 -0.19555664 C-2 -1 -2 -1 0 0 Z " fill="#FBE4C6" transform="translate(200,103)"/>
<path d="M0 0 C3.12810749 2.32085394 4.38449399 4.36937846 5.0625 8.125 C5.49670359 13.8074035 3.11774423 18.36476964 0 23 C-0.66 23.33 -1.32 23.66 -2 24 C-2.33 23.01 -2.66 22.02 -3 21 C-2.34644531 20.4740625 -1.69289063 19.948125 -1.01953125 19.40625 C1.61385582 16.26859733 1.44690271 14.54135056 1.3125 10.5 C1.28800781 9.3759375 1.26351563 8.251875 1.23828125 7.09375 C1.04436648 4.57603687 0.72532169 2.40594511 0 0 Z " fill="#DE8C42" transform="translate(275,44)"/>
<path d="M0 0 C0.66 0 1.32 0 2 0 C2.04254356 1.99954746 2.04080783 4.00041636 2 6 C0.41596476 7.58403524 -1.2771638 7.21974935 -3.47265625 7.31640625 C-4.37177734 7.35830078 -5.27089844 7.40019531 -6.19726562 7.44335938 C-7.61555664 7.50233398 -7.61555664 7.50233398 -9.0625 7.5625 C-10.01189453 7.60568359 -10.96128906 7.64886719 -11.93945312 7.69335938 C-14.29281353 7.79979276 -16.64628354 7.90181008 -19 8 C-18 6 -18 6 -15 5 C-12.60509014 4.93029948 -10.20832309 4.91551997 -7.8125 4.9375 C-6.54019531 4.94652344 -5.26789063 4.95554687 -3.95703125 4.96484375 C-2.49330078 4.98224609 -2.49330078 4.98224609 -1 5 C-0.67 3.35 -0.34 1.7 0 0 Z " fill="#EF9F5B" transform="translate(94,46)"/>
<path d="M0 0 C-0.33 1.32 -0.66 2.64 -1 4 C-4.96 4.66 -8.92 5.32 -13 6 C-13 4.68 -13 3.36 -13 2 C-4.738041 -1.62870159 -4.738041 -1.62870159 0 0 Z " fill="#FDFBF3" transform="translate(165,46)"/>
<path d="M0 0 C0.66 0 1.32 0 2 0 C2 0.99 2 1.98 2 3 C3.65 3 5.3 3 7 3 C1.68754423 9.17441051 -8.35284143 10.49564094 -16 12 C-13.94876752 9.94876752 -12.72994937 9.35852882 -10.0625 8.375 C-9.37285156 8.11460938 -8.68320313 7.85421875 -7.97265625 7.5859375 C-6 7 -6 7 -3 7 C-3 6.34 -3 5.68 -3 5 C-2.34 4.34 -1.68 3.68 -1 3 C-0.67 2.01 -0.34 1.02 0 0 Z " fill="#E5700C" transform="translate(156,109)"/>
<path d="M0 0 C0.66 0.33 1.32 0.66 2 1 C2 4 2 4 0.75 5.625 C-1.18486796 7.1452534 -2.62713627 7.48032323 -5 8 C-5.02721176 9.89575251 -5.04649136 11.79161979 -5.0625 13.6875 C-5.07410156 14.74324219 -5.08570312 15.79898438 -5.09765625 16.88671875 C-5.00865425 19.72410262 -4.64939838 22.2438919 -4 25 C-6 24 -6 24 -7 21 C-8.30106451 10.19229369 -8.30106451 10.19229369 -5.4375 5.3671875 C-3.71497819 3.42935047 -1.9797923 1.67171238 0 0 Z " fill="#F9EAD2" transform="translate(72,46)"/>
<path d="M0 0 C2.6877438 0.14209669 5.37513302 0.2885723 8.0625 0.4375 C8.81466797 0.47681641 9.56683594 0.51613281 10.34179688 0.55664062 C14.94698741 0.81580719 19.44366724 1.2799421 24 2 C24 2.66 24 3.32 24 4 C26.31 4.33 28.62 4.66 31 5 C27.62463797 6.35014481 25.43302451 5.61859828 22.0625 4.55078125 C17.24884718 3.26531714 12.06909173 2.54020184 7.1875 3.625 C5 4 5 4 2.1875 2.625 C1.465625 2.08875 0.74375 1.5525 0 1 C0 0.67 0 0.34 0 0 Z " fill="#F38C33" transform="translate(215,26)"/>
<path d="M0 0 C-0.87140625 0.23074219 -1.7428125 0.46148438 -2.640625 0.69921875 C-9.93207389 2.6956869 -16.75339708 4.97610673 -23.671875 8.046875 C-26 9 -26 9 -28 9 C-27.67 8.01 -27.34 7.02 -27 6 C-26.01 6 -25.02 6 -24 6 C-24 5.34 -24 4.68 -24 4 C-23.37351562 3.87882812 -22.74703125 3.75765625 -22.1015625 3.6328125 C-21.28429688 3.46523438 -20.46703125 3.29765625 -19.625 3.125 C-18.81289063 2.96257813 -18.00078125 2.80015625 -17.1640625 2.6328125 C-14.81326077 2.13341068 -14.81326077 2.13341068 -13 0 C-10.72265625 -0.44921875 -10.72265625 -0.44921875 -8.0625 -0.6875 C-7.18722656 -0.77386719 -6.31195313 -0.86023438 -5.41015625 -0.94921875 C-3 -1 -3 -1 0 0 Z " fill="#FCEACD" transform="translate(55,18)"/>
<path d="M0 0 C0.66 0.33 1.32 0.66 2 1 C1.67 1.94875 1.34 2.8975 1 3.875 C-0.10159191 6.77062452 -0.10159191 6.77062452 0 9 C-0.639375 9.12375 -1.27875 9.2475 -1.9375 9.375 C-2.618125 9.58125 -3.29875 9.7875 -4 10 C-4.33 10.66 -4.66 11.32 -5 12 C-7.06640625 12.8515625 -7.06640625 12.8515625 -9.5625 13.625 C-10.38878906 13.88539062 -11.21507812 14.14578125 -12.06640625 14.4140625 C-12.70449219 14.60742188 -13.34257812 14.80078125 -14 15 C-13.67 14.01 -13.34 13.02 -13 12 C-12.071875 11.54625 -11.14375 11.0925 -10.1875 10.625 C-6.72746492 8.86106055 -5.30845148 7.05045374 -3 4 C-2.34 4 -1.68 4 -1 4 C-0.67 2.68 -0.34 1.36 0 0 Z " fill="#D66706" transform="translate(273,59)"/>
<path d="M0 0 C3.0625 0.5 3.0625 0.5 5 1 C4.67 1.66 4.34 2.32 4 3 C3.01 3 2.02 3 1 3 C1 5.31 1 7.62 1 10 C-0.20628008 7.66785852 -1.1654738 5.50357861 -2 3 C-5.63 3.33 -9.26 3.66 -13 4 C-9.41448935 -0.98853656 -5.62295888 -0.53027904 0 0 Z " fill="#FDF3E0" transform="translate(194,45)"/>
<path d="M0 0 C-0.875 4.875 -0.875 4.875 -2 6 C-3.51928038 6.07179964 -5.04167482 6.08392007 -6.5625 6.0625 C-7.38878906 6.05347656 -8.21507812 6.04445313 -9.06640625 6.03515625 C-9.70449219 6.02355469 -10.34257812 6.01195312 -11 6 C-11 5.67 -11 5.34 -11 5 C-7.535 4.505 -7.535 4.505 -4 4 C-4 3.01 -4 2.02 -4 1 C-4.825 1.144375 -5.65 1.28875 -6.5 1.4375 C-10.32686278 2.05253152 -14.15216707 2.53560637 -18 3 C-13.49995477 -2.17505201 -6.23178912 -2.07726304 0 0 Z " fill="#F8DFC0" transform="translate(168,45)"/>
<path d="M0 0 C8.71414306 -0.62867565 15.80919903 1.08308519 24 4 C24 4.66 24 5.32 24 6 C18.3444819 5.39496146 12.99786009 4.37814297 7.5 2.9375 C6.77296875 2.75123047 6.0459375 2.56496094 5.296875 2.37304688 C3.53012276 1.91973545 1.76489225 1.4604998 0 1 C0 0.67 0 0.34 0 0 Z " fill="#FDE4C1" transform="translate(229,25)"/>
<path d="M0 0 C0.99 0 1.98 0 3 0 C3.45375 0.474375 3.9075 0.94875 4.375 1.4375 C5.94194692 3.23706571 5.94194692 3.23706571 8.5625 3.4375 C11 4 11 4 12.3125 5.75 C13.08405427 8.27508669 13.14589484 10.37389293 13 13 C12.34 13 11.68 13 11 13 C11 11.35 11 9.7 11 8 C9.8553125 7.814375 9.8553125 7.814375 8.6875 7.625 C4.94541905 6.75474862 2.49067636 4.84648727 0 2 C0 1.34 0 0.68 0 0 Z " fill="#ED7107" transform="translate(264,40)"/>
<path d="M0 0 C-13.59232523 6.22226444 -13.59232523 6.22226444 -17.375 5.625 C-17.91125 5.41875 -18.4475 5.2125 -19 5 C-18.01 4.67 -17.02 4.34 -16 4 C-16 3.34 -16 2.68 -16 2 C-13.89829344 1.46932659 -11.79352402 0.95077143 -9.6875 0.4375 C-8.51574219 0.14746094 -7.34398437 -0.14257812 -6.13671875 -0.44140625 C-3 -1 -3 -1 0 0 Z " fill="#DA771D" transform="translate(146,121)"/>
<path d="M0 0 C2.91366558 1.53629639 3.63789405 2.30059107 5.5625 5.1875 C5.5625 6.5075 5.5625 7.8275 5.5625 9.1875 C4.9025 9.1875 4.2425 9.1875 3.5625 9.1875 C3.2325 7.2075 2.9025 5.2275 2.5625 3.1875 C1.61375 2.878125 0.665 2.56875 -0.3125 2.25 C-3.4375 1.1875 -3.4375 1.1875 -5.4375 0.1875 C-10.22139142 -0.00010359 -14.71772492 0.41692448 -19.4375 1.1875 C-13.32837545 -2.8852497 -6.6117358 -3.16108536 0 0 Z " fill="#EED1B0" transform="translate(126.4375,44.8125)"/>
<path d="M0 0 C1.65652924 2.48479386 3.16072474 4.9636255 4.625 7.5625 C5.07101563 8.34753906 5.51703125 9.13257812 5.9765625 9.94140625 C7 12 7 12 7 14 C7.99 14.33 8.98 14.66 10 15 C9.01 16.32 8.02 17.64 7 19 C6.32591692 17.73308493 5.66099503 16.46129251 5 15.1875 C4.443125 14.12595703 4.443125 14.12595703 3.875 13.04296875 C3 11 3 11 3 8 C2.34 8 1.68 8 1 8 C0.67 5.36 0.34 2.72 0 0 Z " fill="#F69A46" transform="translate(8,72)"/>
<path d="M0 0 C0.928125 0.2784375 0.928125 0.2784375 1.875 0.5625 C4.04160178 1.23686176 4.04160178 1.23686176 6 0 C11.90005231 0.0480656 16.73910165 1.42551783 22 4 C19.45428855 5.27285572 18.69046064 4.71302718 16 4 C14.55901569 3.92233916 13.11491371 3.89203633 11.671875 3.90234375 C10.47304687 3.90717773 10.47304687 3.90717773 9.25 3.91210938 C8.425 3.92048828 7.6 3.92886719 6.75 3.9375 C5.90953125 3.94201172 5.0690625 3.94652344 4.203125 3.95117188 C2.13538599 3.96292039 0.06768376 3.98085478 -2 4 C-1.34 2.68 -0.68 1.36 0 0 Z " fill="#F39239" transform="translate(73,39)"/>
<path d="M0 0 C0.66 0.33 1.32 0.66 2 1 C3.70363822 1.22622081 5.41328701 1.40888473 7.125 1.5625 C8.03507812 1.64628906 8.94515625 1.73007813 9.8828125 1.81640625 C10.58148438 1.87699219 11.28015625 1.93757813 12 2 C11.67 2.66 11.34 3.32 11 4 C11.66 4.66 12.32 5.32 13 6 C8.32798795 7.20568053 3.78503708 7.09382426 -1 7 C-1 6.67 -1 6.34 -1 6 C0.98 5.67 2.96 5.34 5 5 C3.68 4.67 2.36 4.34 1 4 C0.67 2.68 0.34 1.36 0 0 Z " fill="#F7E6D1" transform="translate(111,70)"/>
<path d="M0 0 C0.103125 0.639375 0.20625 1.27875 0.3125 1.9375 C0.6528125 2.9584375 0.6528125 2.9584375 1 4 C1.99 4.33 2.98 4.66 4 5 C0.65060119 7.02558881 -1.86962551 7.21738987 -5.75 7.125 C-6.73484375 7.10695313 -7.7196875 7.08890625 -8.734375 7.0703125 C-9.85585937 7.03550781 -9.85585937 7.03550781 -11 7 C-11.33 6.34 -11.66 5.68 -12 5 C-11.21753906 4.80664062 -10.43507812 4.61328125 -9.62890625 4.4140625 C-8.61699219 4.15367188 -7.60507813 3.89328125 -6.5625 3.625 C-5.55316406 3.36976562 -4.54382813 3.11453125 -3.50390625 2.8515625 C-0.84429676 2.27426046 -0.84429676 2.27426046 0 0 Z " fill="#FBE9CE" transform="translate(193,55)"/>
<path d="M0 0 C0.33 0.66 0.66 1.32 1 2 C4.465 1.505 4.465 1.505 8 1 C11 5.75 11 5.75 11 8 C10.34 8 9.68 8 9 8 C8.67 8.99 8.34 9.98 8 11 C7.34 8.69 6.68 6.38 6 4 C1.05 3.67 -3.9 3.34 -9 3 C-9 2.67 -9 2.34 -9 2 C-6.94921875 1.77213542 -4.8984375 1.54427083 -2.84765625 1.31640625 C-0.98859771 1.18113386 -0.98859771 1.18113386 0 0 Z " fill="#F3892D" transform="translate(163,39)"/>
<path d="M0 0 C-1.65 0.33 -3.3 0.66 -5 1 C-5 1.66 -5 2.32 -5 3 C-16.52164009 6.44419134 -16.52164009 6.44419134 -22 6 C-21 4.5 -21 4.5 -19 3 C-16.28153765 2.72654521 -13.74322801 2.86508715 -11 3 C-10.67 2.01 -10.34 1.02 -10 0 C-2.25 -1.125 -2.25 -1.125 0 0 Z " fill="#E5720F" transform="translate(193,103)"/>
<path d="M0 0 C3.96 0 7.92 0 12 0 C12 0.99 12 1.98 12 3 C8.47320901 5.35119399 6.97120515 5.21443452 2.8125 5.125 C1.72582031 5.10695313 0.63914062 5.08890625 -0.48046875 5.0703125 C-1.72763672 5.03550781 -1.72763672 5.03550781 -3 5 C-3 4.67 -3 4.34 -3 4 C0.3 4 3.6 4 7 4 C6.67 3.34 6.34 2.68 6 2 C2.97065509 1.34227572 2.97065509 1.34227572 0 1 C0 0.67 0 0.34 0 0 Z " fill="#FFF5E0" transform="translate(79,71)"/>
<path d="M0 0 C0.66 0.33 1.32 0.66 2 1 C-3.10771586 6.24576223 -7.83979714 7.14638151 -15 8 C-13.41169958 4.82339917 -10.19515574 4.13200316 -7.0625 2.8125 C-6.41603516 2.52697266 -5.76957031 2.24144531 -5.10351562 1.94726562 C-3.42886164 1.23253791 -1.71580039 0.60936911 0 0 Z " fill="#FBDFB9" transform="translate(258,78)"/>
<path d="M0 0 C1.32 0.33 2.64 0.66 4 1 C-1.75 6 -1.75 6 -4 6 C-4.33 6.99 -4.66 7.98 -5 9 C-8.5625 10.1875 -8.5625 10.1875 -12 11 C-11.67 10.01 -11.34 9.02 -11 8 C-9.824375 7.87625 -9.824375 7.87625 -8.625 7.75 C-5.85250896 7.27193661 -5.85250896 7.27193661 -4.6875 4.9375 C-4.460625 4.298125 -4.23375 3.65875 -4 3 C-3.01 3 -2.02 3 -1 3 C-0.67 2.01 -0.34 1.02 0 0 Z " fill="#D5833A" transform="translate(269,68)"/>
<path d="M0 0 C1.08209949 3.24629847 0.78140875 3.87436498 0 7 C0.75150023 10.27773504 0.75150023 10.27773504 4 12 C4 12.66 4 13.32 4 14 C1.40939422 13.64267506 0.15432506 13.1383604 -1.8125 11.375 C-3.52240401 7.95519197 -2.87736874 5.64445478 -2 2 C-1.34 1.34 -0.68 0.68 0 0 Z " fill="#FBE7CE" transform="translate(105,62)"/>
<path d="M0 0 C0 1.32 0 2.64 0 4 C-3.3 4 -6.6 4 -10 4 C-10.33 3.01 -10.66 2.02 -11 1 C-7.26562152 0.12132271 -3.83225427 -0.08912219 0 0 Z " fill="#F6E3CD" transform="translate(124,57)"/>
<path d="M0 0 C1.65 0.33 3.3 0.66 5 1 C5 1.66 5 2.32 5 3 C5.66 3.33 6.32 3.66 7 4 C4.56612247 5.21693876 2.58161154 5.31959896 -0.125 5.5625 C-1.03507812 5.64628906 -1.94515625 5.73007812 -2.8828125 5.81640625 C-3.93082031 5.90728516 -3.93082031 5.90728516 -5 6 C-4.67 4.68 -4.34 3.36 -4 2 C-3.01 2 -2.02 2 -1 2 C-0.67 1.34 -0.34 0.68 0 0 Z " fill="#F39E4C" transform="translate(49,38)"/>
<path d="M0 0 C0.66 0.33 1.32 0.66 2 1 C1.01 2.485 1.01 2.485 0 4 C-3.2578125 4.51171875 -3.2578125 4.51171875 -7.125 4.6875 C-9.04699219 4.78611328 -9.04699219 4.78611328 -11.0078125 4.88671875 C-11.99523437 4.92410156 -12.98265625 4.96148437 -14 5 C-14.33 5.99 -14.66 6.98 -15 8 C-15.66 8 -16.32 8 -17 8 C-17 6.68 -17 5.36 -17 4 C-16.02417969 3.87882812 -15.04835937 3.75765625 -14.04296875 3.6328125 C-12.77066406 3.46523438 -11.49835938 3.29765625 -10.1875 3.125 C-8.92292969 2.96257813 -7.65835938 2.80015625 -6.35546875 2.6328125 C-2.88300683 2.20431547 -2.88300683 2.20431547 0 0 Z " fill="#E48C47" transform="translate(198,60)"/>
<path d="M0 0 C1.32 0.33 2.64 0.66 4 1 C4.625 3.3125 4.625 3.3125 5 6 C4.01 7.485 4.01 7.485 3 9 C-0.625 9.1875 -0.625 9.1875 -4 9 C-1 7 -1 7 1 7 C0.67 4.69 0.34 2.38 0 0 Z " fill="#EB893A" transform="translate(92,69)"/>
<path d="M0 0 C7.09629025 -0.31461385 12.68284595 -0.44572039 19 3 C14.97985339 4.56454159 11.30074319 3.46223974 7.25 2.5625 C6.55261719 2.41490234 5.85523437 2.26730469 5.13671875 2.11523438 C3.4227979 1.75131967 1.71115419 1.37670932 0 1 C0 0.67 0 0.34 0 0 Z " fill="#B7773D" transform="translate(77,42)"/>
<path d="M0 0 C6.93075139 0.1474628 10.99527873 3.36978168 16 8 C16 8.33 16 8.66 16 9 C14.35 9 12.7 9 11 9 C10.76539063 8.38640625 10.53078125 7.7728125 10.2890625 7.140625 C8.6609418 4.4369579 7.27366164 3.90946466 4.375 2.75 C3.55773437 2.41484375 2.74046875 2.0796875 1.8984375 1.734375 C1.27195312 1.49203125 0.64546875 1.2496875 0 1 C0 0.67 0 0.34 0 0 Z " fill="#E4883B" transform="translate(259,35)"/>
<path d="M0 0 C2.97 0.99 5.94 1.98 9 3 C9 3.99 9 4.98 9 6 C11.31 6 13.62 6 16 6 C16 6.66 16 7.32 16 8 C13.36 7.67 10.72 7.34 8 7 C7.67 6.01 7.34 5.02 7 4 C4.03 3.505 4.03 3.505 1 3 C0.67 2.01 0.34 1.02 0 0 Z " fill="#F79136" transform="translate(49,127)"/>
<path d="M0 0 C7.33333333 0.36666667 7.33333333 0.36666667 10.5 3.375 C12 6 12 6 12 9 C11.01 8.67 10.02 8.34 9 8 C9 7.01 9 6.02 9 5 C7.68 5 6.36 5 5 5 C4.67 4.34 4.34 3.68 4 3 C1.98330173 1.86649466 1.98330173 1.86649466 0 1 C0 0.67 0 0.34 0 0 Z " fill="#FB8E2D" transform="translate(37,118)"/>
<path d="M0 0 C0.66 0.33 1.32 0.66 2 1 C-1.47975761 6.58870162 -3.74531953 8.91510651 -10 11 C-8.55218207 7.55571735 -6.72305391 5.63869038 -3.875 3.25 C-3.15054687 2.63640625 -2.42609375 2.0228125 -1.6796875 1.390625 C-0.84824219 0.70226562 -0.84824219 0.70226562 0 0 Z " fill="#E8B67D" transform="translate(22,30)"/>
<path d="M0 0 C0.33 0 0.66 0 1 0 C1.06058594 0.63808594 1.12117187 1.27617188 1.18359375 1.93359375 C1.26738281 2.75988281 1.35117188 3.58617187 1.4375 4.4375 C1.51871094 5.26121094 1.59992187 6.08492188 1.68359375 6.93359375 C1.78930815 8.98662025 1.78930815 8.98662025 3 10 C3.23427778 12.01594582 3.41336124 14.038474 3.5625 16.0625 C3.64628906 17.16722656 3.73007813 18.27195312 3.81640625 19.41015625 C3.87699219 20.26480469 3.93757812 21.11945313 4 22 C0.33224605 18.33224605 0.08179759 12.98870385 -0.125 7.9609375 C-0.125 5.30417401 -0.08933217 2.65515068 0 0 Z " fill="#DD9F60" transform="translate(5,58)"/>
<path d="M0 0 C4.875 0.875 4.875 0.875 6 2 C8.32817964 2.36760731 10.6618385 2.70241581 13 3 C13 3.66 13 4.32 13 5 C5.73846154 5.61538462 5.73846154 5.61538462 2 2.5 C1.34 1.675 0.68 0.85 0 0 Z " fill="#FCD4B0" transform="translate(175,73)"/>
<path d="M0 0 C6.875 0.875 6.875 0.875 8 2 C9.84891946 2.23363881 11.70488031 2.41303635 13.5625 2.5625 C15.08037109 2.68818359 15.08037109 2.68818359 16.62890625 2.81640625 C17.80259766 2.90728516 17.80259766 2.90728516 19 3 C19 3.33 19 3.66 19 4 C16.77144426 4.0814222 14.54202345 4.13938079 12.3125 4.1875 C10.45044922 4.23970703 10.45044922 4.23970703 8.55078125 4.29296875 C4.80907731 3.9842473 2.96217879 3.24853724 0 1 C0 0.67 0 0.34 0 0 Z " fill="#FCCB9E" transform="translate(69,74)"/>
<path d="M0 0 C0.33 0 0.66 0 1 0 C1.12117188 0.89203125 1.24234375 1.7840625 1.3671875 2.703125 C1.53476563 3.87359375 1.70234375 5.0440625 1.875 6.25 C2.03742188 7.41015625 2.19984375 8.5703125 2.3671875 9.765625 C2.91820431 12.58193313 3.55796482 14.55217557 5 17 C4.34 17 3.68 17 3 17 C3 16.34 3 15.68 3 15 C2.34 15 1.68 15 1 15 C1 14.34 1 13.68 1 13 C0.01 13.33 -0.98 13.66 -2 14 C-1.84660156 13.44828125 -1.69320312 12.8965625 -1.53515625 12.328125 C-0.95329729 9.79682617 -0.67564555 7.33558028 -0.4375 4.75 C-0.35371094 3.85796875 -0.26992188 2.9659375 -0.18359375 2.046875 C-0.12300781 1.37140625 -0.06242187 0.6959375 0 0 Z " fill="#E7A469" transform="translate(64,57)"/>
<path d="M0 0 C0 0.99 0 1.98 0 3 C-2.75 5.75 -2.75 5.75 -6 8 C-8.375 7.8125 -8.375 7.8125 -10 7 C-7.2180632 3.72713318 -3.72045933 2.03572303 0 0 Z " fill="#FCE8CB" transform="translate(274,69)"/>
<path d="M0 0 C-3.92826365 2.77675038 -6.53124892 3.34512366 -11.3125 3.1875 C-12.91544922 3.14689453 -12.91544922 3.14689453 -14.55078125 3.10546875 C-15.35902344 3.07066406 -16.16726562 3.03585938 -17 3 C-17 2.67 -17 2.34 -17 2 C-14.91952703 1.4678559 -12.83547707 0.94968214 -10.75 0.4375 C-9.58984375 0.14746094 -8.4296875 -0.14257812 -7.234375 -0.44140625 C-4.27909017 -0.95179964 -2.75565899 -1.02996165 0 0 Z " fill="#FADCB5" transform="translate(106,136)"/>
<path d="M0 0 C-0.78375 0.495 -1.5675 0.99 -2.375 1.5 C-5.90031449 4.85744237 -6.13336821 7.27291749 -7 12 C-9 9 -9 9 -8.7578125 6.73828125 C-8.44457031 5.53751953 -8.44457031 5.53751953 -8.125 4.3125 C-7.92132813 3.50425781 -7.71765625 2.69601563 -7.5078125 1.86328125 C-7.34023437 1.24839844 -7.17265625 0.63351563 -7 0 C-3.98968256 -0.93423645 -3.13349732 -1.04449911 0 0 Z " fill="#B37034" transform="translate(109,60)"/>
<path d="M0 0 C1.04449911 3.13349732 0.93423645 3.98968256 0 7 C-0.66 7 -1.32 7 -2 7 C-2 10.63 -2 14.26 -2 18 C-2.33 18 -2.66 18 -3 18 C-3.91397824 12.31302429 -3.91397824 7.68697571 -3 2 C-2.34 2 -1.68 2 -1 2 C-0.67 1.34 -0.34 0.68 0 0 Z " fill="#FEFAED" transform="translate(6,44)"/>
<path d="M0 0 C-0.804375 0.28875 -1.60875 0.5775 -2.4375 0.875 C-5.1326468 1.73262568 -5.1326468 1.73262568 -6 4 C-8.97 4 -11.94 4 -15 4 C-12.19836511 2.13224341 -10.11958197 1.27321694 -6.9375 0.3125 C-6.05964844 0.04050781 -5.18179688 -0.23148438 -4.27734375 -0.51171875 C-2 -1 -2 -1 0 0 Z " fill="#FADFBD" transform="translate(122,131)"/>
<path d="M0 0 C-1 2 -1 2 -3.14453125 2.88671875 C-4.02496094 3.15097656 -4.90539062 3.41523437 -5.8125 3.6875 C-6.68519531 3.95949219 -7.55789062 4.23148437 -8.45703125 4.51171875 C-11.06873834 5.01319861 -12.51716384 4.86233704 -15 4 C-12.87875034 3.13656176 -10.75286928 2.28449352 -8.625 1.4375 C-6.84996094 0.72400391 -6.84996094 0.72400391 -5.0390625 -0.00390625 C-2 -1 -2 -1 0 0 Z " fill="#FAD9AF" transform="translate(200,103)"/>
<path d="M0 0 C0.99 0.495 0.99 0.495 2 1 C4.71262116 1.2322646 7.40773126 1.41936235 10.125 1.5625 C11.25615234 1.62727539 11.25615234 1.62727539 12.41015625 1.69335938 C14.27321888 1.7994832 16.13658524 1.90025001 18 2 C18 2.99 18 3.98 18 5 C17.01 5 16.02 5 15 5 C15 4.34 15 3.68 15 3 C10.38 3 5.76 3 1 3 C0.67 2.01 0.34 1.02 0 0 Z " fill="#EED6B5" transform="translate(182,69)"/>
<path d="M0 0 C1.32 0 2.64 0 4 0 C4 2.97 4 5.94 4 9 C1.69 9 -0.62 9 -3 9 C-2.38125 8.773125 -1.7625 8.54625 -1.125 8.3125 C1.61410209 6.62070165 2.05024472 5.00755839 3 2 C1.35 2 -0.3 2 -2 2 C-1.34 1.34 -0.68 0.68 0 0 Z " fill="#DF8A42" transform="translate(118,62)"/>
<path d="M0 0 C0 0.66 0 1.32 0 2 C-5.61 1.67 -11.22 1.34 -17 1 C-17 0.67 -17 0.34 -17 0 C-5.47835991 -1.33257403 -5.47835991 -1.33257403 0 0 Z " fill="#F68D2F" transform="translate(200,40)"/>
<path d="M0 0 C8.57142857 -0.28571429 8.57142857 -0.28571429 12 2 C12 2.33 12 2.66 12 3 C3.42857143 3.28571429 3.42857143 3.28571429 0 1 C0 0.67 0 0.34 0 0 Z " fill="#FC9335" transform="translate(201,23)"/>
<path d="M0 0 C2.43681822 1.42147729 4.77480949 2.82406991 7 4.5625 C9.2290218 6.16460942 11.42650122 7.070681 14 8 C11.3333581 9.33332095 9.83319697 8.67102033 7 8 C7 7.34 7 6.68 7 6 C6.401875 5.896875 5.80375 5.79375 5.1875 5.6875 C2.68741714 4.90175967 1.62464918 4.03081147 0 2 C0 1.34 0 0.68 0 0 Z " fill="#FCE2BE" transform="translate(41,125)"/>
<path d="M0 0 C-0.99 0.33 -1.98 0.66 -3 1 C-3.33 1.66 -3.66 2.32 -4 3 C-6.97 3 -9.94 3 -13 3 C-8.8341563 0.22277086 -4.9360889 -1.89849573 0 0 Z " fill="#FADBB4" transform="translate(172,114)"/>
<path d="M0 0 C0.268125 0.639375 0.53625 1.27875 0.8125 1.9375 C1.88667752 4.33131686 1.88667752 4.33131686 5 5 C6.1875 7.5625 6.1875 7.5625 7 10 C6.01 9.34 5.02 8.68 4 8 C3.01 8.495 3.01 8.495 2 9 C0.14223235 5.86501708 -0.20140476 3.62528568 0 0 Z " fill="#FBE3C0" transform="translate(17,98)"/>
<path d="M0 0 C-4.625 4 -4.625 4 -8 4 C-8 3.01 -8 2.02 -8 1 C-4.93251126 -0.86240388 -3.40254489 -1.2151946 0 0 Z " fill="#E1710D" transform="translate(231,87)"/>
<path d="M0 0 C0.99 0 1.98 0 3 0 C3 0.66 3 1.32 3 2 C3.66 2 4.32 2 5 2 C5.33 4.31 5.66 6.62 6 9 C2.91910327 6.22719294 1.31224548 3.93673644 0 0 Z " fill="#FEECD0" transform="translate(273,39)"/>
<path d="M0 0 C0 0.33 0 0.66 0 1 C-4.95 1.33 -9.9 1.66 -15 2 C-15 1.67 -15 1.34 -15 1 C-9.675665 -1.32086397 -5.56157448 -0.91457003 0 0 Z " fill="#F38D30" transform="translate(123,40)"/>
<path d="M0 0 C-2 3 -2 3 -3.9453125 3.51171875 C-4.66460937 3.56972656 -5.38390625 3.62773437 -6.125 3.6875 C-8.043125 3.8421875 -8.043125 3.8421875 -10 4 C-7.16124653 -0.25813021 -4.8137938 -0.13010254 0 0 Z " fill="#FEF6E4" transform="translate(111,135)"/>
<path d="M0 0 C2.97 0 5.94 0 9 0 C6.48300155 2.51699845 4.42445854 3.10964078 1 4 C-1.375 3.625 -1.375 3.625 -3 3 C-2.01 2.67 -1.02 2.34 0 2 C0 1.34 0 0.68 0 0 Z " fill="#CD7C2A" transform="translate(130,123)"/>
<path d="M0 0 C0.12375 0.969375 0.2475 1.93875 0.375 2.9375 C0.684375 4.4534375 0.684375 4.4534375 1 6 C1.66 6.33 2.32 6.66 3 7 C2.67 7.66 2.34 8.32 2 9 C0.0625 8.375 0.0625 8.375 -2 7 C-2.75 3.875 -2.75 3.875 -3 1 C-1 0 -1 0 0 0 Z " fill="#F89335" transform="translate(31,105)"/>
<path d="M0 0 C2.97 0 5.94 0 9 0 C9 0.66 9 1.32 9 2 C10.32 2.33 11.64 2.66 13 3 C8.17639811 3.19294408 4.50353262 2.75747614 0 1 C0 0.67 0 0.34 0 0 Z " fill="#FDE9CF" transform="translate(253,31)"/>
<path d="M0 0 C-6.27692308 4.06153846 -6.27692308 4.06153846 -9.9375 3.75 C-10.618125 3.5025 -11.29875 3.255 -12 3 C-10.66666667 2.33333333 -9.33333333 1.66666667 -8 1 C-7.34 0.608125 -6.68 0.21625 -6 -0.1875 C-3.57136965 -1.17413108 -2.42552909 -0.86626039 0 0 Z " fill="#EAAF79" transform="translate(47,21)"/>
<path d="M0 0 C0.33 0.99 0.66 1.98 1 3 C-1.25 5.0625 -1.25 5.0625 -4 7 C-6.3125 6.75 -6.3125 6.75 -8 6 C-2.25 2 -2.25 2 0 2 C0 1.34 0 0.68 0 0 Z " fill="#D4751C" transform="translate(129,122)"/>
<path d="M0 0 C2.0625 0.4375 2.0625 0.4375 4 1 C3.67 2.65 3.34 4.3 3 6 C1.68 6 0.36 6 -1 6 C-1.042721 4.33388095 -1.04063832 2.66617115 -1 1 C-0.67 0.67 -0.34 0.34 0 0 Z " fill="#DA9356" transform="translate(112,64)"/>
<path d="M0 0 C2.28304899 0.0179485 4.52425196 0.11763285 6.796875 0.33203125 C6.796875 0.66203125 6.796875 0.99203125 6.796875 1.33203125 C5.70375 1.41453125 4.610625 1.49703125 3.484375 1.58203125 C-0.23589164 1.96892334 -0.23589164 1.96892334 -2.140625 4.39453125 C-2.49125 5.03390625 -2.841875 5.67328125 -3.203125 6.33203125 C-3.863125 6.00203125 -4.523125 5.67203125 -5.203125 5.33203125 C-4.06475685 2.29638286 -3.36675282 0.50740069 0 0 Z " fill="#F5CAA7" transform="translate(185.203125,47.66796875)"/>
<path d="M0 0 C0.99 0 1.98 0 3 0 C3.33 2.64 3.66 5.28 4 8 C2 6.25 2 6.25 0 4 C0 2.68 0 1.36 0 0 Z " fill="#DD863E" transform="translate(170,68)"/>
<path d="M0 0 C0.66 0 1.32 0 2 0 C3.85776765 3.13498292 4.20140476 5.37471432 4 9 C3.34 9 2.68 9 2 9 C1.34 6.03 0.68 3.06 0 0 Z " fill="#F17916" transform="translate(273,44)"/>
<path d="M0 0 C0.33 0.66 0.66 1.32 1 2 C-0.98 4.97 -0.98 4.97 -3 8 C-3.66 7.01 -4.32 6.02 -5 5 C-3.35 3.35 -1.7 1.7 0 0 Z " fill="#D17B29" transform="translate(277,60)"/>
<path d="M0 0 C1 2 1 2 0.44140625 4.1640625 C0.15136719 4.97617187 -0.13867188 5.78828125 -0.4375 6.625 C-0.72496094 7.44226562 -1.01242188 8.25953125 -1.30859375 9.1015625 C-1.53675781 9.72804688 -1.76492188 10.35453125 -2 11 C-3.1171875 9.234375 -3.1171875 9.234375 -4 7 C-3.06434658 4.35435928 -1.54985485 2.37036624 0 0 Z " fill="#E7B379" transform="translate(11,41)"/>
<path d="M0 0 C-3.00617269 3.00617269 -5.82381598 2.59585316 -10 3 C-7.29536552 -0.8183075 -4.37912428 -0.24787496 0 0 Z " fill="#F9E7CE" transform="translate(160,45)"/>
<path d="M0 0 C7.75 0.75 7.75 0.75 10 3 C6.65155086 4.05236973 5.40920111 4.20005388 2.1875 2.625 C1.465625 2.08875 0.74375 1.5525 0 1 C0 0.67 0 0.34 0 0 Z " fill="#FC8B2B" transform="translate(215,26)"/>
<path d="M0 0 C2.4375 0.6875 2.4375 0.6875 5 2 C5.8125 4.625 5.8125 4.625 6 7 C1.125 3.375 1.125 3.375 0 0 Z " fill="#E59E58" transform="translate(29,112)"/>
<path d="M0 0 C0.66 0 1.32 0 2 0 C1 3 1 3 -1 4 C-2.54023996 4.06950541 -4.08334988 4.08452357 -5.625 4.0625 C-6.85089844 4.04896484 -6.85089844 4.04896484 -8.1015625 4.03515625 C-9.04128906 4.01775391 -9.04128906 4.01775391 -10 4 C-10 3.67 -10 3.34 -10 3 C-8.72125 2.87625 -7.4425 2.7525 -6.125 2.625 C-2.65209064 2.30957601 -2.65209064 2.30957601 0 0 Z " fill="#9F6632" transform="translate(191,55)"/>
<path d="M0 0 C3.63 0.33 7.26 0.66 11 1 C7.3558226 3.4294516 5.28758728 3.16179575 1 3 C0.67 2.01 0.34 1.02 0 0 Z " fill="#FB8E2C" transform="translate(159,19)"/>
</svg>
