<?xml version="1.0" standalone="no"?>
<!DOCTYPE svg PUBLIC "-//W3C//DTD SVG 20010904//EN"
 "http://www.w3.org/TR/2001/REC-SVG-20010904/DTD/svg10.dtd">
<svg version="1.0" xmlns="http://www.w3.org/2000/svg"
 width="300.000000pt" height="150.000000pt" viewBox="0 0 300.000000 150.000000"
 preserveAspectRatio="xMidYMid meet">

<g transform="translate(0.000000,150.000000) scale(0.100000,-0.100000)"
fill="#000000" stroke="none">
<path d="M1320 1070 c0 -5 5 -10 10 -10 6 0 10 5 10 10 0 6 -4 10 -10 10 -5 0
-10 -4 -10 -10z"/>
<path d="M1470 1070 c0 -5 9 -10 20 -10 11 0 20 5 20 10 0 6 -9 10 -20 10 -11
0 -20 -4 -20 -10z"/>
<path d="M1640 1070 c0 -5 5 -10 10 -10 6 0 10 5 10 10 0 6 -4 10 -10 10 -5 0
-10 -4 -10 -10z"/>
<path d="M1310 1041 c0 -4 11 -6 25 -3 14 2 25 6 25 8 0 2 -11 4 -25 4 -14 0
-25 -4 -25 -9z"/>
<path d="M1435 1040 c-32 -6 -22 -7 44 -9 46 0 82 1 80 3 -10 8 -88 12 -124 6z"/>
<path d="M1610 1040 l-45 -7 53 -1 c29 -1 52 2 52 8 0 6 -3 9 -7 8 -5 0 -28
-4 -53 -8z"/>
<path d="M1754 985 c-4 -14 -4 -29 0 -32 3 -4 6 3 6 15 0 11 8 26 18 31 16 10
16 10 0 11 -11 0 -20 -10 -24 -25z"/>
<path d="M1480 986 c0 -2 7 -7 16 -10 8 -3 12 -2 9 4 -6 10 -25 14 -25 6z"/>
<path d="M1176 965 c-4 -13 -2 -14 14 -5 23 13 26 20 6 20 -8 0 -16 -7 -20
-15z"/>
<path d="M1547 949 c7 -7 15 -10 18 -7 3 3 -2 9 -12 12 -14 6 -15 5 -6 -5z"/>
<path d="M1475 940 c-10 -16 16 -43 28 -31 11 11 2 41 -12 41 -5 0 -13 -5 -16
-10z"/>
<path d="M1784 920 c-5 -5 -43 -10 -84 -12 l-75 -3 88 -5 c49 -3 90 -3 92 0 7
12 -11 30 -21 20z"/>
<path d="M1170 911 c0 -6 -10 -11 -22 -12 -19 0 -20 -2 -6 -7 13 -5 15 -11 8
-22 -5 -8 -10 -28 -10 -43 0 -16 -4 -26 -10 -22 -5 3 -10 15 -10 26 0 14 -7
19 -30 19 -29 0 -30 -2 -30 -45 l0 -44 38 2 37 2 1 -75 c0 -57 0 -61 -3 -17
l-4 57 -33 0 -33 0 -2 -56 c0 -31 -3 -60 -7 -65 -3 -5 7 -9 23 -8 20 0 23 2
11 7 -14 6 -14 10 -4 24 12 16 14 16 26 -7 9 -17 22 -25 41 -25 l28 0 3 156
c2 86 0 158 -4 161 -5 2 -8 -1 -8 -6z"/>
<path d="M1343 903 c-7 -3 -13 -14 -13 -25 0 -15 -4 -18 -21 -13 -15 5 -19 4
-14 -5 5 -8 1 -8 -13 1 -25 16 -37 7 -24 -17 6 -10 6 -29 2 -46 -8 -26 -7 -28
21 -28 27 0 29 3 29 37 0 20 2 34 4 32 5 -5 15 -136 16 -196 0 -31 4 -43 15
-43 12 0 15 13 15 60 0 49 3 58 15 54 11 -5 15 -22 15 -63 0 -34 4 -51 9 -43
11 19 15 19 34 3 15 -12 16 -9 11 35 -3 27 -6 53 -7 58 -1 4 4 11 11 13 12 5
17 -20 14 -87 -1 -30 0 -31 7 -10 5 17 9 21 15 12 4 -7 12 -10 17 -7 5 4 9 -2
9 -11 0 -10 3 -14 7 -11 4 4 5 32 4 63 -2 43 1 55 11 52 7 -3 14 -23 16 -47 3
-33 7 -42 19 -39 21 4 37 59 20 70 -9 6 -9 8 0 8 7 0 17 8 22 18 8 16 1 17
-116 14 -69 -2 -129 0 -133 5 -4 4 -5 28 -2 53 l6 45 7 -35 6 -35 3 35 3 35 6
-40 c5 -33 10 -40 29 -41 20 -1 22 3 22 47 0 28 5 49 11 49 5 0 8 -4 4 -9 -3
-5 -1 -13 5 -16 6 -4 8 -14 5 -24 -3 -9 1 -26 9 -37 15 -19 15 -19 38 4 12 12
17 22 11 22 -6 0 -9 9 -6 20 8 30 23 24 23 -9 0 -38 22 -56 49 -42 17 9 19 16
11 36 -6 15 -6 27 0 30 6 4 10 13 10 21 0 11 -23 14 -126 14 -107 0 -125 2
-121 15 7 16 -2 24 -20 18z"/>
<path d="M1518 893 c6 -2 18 -2 25 0 6 3 1 5 -13 5 -14 0 -19 -2 -12 -5z"/>
<path d="M980 880 c0 -13 11 -13 30 0 12 8 11 10 -7 10 -13 0 -23 -4 -23 -10z"/>
<path d="M1863 883 c26 -2 68 -2 95 0 26 2 4 3 -48 3 -52 0 -74 -1 -47 -3z"/>
<path d="M1672 825 c4 -28 1 -46 -6 -49 -6 -2 13 -5 42 -5 l52 -1 -1 38 -2 37
-7 -35 c-7 -31 -8 -33 -15 -13 -4 12 -17 24 -29 26 l-21 4 21 2 c12 0 25 9 28
18 4 10 4 15 1 11 -4 -3 -20 -2 -37 3 l-31 8 5 -44z"/>
<path d="M1868 815 c-3 -45 -3 -45 29 -45 32 0 33 2 33 39 0 26 -5 41 -16 45
-34 13 -42 6 -46 -39z"/>
<path d="M1250 670 c0 -52 2 -59 18 -53 33 12 42 26 42 69 0 42 -1 44 -30 44
-30 0 -30 0 -30 -60z"/>
<path d="M1697 723 c-4 -3 -7 -23 -7 -42 0 -26 6 -40 21 -50 18 -10 19 -15 8
-22 -11 -7 -11 -9 4 -9 14 0 17 10 17 65 0 56 -2 65 -18 65 -10 0 -22 -3 -25
-7z"/>
<path d="M1873 680 c-3 -47 -1 -50 22 -50 16 0 25 -6 25 -15 0 -8 9 -15 20
-15 11 0 20 5 20 10 0 6 -7 10 -16 10 -14 0 -16 9 -12 55 l5 55 -31 0 c-30 0
-31 -2 -33 -50z"/>
<path d="M61 418 c2 -34 3 -37 6 -13 l5 30 13 -24 13 -24 13 24 13 24 7 -30
c6 -27 7 -26 8 13 1 43 -13 57 -22 22 -3 -11 -10 -20 -15 -20 -6 0 -14 9 -17
20 -11 35 -25 22 -24 -22z"/>
<path d="M213 444 c-3 -8 -2 -19 3 -24 5 -5 9 1 9 16 0 28 -3 30 -12 8z"/>
<path d="M330 445 c-14 -17 -5 -51 17 -59 13 -5 14 -4 3 9 -7 8 -10 26 -8 40
6 29 5 30 -12 10z"/>
<path d="M1109 427 c-3 -21 -1 -40 3 -43 4 -3 8 4 8 15 0 11 8 22 18 24 15 4
15 5 0 6 -9 0 -18 9 -20 19 -3 9 -6 0 -9 -21z"/>
<path d="M1942 448 c-19 -19 -14 -46 11 -59 20 -11 21 -11 8 4 -7 9 -11 28 -9
42 6 29 6 29 -10 13z"/>
<path d="M2601 418 c2 -30 3 -35 6 -15 5 33 10 33 40 5 l23 -21 -1 39 c-1 30
-2 34 -8 16 l-6 -24 -19 21 c-28 31 -36 26 -35 -21z"/>
<path d="M2820 455 c0 -9 30 -65 34 -65 2 0 7 7 10 16 3 8 2 12 -4 9 -5 -3
-12 6 -16 20 -5 21 -24 37 -24 20z"/>
<path d="M2875 449 c-4 -6 -5 -12 -2 -15 2 -3 7 2 10 11 7 17 1 20 -8 4z"/>
<path d="M465 415 c2 -25 15 -49 15 -25 0 10 3 10 14 1 14 -12 15 -3 7 49 -1
3 -6 -2 -11 -10 -6 -10 -10 -11 -10 -2 0 6 -4 12 -8 12 -4 0 -7 -11 -7 -25z"/>
<path d="M570 410 c0 -16 5 -30 10 -30 6 0 10 14 10 30 0 17 -4 30 -10 30 -5
0 -10 -13 -10 -30z"/>
<path d="M677 433 c-9 -9 -9 -43 1 -43 4 0 7 11 7 25 0 14 0 25 -1 25 0 0 -4
-3 -7 -7z"/>
<path d="M787 427 c-3 -8 -1 -20 4 -28 6 -10 9 -7 9 14 0 29 -5 35 -13 14z"/>
<path d="M833 415 c0 -14 3 -22 8 -19 5 3 9 11 9 19 0 8 -4 16 -9 19 -5 3 -8
-5 -8 -19z"/>
<path d="M911 410 c1 -19 3 -27 6 -17 4 14 8 16 19 6 11 -9 14 -6 14 17 0 23
-2 26 -10 14 -9 -13 -11 -13 -20 0 -7 11 -9 6 -9 -20z"/>
<path d="M1216 425 c-3 -10 -4 -20 -1 -23 3 -3 5 1 5 9 1 8 7 3 15 -11 9 -16
14 -19 15 -9 0 8 -6 23 -13 33 -13 18 -14 18 -21 1z"/>
<path d="M1310 433 c0 -5 9 -18 20 -28 11 -10 20 -14 20 -8 0 5 -9 18 -20 28
-11 10 -20 14 -20 8z"/>
<path d="M1412 410 c0 -19 2 -27 5 -17 2 9 2 25 0 35 -3 9 -5 1 -5 -18z"/>
<path d="M1452 410 c0 -19 2 -27 5 -17 2 9 2 25 0 35 -3 9 -5 1 -5 -18z"/>
<path d="M1530 410 c0 -16 2 -30 4 -30 2 0 6 14 8 30 3 17 1 30 -4 30 -4 0 -8
-13 -8 -30z"/>
<path d="M1617 433 c-9 -9 -9 -43 1 -43 4 0 7 11 7 25 0 14 0 25 -1 25 0 0 -4
-3 -7 -7z"/>
<path d="M1655 415 c0 -13 3 -21 8 -18 4 2 7 10 7 18 0 8 -3 16 -7 18 -5 3 -8
-5 -8 -18z"/>
<path d="M1730 433 c1 -11 50 -46 50 -35 0 10 -33 42 -43 42 -4 0 -7 -3 -7 -7z"/>
<path d="M2075 416 c0 -17 5 -24 18 -23 11 1 17 10 17 27 0 20 -2 22 -10 10
-6 -10 -10 -11 -10 -2 0 6 -3 12 -7 12 -5 0 -8 -11 -8 -24z"/>
<path d="M2176 423 c-4 -9 -2 -21 4 -27 7 -7 10 -2 10 17 0 31 -5 34 -14 10z"/>
<path d="M2220 415 c0 -15 4 -24 10 -20 6 3 10 12 10 20 0 8 -4 17 -10 20 -6
4 -10 -5 -10 -20z"/>
<path d="M2300 417 c0 -14 5 -29 10 -32 7 -4 8 3 4 22 -9 38 -14 42 -14 10z"/>
<path d="M2418 410 c2 -16 6 -30 8 -30 2 0 4 14 4 30 0 17 -4 30 -8 30 -5 0
-7 -13 -4 -30z"/>
<path d="M2440 424 c0 -8 5 -12 10 -9 6 4 8 11 5 16 -9 14 -15 11 -15 -7z"/>
<path d="M380 400 c0 -19 3 -21 12 -12 9 9 9 15 0 24 -9 9 -12 7 -12 -12z"/>
<path d="M1990 400 c0 -19 3 -21 12 -12 9 9 9 15 0 24 -9 9 -12 7 -12 -12z"/>
<path d="M710 394 c0 -8 5 -12 10 -9 6 4 8 11 5 16 -9 14 -15 11 -15 -7z"/>
</g>
</svg>
