<?xml version="1.0" encoding="UTF-8"?>
<svg version="1.1" xmlns="http://www.w3.org/2000/svg" width="240" height="240">
<path d="M0 0 C79.2 0 158.4 0 240 0 C240 79.2 240 158.4 240 240 C160.8 240 81.6 240 0 240 C0 160.8 0 81.6 0 0 Z " fill="#E13234" transform="translate(0,0)"/>
<path d="M0 0 C4.29 0 8.58 0 13 0 C16.69543373 7.90472954 20.38686964 15.81128643 24.07144165 23.72108459 C25.95223586 27.75724044 27.83884 31.79059405 29.73156738 35.82116699 C31.11701597 38.77460046 32.4953294 41.73136401 33.875 44.6875 C34.39223633 45.78433105 34.90947266 46.88116211 35.44238281 48.01123047 C35.91256836 49.0220166 36.38275391 50.03280273 36.8671875 51.07421875 C37.28081543 51.95682373 37.69444336 52.83942871 38.12060547 53.7487793 C39 56 39 56 39 59 C39.66 59 40.32 59 41 59 C41.16698395 58.45794418 41.3339679 57.91588837 41.50601196 57.35740662 C43.34980125 51.58030596 45.64144658 46.18014351 48.2734375 40.72265625 C48.67905914 39.87126572 49.08468079 39.01987518 49.50259399 38.14268494 C50.78850784 35.44692247 52.081721 32.75473543 53.375 30.0625 C54.23483543 28.26128743 55.09421419 26.45985679 55.953125 24.65820312 C59.89519732 16.40129849 63.86375008 8.16185941 68 0 C71.96 0 75.92 0 80 0 C80 24.42 80 48.84 80 74 C77.03 74 74.06 74 71 74 C70.67 54.53 70.34 35.06 70 15 C61.80504157 32.72629841 61.80504157 32.72629841 53.72265625 50.50390625 C51.85742188 54.61132812 51.85742188 54.61132812 50.96069336 56.57836914 C50.34294359 57.94299332 49.7319856 59.31070597 49.12670898 60.6809082 C48.21754789 62.73436233 47.28535127 64.77585628 46.34765625 66.81640625 C45.55887085 68.57126343 45.55887085 68.57126343 44.75415039 70.36157227 C43 73 43 73 40.29077148 73.88647461 C39.1568396 73.94266968 39.1568396 73.94266968 38 74 C32.65033484 63.45449392 27.46771061 52.82900712 22.3125 42.1875 C21.98925751 41.52136688 21.66601501 40.85523376 21.33297729 40.16891479 C20.38324957 38.21098635 19.43548311 36.25212021 18.48828125 34.29296875 C17.93696533 33.1536792 17.38564941 32.01438965 16.81762695 30.84057617 C14.48884252 25.91994381 12.25269473 20.9559284 10 16 C9.67 35.14 9.34 54.28 9 74 C6.03 74 3.06 74 0 74 C0 49.58 0 25.16 0 0 Z " fill="#FEFAFA" transform="translate(12,117)"/>
<path d="M0 0 C0 2.97 0 5.94 0 9 C-8.74674675 7.07057057 -8.74674675 7.07057057 -10.9765625 6.44921875 C-18.58462102 4.76017101 -26.9957903 5.62216339 -34 9 C-41.32457889 14.00973556 -46.30535312 20.200274 -48 29 C-48.77963422 39.86375558 -47.82524053 48.03712505 -41.875 57.3125 C-34.46094993 64.24302507 -27.57152018 65.60739401 -17.70678711 65.46630859 C-11.52914143 65.22318121 -5.81630571 64.15228934 0 62 C0 64.64 0 67.28 0 70 C-11.21644729 74.37251335 -24.96298481 76.75962662 -36.625 72.375 C-46.39897818 67.57197979 -53.67095456 60.70776439 -57.39575195 50.31494141 C-58.53410051 45.95380161 -58.47140853 41.6070913 -58.4375 37.125 C-58.45748047 36.19558594 -58.47746094 35.26617187 -58.49804688 34.30859375 C-58.49052003 23.51509355 -54.83716994 15.97992607 -47.421875 8.26171875 C-33.90627474 -4.36010794 -17.22179608 -5.74059869 0 0 Z " fill="#FDF9F8" transform="translate(166,118)"/>
<path d="M0 0 C17.82 0 35.64 0 54 0 C54 2.64 54 5.28 54 8 C46.74 8 39.48 8 32 8 C32 29.78 32 51.56 32 74 C29.03 74 26.06 74 23 74 C23 51.89 23 29.78 23 7 C15.41 7 7.82 7 0 7 C0 4.69 0 2.38 0 0 Z " fill="#FDF8F8" transform="translate(174,117)"/>
<path d="M0 0 C6.93 0 13.86 0 21 0 C21 6.93 21 13.86 21 21 C14.07 21 7.14 21 0 21 C0 14.07 0 7.14 0 0 Z " fill="#FDF6F7" transform="translate(45,51)"/>
<path d="M0 0 C6.93 0 13.86 0 21 0 C21 6.93 21 13.86 21 21 C14.07 21 7.14 21 0 21 C0 14.07 0 7.14 0 0 Z " fill="#FDF8F8" transform="translate(22,51)"/>
<path d="M0 0 C6.93 0 13.86 0 21 0 C21 6.93 21 13.86 21 21 C14.07 21 7.14 21 0 21 C0 14.07 0 7.14 0 0 Z " fill="#FDF6F6" transform="translate(45,28)"/>
<path d="M0 0 C6.93 0 13.86 0 21 0 C21 6.93 21 13.86 21 21 C14.07 21 7.14 21 0 21 C0 14.07 0 7.14 0 0 Z " fill="#FDF7F7" transform="translate(22,28)"/>
<path d="M0 0 C1.98 0 3.96 0 6 0 C6.32613281 0.72445312 6.65226562 1.44890625 6.98828125 2.1953125 C7.42527344 3.16210938 7.86226563 4.12890625 8.3125 5.125 C8.74175781 6.07632813 9.17101562 7.02765625 9.61328125 8.0078125 C11.01561704 11.03369761 12.50852245 14.0170449 14 17 C16.31 11.39 18.62 5.78 21 0 C23.31 0 25.62 0 28 0 C28 8.58 28 17.16 28 26 C26.35 26 24.7 26 23 26 C22.67 20.72 22.34 15.44 22 10 C20.18813622 14.88514031 20.18813622 14.88514031 18.41113281 19.78295898 C17.703125 21.62109375 17.703125 21.62109375 16 25 C14.68 25.33 13.36 25.66 12 26 C9.69 20.72 7.38 15.44 5 10 C4.67 15.28 4.34 20.56 4 26 C2.68 26 1.36 26 0 26 C0 17.42 0 8.84 0 0 Z " fill="#FCEDED" transform="translate(79,37)"/>
<path d="M0 0 C4.6 2.2 4.6 2.2 6 5 C6.52893101 9.41353907 6.49914819 12.95829942 4.5625 17 C0.92585473 19.83835728 -2.42611171 20.44026732 -7 20 C-9.92143417 18.23496686 -11.47923817 17.04152365 -13 14 C-13.5811138 6.91041162 -13.5811138 6.91041162 -11.125 3.0625 C-7.50882222 -0.44731961 -4.97588405 -0.33734807 0 0 Z " fill="#FBEBEB" transform="translate(196,44)"/>
<path d="M0 0 C3 1.3125 3 1.3125 5 4 C6.00379802 9.34810418 5.91879037 13.53567785 3 18.1875 C-0.30898139 20.18667626 -2.25845494 20.74680939 -6.06640625 20.48046875 C-9.54565017 19.61592935 -10.98608141 17.86830829 -13 15 C-14.21043896 10.83911606 -14.28411902 8.75291539 -12.75 4.6875 C-9.46809164 -0.35257355 -5.64223058 -0.82328267 0 0 Z " fill="#FBECEC" transform="translate(161,44)"/>
<path d="M0 0 C0 1.32 0 2.64 0 4 C-1.32 4.33 -2.64 4.66 -4 5 C-4.33 6.65 -4.66 8.3 -5 10 C-2.69 10 -0.38 10 2 10 C2 8.35 2 6.7 2 5 C3.32 4.67 4.64 4.34 6 4 C6 5.98 6 7.96 6 10 C7.32 10 8.64 10 10 10 C10 10.99 10 11.98 10 13 C8.68 13 7.36 13 6 13 C6.33 16.63 6.66 20.26 7 24 C8.32 24.33 9.64 24.66 11 25 C11 25.99 11 26.98 11 28 C8.1875 28.6875 8.1875 28.6875 5 29 C3.3125 27.9375 3.3125 27.9375 2 26 C1.70703125 22.86328125 1.70703125 22.86328125 1.8125 19.3125 C1.83957031 18.13300781 1.86664063 16.95351563 1.89453125 15.73828125 C1.92933594 14.83464844 1.96414062 13.93101563 2 13 C-0.31 13 -2.62 13 -5 13 C-5 17.95 -5 22.9 -5 28 C-6.32 28 -7.64 28 -9 28 C-9 23.05 -9 18.1 -9 13 C-9.99 13 -10.98 13 -12 13 C-12 12.01 -12 11.02 -12 10 C-11.01 10 -10.02 10 -9 10 C-9.0825 8.906875 -9.165 7.81375 -9.25 6.6875 C-9 3 -9 3 -7.3125 1.0625 C-4.67742863 -0.14820847 -2.86784522 -0.2389871 0 0 Z " fill="#FDF5F5" transform="translate(215,35)"/>
<path d="M0 0 C0.33 0 0.66 0 1 0 C1 6.93 1 13.86 1 21 C7.93 21 14.86 21 22 21 C21.67 21.66 21.34 22.32 21 23 C14.4 23 7.8 23 1 23 C1 29.93 1 36.86 1 44 C0.34 43.67 -0.32 43.34 -1 43 C-1 36.4 -1 29.8 -1 23 C-7.6 23 -14.2 23 -21 23 C-21.33 22.34 -21.66 21.68 -22 21 C-15.07 21 -8.14 21 -1 21 C-1.03958259 14.4629715 -1.03958259 14.4629715 -1.09008789 7.92602539 C-1.09258545 7.11641357 -1.09508301 6.30680176 -1.09765625 5.47265625 C-1.10551147 4.22367554 -1.10551147 4.22367554 -1.11352539 2.94946289 C-1 1 -1 1 0 0 Z " fill="#E34546" transform="translate(44,28)"/>
<path d="M0 0 C0.33 1.32 0.66 2.64 1 4 C-1.31 4 -3.62 4 -6 4 C-5.28360801 7.28843538 -5.28360801 7.28843538 -2 8.625 C-1.01 9.07875 -0.02 9.5325 1 10 C1.33 10.33 1.66 10.66 2 11 C1.8125 14.4375 1.8125 14.4375 1 18 C-1.99459327 20.55094982 -5.20536415 20.17248345 -9 20 C-9.33 18.35 -9.66 16.7 -10 15 C-7.69 15 -5.38 15 -3 15 C-2.67 14.34 -2.34 13.68 -2 13 C-2.94875 12.71125 -3.8975 12.4225 -4.875 12.125 C-8 11 -8 11 -10 9 C-10.3267107 5.92891945 -10.48138276 3.84949899 -8.9375 1.125 C-5.99772876 -0.58196395 -3.32129197 -0.18799766 0 0 Z " fill="#FBEBEB" transform="translate(179,44)"/>
<path d="M0 0 C0.33 1.65 0.66 3.3 1 5 C-1.97 5 -4.94 5 -8 5 C-8.04125 6.27875 -8.0825 7.5575 -8.125 8.875 C-8.15980469 9.95394531 -8.15980469 9.95394531 -8.1953125 11.0546875 C-8.18331689 13.23863645 -8.18331689 13.23863645 -6 15 C-2.41656024 15.16677282 -2.41656024 15.16677282 1 15 C1 16.32 1 17.64 1 19 C-3.69537275 20.0331866 -6.80610727 20.70658957 -11.0625 18.1875 C-13.75498961 13.75792032 -14.15995052 10.05407014 -13 5 C-9.88213457 0.05972027 -5.53619563 -0.55361956 0 0 Z " fill="#FBEBEB" transform="translate(132,44)"/>
<path d="M0 0 C3.66666667 0 7.33333333 0 11 0 C11 1.32 11 2.64 11 4 C9.35 4.66 7.7 5.32 6 6 C5.67 10.29 5.34 14.58 5 19 C3.35 19 1.7 19 0 19 C0 12.73 0 6.46 0 0 Z " fill="#FAE1E1" transform="translate(136,44)"/>
<path d="M0 0 C3 0.25 3 0.25 5 2.25 C5.31537716 6.58643601 5.44897847 8.57653229 3 12.25 C0 12.625 0 12.625 -3 12.25 C-5.44897847 8.57653229 -5.31537716 6.58643601 -5 2.25 C-3 0.25 -3 0.25 0 0 Z " fill="#E23E40" transform="translate(157,47.75)"/>
<path d="M0 0 C2.5625 0.3125 2.5625 0.3125 4.4375 1.375 C6.24310316 4.48464989 5.36202488 6.92989473 4.5625 10.3125 C2.5625 12.3125 2.5625 12.3125 0.0625 12.5625 C-2.4375 12.3125 -2.4375 12.3125 -4.4375 10.3125 C-4.703125 8.4375 -4.703125 8.4375 -4.6875 6.3125 C-4.69265625 5.61125 -4.6978125 4.91 -4.703125 4.1875 C-4.26410186 1.08851312 -2.98750291 0.38301319 0 0 Z " fill="#E23A3C" transform="translate(192.4375,47.6875)"/>
<path d="M0 0 C1.32 0 2.64 0 4 0 C4 6.27 4 12.54 4 19 C2.68 19 1.36 19 0 19 C0 12.73 0 6.46 0 0 Z " fill="#FCF2F3" transform="translate(111,44)"/>
<path d="M0 0 C0.33 0 0.66 0 1 0 C1.20625 0.928125 1.4125 1.85625 1.625 2.8125 C2.74446192 6.26004095 2.74446192 6.26004095 6.125 7.875 C7.07375 8.24625 8.0225 8.6175 9 9 C8.67 9.99 8.34 10.98 8 12 C6.576875 11.9071875 6.576875 11.9071875 5.125 11.8125 C3.578125 11.9053125 3.578125 11.9053125 2 12 C1.01 13.485 1.01 13.485 0 15 C-1.72262035 12.00592177 -2.27306023 9.82250407 -2.25 6.375 C-2.25515625 5.59898438 -2.2603125 4.82296875 -2.265625 4.0234375 C-2 2 -2 2 0 0 Z " fill="#E44A4C" transform="translate(168,48)"/>
<path d="M0 0 C1.85776765 3.13498292 2.20140476 5.37471432 2 9 C-0.31 9 -2.62 9 -5 9 C-5 7.35 -5 5.7 -5 4 C-3.35 3.67 -1.7 3.34 0 3 C0 2.01 0 1.02 0 0 Z " fill="#E55051" transform="translate(215,36)"/>
<path d="M0 0 C1.65 0.33 3.3 0.66 5 1 C2.63231004 4.94614993 0.35907526 5.79429833 -4 7 C-4.99 7.495 -4.99 7.495 -6 8 C-5.34 6.68 -4.68 5.36 -4 4 C-2.68 4 -1.36 4 0 4 C0 2.68 0 1.36 0 0 Z " fill="#E65456" transform="translate(147,44)"/>
<path d="M0 0 C1.32 0 2.64 0 4 0 C4 1.32 4 2.64 4 4 C1.625 4.625 1.625 4.625 -1 5 C-1.66 4.34 -2.32 3.68 -3 3 C-2.34 3 -1.68 3 -1 3 C-0.67 2.01 -0.34 1.02 0 0 Z " fill="#FBE7E8" transform="translate(143,44)"/>
<path d="M0 0 C2.475 0.495 2.475 0.495 5 1 C4.67 2.32 4.34 3.64 4 5 C2.68 4.67 1.36 4.34 0 4 C0 2.68 0 1.36 0 0 Z " fill="#FAE1E2" transform="translate(111,37)"/>
</svg>
