<?xml version="1.0" encoding="UTF-8"?>
<svg version="1.1" xmlns="http://www.w3.org/2000/svg" width="200" height="200">
<path d="M0 0 C66 0 132 0 200 0 C200 66 200 132 200 200 C134 200 68 200 0 200 C0 134 0 68 0 0 Z " fill="#FEFEFE" transform="translate(0,0)"/>
<path d="M0 0 C2.67578125 1.7890625 2.67578125 1.7890625 5 5 C5.61676377 8.95443356 5.47092319 12.82267284 5.3125 16.8125 C5.28994141 17.88693359 5.26738281 18.96136719 5.24414062 20.06835938 C5.18535598 22.7136685 5.10323957 25.35611413 5 28 C6.65 28 8.3 28 10 28 C9.97381592 27.3294458 9.94763184 26.6588916 9.9206543 25.96801758 C9.81642762 22.91641872 9.75159377 19.86519458 9.6875 16.8125 C9.64560547 15.75740234 9.60371094 14.70230469 9.56054688 13.61523438 C9.43718527 5.79410846 9.43718527 5.79410846 12.28125 1.78125 C15.71969234 -0.47152257 17.9682586 -0.39526876 22 0 C22 0.66 22 1.32 22 2 C22.99 2.33 23.98 2.66 25 3 C26.30475618 5.60951236 26.11301572 7.52701285 26.09765625 10.4453125 C26.09443359 11.52167969 26.09121094 12.59804687 26.08789062 13.70703125 C26.07532227 15.39892578 26.07532227 15.39892578 26.0625 17.125 C26.05798828 18.26066406 26.05347656 19.39632812 26.04882812 20.56640625 C26.03701615 23.37765638 26.02054507 26.1888023 26 29 C27.15628906 28.98259766 27.15628906 28.98259766 28.3359375 28.96484375 C29.33882812 28.95582031 30.34171875 28.94679688 31.375 28.9375 C32.37273438 28.92589844 33.37046875 28.91429688 34.3984375 28.90234375 C37 29 37 29 39 30 C39.33 29.34 39.66 28.68 40 28 C41.01320312 28.02320312 42.02640625 28.04640625 43.0703125 28.0703125 C44.42186758 28.0890841 45.77343069 28.1072828 47.125 28.125 C47.79015625 28.14175781 48.4553125 28.15851563 49.140625 28.17578125 C53.51003655 28.21861862 56.93704989 27.57004857 61 26 C61.7425 25.835 62.485 25.67 63.25 25.5 C65.23877444 25.08498751 65.23877444 25.08498751 67 23 C67.433125 23.474375 67.86625 23.94875 68.3125 24.4375 C71.46036082 27.35218595 74.61197787 27.11044732 78.6875 27.0625 C79.68136719 27.05347656 80.67523438 27.04445313 81.69921875 27.03515625 C82.45847656 27.02355469 83.21773438 27.01195313 84 27 C84 27.66 84 28.32 84 29 C85.98 29 87.96 29 90 29 C89.98428955 28.29391602 89.9685791 27.58783203 89.95239258 26.86035156 C89.88997903 23.65698271 89.85098889 20.45374188 89.8125 17.25 C89.78736328 16.13882813 89.76222656 15.02765625 89.73632812 13.8828125 C89.72666016 12.81289062 89.71699219 11.74296875 89.70703125 10.640625 C89.6913208 9.65610352 89.67561035 8.67158203 89.65942383 7.65722656 C90.05866939 4.54225257 90.80077163 3.21667502 93 1 C96.91360975 -0.08711382 99.06782904 -0.4142982 102.8125 1.25 C105 3 105 3 107 6 C107.22705078 8.36010742 107.22705078 8.36010742 107.1953125 11.10546875 C107.18886719 12.08837891 107.18242188 13.07128906 107.17578125 14.08398438 C107.15064453 15.62022461 107.15064453 15.62022461 107.125 17.1875 C107.11597656 18.22326172 107.10695313 19.25902344 107.09765625 20.32617188 C107.0740786 22.88434685 107.0411703 25.44205748 107 28 C108.65 27.67 110.3 27.34 112 27 C112.33 23.04 112.66 19.08 113 15 C114.98 15 116.96 15 119 15 C122.25601751 23.03501094 122.25601751 23.03501094 121.1875 27.0625 C120.795625 27.701875 120.40375 28.34125 120 29 C120.99 29.33 121.98 29.66 123 30 C123.66 28.68 124.32 27.36 125 26 C128.0831351 27.19899698 131.06279492 28.47700477 134 30 C134 31.98 134 33.96 134 36 C135.65 36 137.3 36 139 36 C139 33.69 139 31.38 139 29 C140.4562672 28.63743142 141.91511185 28.28520207 143.375 27.9375 C144.59316406 27.64166016 144.59316406 27.64166016 145.8359375 27.33984375 C148 27 148 27 150 28 C150 28.66 150 29.32 150 30 C150.99 30 151.98 30 153 30 C152.7834375 29.13375 152.7834375 29.13375 152.5625 28.25 C152.376875 27.5075 152.19125 26.765 152 26 C151.7525 25.38125 151.505 24.7625 151.25 24.125 C150.86627805 20.86336347 152.42040592 18.78008557 154 16 C159.75 15.875 159.75 15.875 162 17 C161.67 14.69 161.34 12.38 161 10 C165.02405462 10.65577186 168.50055149 11.91156368 172.25 13.5 C173.83554687 14.16515625 173.83554687 14.16515625 175.453125 14.84375 C178 16 178 16 179 17 C179.25 19.4375 179.25 19.4375 179 22 C175.27367284 24.48421811 172.31338065 24.42240263 168 24 C164.5 23 164.5 23 162 22 C161.67 22.99 161.34 23.98 161 25 C167.0910155 27.0303385 172.47135715 28.01938571 178.8125 26.1875 C181.32810722 24.95598111 181.32810722 24.95598111 184 22 C184 51.04 184 80.08 184 110 C118 110 52 110 -16 110 C-16 82.61 -16 55.22 -16 27 C-14.35 27 -12.7 27 -11 27 C-11.01047363 26.38479492 -11.02094727 25.76958984 -11.03173828 25.13574219 C-11.07338695 22.34053657 -11.09935416 19.54539634 -11.125 16.75 C-11.14175781 15.78191406 -11.15851562 14.81382813 -11.17578125 13.81640625 C-11.18222656 12.88183594 -11.18867188 11.94726562 -11.1953125 10.984375 C-11.20578613 10.12553711 -11.21625977 9.26669922 -11.22705078 8.38183594 C-10.97642325 5.75267229 -10.43243 4.21023889 -9 2 C-5.48175489 -0.34549674 -4.14224306 -0.57991403 0 0 Z " fill="#FEFEFE" transform="translate(16,90)"/>
<path d="M0 0 C1.65 0 3.3 0 5 0 C5 1.98 5 3.96 5 6 C6.45463481 6.38909985 7.91391207 6.76088029 9.375 7.125 C10.18710938 7.33382812 10.99921875 7.54265625 11.8359375 7.7578125 C12.90714844 7.87769531 12.90714844 7.87769531 14 8 C14.66 7.34 15.32 6.68 16 6 C18.0625 6.25 18.0625 6.25 20 7 C20.495 7.99 20.495 7.99 21 9 C20.01 9.66 19.02 10.32 18 11 C18.53725895 14.37705625 19.11064623 17.696686 20 21 C21.98 21 23.96 21 26 21 C26 22.65 26 24.3 26 26 C24.02 26 22.04 26 20 26 C19.60777895 27.41199578 19.23688941 28.82992764 18.875 30.25 C18.66617188 31.03890625 18.45734375 31.8278125 18.2421875 32.640625 C17.95466469 35.44165368 18.68490962 36.57692009 20 39 C19.505 39.99 19.505 39.99 19 41 C18.01 41 17.02 41 16 41 C16 40.34 16 39.68 16 39 C10.555 39.495 10.555 39.495 5 40 C5 42.31 5 44.62 5 47 C3.35 47 1.7 47 0 47 C0 45.02 0 43.04 0 41 C-3.61973402 39.68373308 -6.09567131 39 -10 39 C-10.33 39.66 -10.66 40.32 -11 41 C-12.32 40.67 -13.64 40.34 -15 40 C-14.62875 38.948125 -14.2575 37.89625 -13.875 36.8125 C-12.93478184 32.71583518 -13.18901195 31.62197609 -15 28 C-15 27.01 -15 26.02 -15 25 C-16.98 25 -18.96 25 -21 25 C-21 23.68 -21 22.36 -21 21 C-19.02 21 -17.04 21 -15 21 C-14.855625 20.278125 -14.71125 19.55625 -14.5625 18.8125 C-14.20174862 17.00874309 -13.78916138 15.21414698 -13.3125 13.4375 C-12.94685376 10.58545931 -13.49176795 9.39542737 -15 7 C-13.25 6.375 -13.25 6.375 -11 6 C-10.01 6.5259375 -10.01 6.5259375 -9 7.0625 C-8.34 7.371875 -7.68 7.68125 -7 8 C-4.91666667 7.16666667 -4.91666667 7.16666667 -3 6 C-2.01 6 -1.02 6 0 6 C0 4.02 0 2.04 0 0 Z " fill="#8D8D8F" transform="translate(150,79)"/>
<path d="M0 0 C1.65 0 3.3 0 5 0 C5.495 7.92 5.495 7.92 6 16 C7.98 14.68 9.96 13.36 12 12 C15.83748579 11.11869675 19.23307835 11.68322802 22.875 13.1875 C26.00554037 15.85766679 26.88242193 18.61270518 27.22705078 22.67895508 C27.21657715 23.61634521 27.20610352 24.55373535 27.1953125 25.51953125 C27.18886719 26.54111328 27.18242188 27.56269531 27.17578125 28.61523438 C27.15902344 29.67033203 27.14226562 30.72542969 27.125 31.8125 C27.11597656 32.88693359 27.10695312 33.96136719 27.09765625 35.06835938 C27.07415306 37.71246854 27.04129575 40.35611872 27 43 C25.68 43 24.36 43 23 43 C22.98541748 42.38479492 22.97083496 41.76958984 22.95581055 41.13574219 C22.88119423 38.33987146 22.7845802 35.54517713 22.6875 32.75 C22.65366211 31.29787109 22.65366211 31.29787109 22.61914062 29.81640625 C22.58369141 28.88183594 22.54824219 27.94726562 22.51171875 26.984375 C22.48553467 26.12553711 22.45935059 25.26669922 22.43237305 24.38183594 C21.90850757 21.49599087 21.02894793 20.10165214 19 18 C15.49326742 17.10737716 13.08246254 16.62968387 9.625 17.8125 C7.84911756 18.91985727 7.84911756 18.91985727 7 21 C6.84693099 22.81171098 6.75053339 24.6283794 6.68359375 26.4453125 C6.64169922 27.52167969 6.59980469 28.59804687 6.55664062 29.70703125 C6.51732422 30.83496094 6.47800781 31.96289062 6.4375 33.125 C6.39431641 34.26066406 6.35113281 35.39632812 6.30664062 36.56640625 C6.2003396 39.37747768 6.09830595 42.18863945 6 45 C4.02 45 2.04 45 0 45 C0 44.34 0 43.68 0 43 C-0.7734375 43.2475 -0.7734375 43.2475 -1.5625 43.5 C-5.57098652 44.32225365 -9.39144592 44.52169322 -13.3125 43.25 C-15.42627934 41.68423752 -16.01219927 40.43306437 -17 38 C-17.22705078 35.61816406 -17.22705078 35.61816406 -17.1953125 33.015625 C-17.18886719 32.08105469 -17.18242188 31.14648438 -17.17578125 30.18359375 C-17.15902344 29.21550781 -17.14226562 28.24742188 -17.125 27.25 C-17.11597656 26.26644531 -17.10695313 25.28289062 -17.09765625 24.26953125 C-17.07412785 21.84610593 -17.04125368 19.42317778 -17 17 C-18.32 17 -19.64 17 -21 17 C-21 15.68 -21 14.36 -21 13 C-19.68 13 -18.36 13 -17 13 C-17 9.7 -17 6.4 -17 3 C-15.35 3 -13.7 3 -12 3 C-12 5.97 -12 8.94 -12 12 C-8.37 12 -4.74 12 -1 12 C-1.020625 10.39125 -1.04125 8.7825 -1.0625 7.125 C-1.125 2.25 -1.125 2.25 0 0 Z " fill="#F0FCFC" transform="translate(100,74)"/>
<path d="M0 0 C2.25 1.625 2.25 1.625 4.25 3.625 C4.848125 2.985625 5.44625 2.34625 6.0625 1.6875 C9.43223818 -1.48968172 12.6895802 -1.77238437 17.25 -1.73046875 C20.65486056 -1.12530799 22.18135294 1.0087699 24.25 3.625 C26.51598448 7.02397673 26.48742654 8.18819173 26.4453125 12.16796875 C26.43886719 13.24111328 26.43242188 14.31425781 26.42578125 15.41992188 C26.40902344 16.53947266 26.39226563 17.65902344 26.375 18.8125 C26.36597656 19.94365234 26.35695312 21.07480469 26.34765625 22.24023438 C26.32406862 25.03536828 26.291153 27.83007845 26.25 30.625 C24.6 30.625 22.95 30.625 21.25 30.625 C21.23541748 29.94397217 21.22083496 29.26294434 21.20581055 28.5612793 C21.13137304 25.47777785 21.03469917 22.39536433 20.9375 19.3125 C20.90366211 17.7047168 20.90366211 17.7047168 20.86914062 16.06445312 C20.83369141 15.03642578 20.79824219 14.00839844 20.76171875 12.94921875 C20.73553467 12.00135498 20.70935059 11.05349121 20.68237305 10.0769043 C20.18108438 7.23419279 19.36435026 6.48617677 17.25 4.625 C17.25 3.965 17.25 3.305 17.25 2.625 C12.29267709 2.97126947 12.29267709 2.97126947 8.05371094 5.33300781 C5.86897898 8.10916694 5.71835896 9.54884686 5.640625 13.046875 C5.60839844 14.07167969 5.57617188 15.09648438 5.54296875 16.15234375 C5.52169922 17.74755859 5.52169922 17.74755859 5.5 19.375 C5.45552734 20.99341797 5.45552734 20.99341797 5.41015625 22.64453125 C5.33953064 25.30476244 5.28679804 27.96412102 5.25 30.625 C3.6 30.625 1.95 30.625 0.25 30.625 C0.2406543 29.94920898 0.23130859 29.27341797 0.22167969 28.57714844 C0.16792699 25.5090289 0.08429008 22.44242613 0 19.375 C-0.01417969 18.31152344 -0.02835938 17.24804688 -0.04296875 16.15234375 C-0.07519531 15.12753906 -0.10742188 14.10273437 -0.140625 13.046875 C-0.16157227 12.10424805 -0.18251953 11.16162109 -0.20410156 10.19042969 C-0.90472864 6.89785844 -2.12613741 5.67768162 -4.75 3.625 C-8.85777749 3.12200684 -10.25875983 3.29750655 -13.75 5.625 C-14.70168683 8.48006049 -14.9400946 10.53437282 -15.06640625 13.51171875 C-15.10830078 14.44951172 -15.15019531 15.38730469 -15.19335938 16.35351562 C-15.23267578 17.32998047 -15.27199219 18.30644531 -15.3125 19.3125 C-15.35568359 20.30056641 -15.39886719 21.28863281 -15.44335938 22.30664062 C-15.54941654 24.74595546 -15.65147714 27.18537113 -15.75 29.625 C-17.4 29.625 -19.05 29.625 -20.75 29.625 C-20.75 19.725 -20.75 9.825 -20.75 -0.375 C-19.1 -0.375 -17.45 -0.375 -15.75 -0.375 C-15.42 0.285 -15.09 0.945 -14.75 1.625 C-14.09 0.965 -13.43 0.305 -12.75 -0.375 C-8.35349638 -1.94517987 -4.19540228 -2.09770114 0 0 Z " fill="#4E98B9" transform="translate(20.75,87.375)"/>
<path d="M0 0 C3.95041118 2.8969682 6.15524009 6.46470371 7.8125 11.0625 C7.8125 13.0425 7.8125 15.0225 7.8125 17.0625 C-0.4375 17.0625 -8.6875 17.0625 -17.1875 17.0625 C-13.39631593 24.67536287 -13.39631593 24.67536287 -10.1875 26.0625 C-4.58046787 26.27627721 -4.58046787 26.27627721 0.8125 25.0625 C1.1425 24.4025 1.4725 23.7425 1.8125 23.0625 C3.1325 23.3925 4.4525 23.7225 5.8125 24.0625 C5.8125 25.0525 5.8125 26.0425 5.8125 27.0625 C0.18935826 30.97425078 -4.34686181 32.17057032 -11.1875 31.0625 C-16.03284827 28.72955454 -18.9218461 25.94236993 -21.1875 21.0625 C-21.94131535 15.4627288 -21.96053575 10.72750009 -19.5625 5.5625 C-13.38811378 -0.93685391 -8.44883223 -2.48495066 0 0 Z " fill="#3E91B8" transform="translate(71.1875,86.9375)"/>
<path d="M0 0 C3.30670845 1.81065008 5.47647901 4.13505227 7.4375 7.375 C8.49929825 12.33005848 7.59557853 15.91152889 5.1875 20.3125 C2.55695791 23.54430885 0.72471819 24.7588199 -3.40234375 25.3359375 C-7.54340174 25.39974425 -10.2566516 25.41121401 -13.9375 23.375 C-17.54627399 19.21944208 -19.31343928 15.98721907 -19 10.4375 C-18.31097721 5.9399227 -16.65110245 3.80200885 -13 1 C-8.5818476 -1.64178185 -4.87732365 -1.31019959 0 0 Z " fill="#F2F6F6" transform="translate(158,90)"/>
<path d="M0 0 C0.33 0 0.66 0 1 0 C1 1.98 1 3.96 1 6 C-0.32 6 -1.64 6 -3 6 C-3 7.32 -3 8.64 -3 10 C-1.68 10 -0.36 10 1 10 C1.33 17.59 1.66 25.18 2 33 C-3.55555556 36.33333333 -3.55555556 36.33333333 -7 37 C-7.5775 37.185625 -8.155 37.37125 -8.75 37.5625 C-12.17625079 38.22871543 -15.51300798 38.05811653 -19 38 C-19 37.67 -19 37.34 -19 37 C-18.40832031 36.90203125 -17.81664063 36.8040625 -17.20703125 36.703125 C-12.12957861 35.74230199 -8.82486256 34.7014799 -5 31 C-6.32 30.34 -7.64 29.68 -9 29 C-9.33 29.99 -9.66 30.98 -10 32 C-13.72015978 33.24005326 -17.13487858 33.53598363 -21 33 C-25.9391036 30.20833275 -26.09007591 28.72977227 -28 23 C-19.75 23 -11.5 23 -3 23 C-4.54874771 16.03063529 -5.39816316 12.64287771 -9 7 C-8.01 6.67 -7.02 6.34 -6 6 C-5.26676204 3.98491642 -5.26676204 3.98491642 -5 2 C-2.525 2.495 -2.525 2.495 0 3 C0 2.01 0 1.02 0 0 Z " fill="#EFFCFD" transform="translate(82,81)"/>
<path d="M0 0 C1.32 0 2.64 0 4 0 C4.33 5.28 4.66 10.56 5 16 C6.98 14.68 8.96 13.36 11 12 C14.83748579 11.11869675 18.23307835 11.68322802 21.875 13.1875 C25.00554037 15.85766679 25.88242193 18.61270518 26.22705078 22.67895508 C26.21657715 23.61634521 26.20610352 24.55373535 26.1953125 25.51953125 C26.18886719 26.54111328 26.18242188 27.56269531 26.17578125 28.61523438 C26.15902344 29.67033203 26.14226562 30.72542969 26.125 31.8125 C26.11597656 32.88693359 26.10695313 33.96136719 26.09765625 35.06835938 C26.07415306 37.71246854 26.04129575 40.35611872 26 43 C24.68 43 23.36 43 22 43 C21.98541748 42.38479492 21.97083496 41.76958984 21.95581055 41.13574219 C21.88119423 38.33987146 21.7845802 35.54517713 21.6875 32.75 C21.66494141 31.78191406 21.64238281 30.81382813 21.61914062 29.81640625 C21.5659668 28.41455078 21.5659668 28.41455078 21.51171875 26.984375 C21.48553467 26.12553711 21.45935059 25.26669922 21.43237305 24.38183594 C20.90850757 21.49599087 20.02894793 20.10165214 18 18 C14.59379183 17.13296519 12.10402609 16.70161457 8.6875 17.625 C5.88744091 19.90652962 5.15622367 22.64434753 4.74780273 26.18847656 C4.58032057 28.72975952 4.46610134 31.26735641 4.375 33.8125 C4.33632812 34.69615234 4.29765625 35.57980469 4.2578125 36.49023438 C4.16399216 38.65982972 4.08092674 40.82988547 4 43 C2.68 43 1.36 43 0 43 C0 28.81 0 14.62 0 0 Z " fill="#3B8AAE" transform="translate(101,74)"/>
<path d="M0 0 C0.33 0 0.66 0 1 0 C1.15855469 0.59167969 1.31710938 1.18335937 1.48046875 1.79296875 C3.01284039 6.98271358 4.30274795 10.90181248 9 14 C13.53854751 14.77013244 17.53123329 14.51087538 21.875 13 C24.90912925 10.14434894 26.38478778 6.79890695 28 3 C28.99 3 29.98 3 31 3 C31.12612613 9.55855856 31.12612613 9.55855856 30.375 12.1875 C29.8621971 14.66604733 30.83905626 15.82323048 32 18 C31.67 18.66 31.34 19.32 31 20 C30.01 20 29.02 20 28 20 C28 19.34 28 18.68 28 18 C24.37 18.33 20.74 18.66 17 19 C17 21.31 17 23.62 17 26 C15.35 26 13.7 26 12 26 C12 24.02 12 22.04 12 20 C8.38026598 18.68373308 5.90432869 18 2 18 C1.67 18.66 1.34 19.32 1 20 C-0.32 19.67 -1.64 19.34 -3 19 C-2.443125 17.4221875 -2.443125 17.4221875 -1.875 15.8125 C-0.93478184 11.71583518 -1.18901195 10.62197609 -3 7 C-3 6.01 -3 5.02 -3 4 C-4.98 4 -6.96 4 -9 4 C-9 3.01 -9 2.02 -9 1 C-6.03 1.33 -3.06 1.66 0 2 C0 1.34 0 0.68 0 0 Z " fill="#878788" transform="translate(138,100)"/>
<path d="M0 0 C1.66514624 0.71896335 3.29571839 1.51699982 4.91796875 2.328125 C4.58796875 3.318125 4.25796875 4.308125 3.91796875 5.328125 C3.01433594 5.24433594 2.11070312 5.16054687 1.1796875 5.07421875 C0.00019531 4.97238281 -1.17929688 4.87054688 -2.39453125 4.765625 C-3.56628906 4.66121094 -4.73804688 4.55679688 -5.9453125 4.44921875 C-9.112357 4.14235066 -9.112357 4.14235066 -12.08203125 5.328125 C-11.58488199 7.77853551 -11.58488199 7.77853551 -10.08203125 10.328125 C-7.70248508 11.59371696 -5.58939352 12.55188434 -3.08203125 13.453125 C3.67464135 15.9631339 3.67464135 15.9631339 5.91796875 19.328125 C6.35546875 22.203125 6.35546875 22.203125 5.91796875 25.328125 C3.3677251 28.42977269 1.74097628 30.05378916 -2.08203125 31.328125 C-8.08405761 31.72826009 -11.713891 31.01219513 -17.08203125 28.328125 C-16.75203125 27.008125 -16.42203125 25.688125 -16.08203125 24.328125 C-15.25703125 24.658125 -14.43203125 24.988125 -13.58203125 25.328125 C-9.20015471 26.58008973 -4.32028215 27.44725045 -0.08203125 25.328125 C-0.08203125 23.678125 -0.08203125 22.028125 -0.08203125 20.328125 C-0.901875 20.01359375 -1.72171875 19.6990625 -2.56640625 19.375 C-3.6440625 18.94703125 -4.72171875 18.5190625 -5.83203125 18.078125 C-7.43304688 17.45164062 -7.43304688 17.45164062 -9.06640625 16.8125 C-12.13121528 15.30391525 -13.95382363 13.98331736 -16.08203125 11.328125 C-16.58203125 7.828125 -16.58203125 7.828125 -16.08203125 4.328125 C-11.85007238 -1.03235623 -6.43332893 -2.07604611 0 0 Z " fill="#3E91B7" transform="translate(194.08203125,86.671875)"/>
<path d="M0 0 C1.65 0 3.3 0 5 0 C5 3.3 5 6.6 5 10 C7.97 10 10.94 10 14 10 C14 11.32 14 12.64 14 14 C11.03 14 8.06 14 5 14 C5.13818532 17.47951523 5.28682601 20.95850495 5.4375 24.4375 C5.47681641 25.43072266 5.51613281 26.42394531 5.55664062 27.44726562 C5.61948242 28.86362305 5.61948242 28.86362305 5.68359375 30.30859375 C5.72025146 31.18314209 5.75690918 32.05769043 5.79467773 32.95874023 C5.78181066 34.9927402 5.78181066 34.9927402 7 36 C9.67058851 36.14115161 12.32432238 36.04247107 15 36 C15 37.32 15 38.64 15 40 C11.41980989 41.79009505 7.43803267 41.46638897 3.6875 40.25 C1.57372066 38.68423752 0.98780073 37.43306437 0 35 C-0.22705078 32.61816406 -0.22705078 32.61816406 -0.1953125 30.015625 C-0.18886719 29.08105469 -0.18242188 28.14648438 -0.17578125 27.18359375 C-0.15902344 26.21550781 -0.14226562 25.24742188 -0.125 24.25 C-0.11597656 23.26644531 -0.10695313 22.28289062 -0.09765625 21.26953125 C-0.07412785 18.84610593 -0.04125368 16.42317778 0 14 C-1.32 14 -2.64 14 -4 14 C-4 12.68 -4 11.36 -4 10 C-2.68 10 -1.36 10 0 10 C0 6.7 0 3.4 0 0 Z " fill="#4F99BC" transform="translate(83,77)"/>
<path d="M0 0 C0.66 0.33 1.32 0.66 2 1 C2.33 3.64 2.66 6.28 3 9 C-4.92 9 -12.84 9 -21 9 C-17.20881593 16.61286287 -17.20881593 16.61286287 -14 18 C-8.39296787 18.21377721 -8.39296787 18.21377721 -3 17 C-2.67 16.34 -2.34 15.68 -2 15 C-0.68 15.33 0.64 15.66 2 16 C2 16.99 2 17.98 2 19 C-3.62314174 22.91175078 -8.15936181 24.10807032 -15 23 C-19.83858548 20.67031069 -22.67031069 17.83858548 -25 13 C-25.31215015 9.63683382 -25.23947378 6.36593708 -25 3 C-23.68 2.67 -22.36 2.34 -21 2 C-21 3.32 -21 4.64 -21 6 C-11.1 5.505 -11.1 5.505 -1 5 C-0.67 3.35 -0.34 1.7 0 0 Z " fill="#348BB4" transform="translate(75,95)"/>
<path d="M0 0 C2.22972273 0.11465421 4.45878753 0.24214766 6.6875 0.375 C7.92886719 0.44460937 9.17023438 0.51421875 10.44921875 0.5859375 C14 1 14 1 19 3 C19 9.27 19 15.54 19 22 C16.36 20.35 13.72 18.7 11 17 C9.37309956 16.28837736 7.73028865 15.60966615 6.0625 15 C3.7890625 14.046875 3.7890625 14.046875 2 13 C0.9375 10.25 0.9375 10.25 1 8 C4.73965964 5.50689357 6.29070641 5.9396739 10.6875 6.375 C11.86699219 6.48585938 13.04648438 6.59671875 14.26171875 6.7109375 C15.16535156 6.80632812 16.06898438 6.90171875 17 7 C17.33 6.34 17.66 5.68 18 5 C12.18449975 3.06149992 6.43541281 1.62583488 0.5 4 C0.005 4.33 -0.49 4.66 -1 5 C-0.67 3.35 -0.34 1.7 0 0 Z " fill="#ECF9F9" transform="translate(181,84)"/>
<path d="M0 0 C2.475 0.99 2.475 0.99 5 2 C5 2.99 5 3.98 5 5 C5.66 5 6.32 5 7 5 C7.66 3.68 8.32 2.36 9 1 C9.66 1.66 10.32 2.32 11 3 C10.51402344 3.70253906 10.02804688 4.40507813 9.52734375 5.12890625 C6.98153299 9.91450959 7.35423625 14.7119124 8 20 C10.17181752 24.50451041 12.97192442 27.0908343 17 30 C10.76647981 32.3548854 5.54311329 31.87557031 -1 31 C-1 30.67 -1 30.34 -1 30 C0.65 30 2.3 30 4 30 C3.91874844 26.12416586 3.80593581 22.2498621 3.6875 18.375 C3.66494141 17.28058594 3.64238281 16.18617187 3.61914062 15.05859375 C3.42632191 9.27403221 3.20564752 4.89871068 0 0 Z " fill="#E9F9FA" transform="translate(43,88)"/>
<path d="M0 0 C3.49406769 1.66762322 4.82670681 2.74006022 7 6 C7 7.32 7 8.64 7 10 C0.73 10 -5.54 10 -12 10 C-10.86259542 3.17557252 -10.86259542 3.17557252 -8 1 C-5.17998673 -0.41000664 -3.12992745 -0.24548451 0 0 Z " fill="#F5FBFA" transform="translate(67,90)"/>
<path d="M0 0 C0.33 0 0.66 0 1 0 C1.15855469 0.59167969 1.31710938 1.18335937 1.48046875 1.79296875 C3.02899338 7.03741957 4.40047979 10.7003442 9 14 C11.96833816 14.94787269 14.91927388 15.55030795 18 16 C18 16.66 18 17.32 18 18 C7.44191344 19.51708428 7.44191344 19.51708428 3 17 C2.34 17.99 1.68 18.98 1 20 C-0.32 19.67 -1.64 19.34 -3 19 C-2.443125 17.4221875 -2.443125 17.4221875 -1.875 15.8125 C-0.93478184 11.71583518 -1.18901195 10.62197609 -3 7 C-3 6.01 -3 5.02 -3 4 C-4.98 4 -6.96 4 -9 4 C-9 3.01 -9 2.02 -9 1 C-6.03 1.33 -3.06 1.66 0 2 C0 1.34 0 0.68 0 0 Z " fill="#777779" transform="translate(138,100)"/>
<path d="M0 0 C0.33 0 0.66 0 1 0 C1 14.19 1 28.38 1 43 C2.32 43 3.64 43 5 43 C5 36.73 5 30.46 5 24 C5.33 24 5.66 24 6 24 C6 30.93 6 37.86 6 45 C4.02 45 2.04 45 0 45 C-0.33 36.09 -0.66 27.18 -1 18 C-1.66 17.67 -2.32 17.34 -3 17 C-3 15.68 -3 14.36 -3 13 C-5.97 13 -8.94 13 -12 13 C-12 12.67 -12 12.34 -12 12 C-8.37 12 -4.74 12 -1 12 C-1.020625 10.39125 -1.04125 8.7825 -1.0625 7.125 C-1.125 2.25 -1.125 2.25 0 0 Z " fill="#A7DBEF" transform="translate(100,74)"/>
<path d="M0 0 C2 2 2 2 2.25 4.9375 C2 8 2 8 0 11 C-3.1305429 11.39964378 -5.13083761 11.52149743 -7.875 9.875 C-9.54663625 7.08893958 -9.46376624 5.18011138 -9 2 C-6.12524616 -1.3006433 -4.03854228 -1.38160657 0 0 Z " fill="#4397C3" transform="translate(156,98)"/>
<path d="M0 0 C5.61 0 11.22 0 17 0 C17 1.32 17 2.64 17 4 C16.01 4 15.02 4 14 4 C14 4.66 14 5.32 14 6 C10.37 6.66 6.74 7.32 3 8 C2.67 6.68 2.34 5.36 2 4 C1.01 4 0.02 4 -1 4 C-0.67 2.68 -0.34 1.36 0 0 Z " fill="#F8FDFB" transform="translate(59,105)"/>
<path d="M0 0 C0.825 0.825 1.65 1.65 2.5 2.5 C5.097573 4.68418252 6.78994672 5.36243973 10.1875 5.375 C13.9187969 5.15031442 13.9187969 5.15031442 17 4 C17.33 3.34 17.66 2.68 18 2 C19.32 2.33 20.64 2.66 22 3 C22 3.99 22 4.98 22 6 C16.31838988 9.95242443 11.89218844 10.93137682 5 10 C1.875 8.9375 1.875 8.9375 0 7 C-0.3125 3.3125 -0.3125 3.3125 0 0 Z " fill="#3C8EB6" transform="translate(55,108)"/>
<path d="M0 0 C0.99 0.495 0.99 0.495 2 1 C4.0459055 7.23786572 4.2482422 12.97764372 4.125 19.5 C4.11597656 20.4178125 4.10695313 21.335625 4.09765625 22.28125 C4.07432432 24.52111556 4.04159235 26.76041183 4 29 C2.68 29 1.36 29 0 29 C0 19.43 0 9.86 0 0 Z " fill="#288DBE" transform="translate(0,88)"/>
<path d="M0 0 C0.99 0.66 1.98 1.32 3 2 C5.15274948 1.69159401 5.15274948 1.69159401 7 1 C6.51917969 2.1240625 6.03835937 3.248125 5.54296875 4.40625 C3.778154 9.11242267 3.45467846 13.51156713 3.3125 18.5 C3.27833984 19.32242188 3.24417969 20.14484375 3.20898438 20.9921875 C3.1275012 22.9943455 3.06205425 24.99714568 3 27 C2.01 27 1.02 27 0 27 C0 19.08 0 11.16 0 3 C-0.66 3 -1.32 3 -2 3 C-2 2.34 -2 1.68 -2 1 C-1.34 0.67 -0.68 0.34 0 0 Z " fill="#2F8CB9" transform="translate(22,89)"/>
<path d="M0 0 C0.66 0 1.32 0 2 0 C2.8981844 13.11349219 2.96398692 25.88977782 2 39 C1.34 39 0.68 39 0 39 C0 26.13 0 13.26 0 0 Z " fill="#2A8BBA" transform="translate(102,76)"/>
<path d="M0 0 C0.33 0 0.66 0 1 0 C2.33333333 4 3.66666667 8 5 12 C4.01 12.33 3.02 12.66 2 13 C1.01 14.485 1.01 14.485 0 16 C-0.66 15.67 -1.32 15.34 -2 15 C-2 13.68 -2 12.36 -2 11 C-2.31151288 8.66365343 -2.64159778 6.32961443 -3 4 C-4.98 4 -6.96 4 -9 4 C-9 3.01 -9 2.02 -9 1 C-6.03 1.33 -3.06 1.66 0 2 C0 1.34 0 0.68 0 0 Z " fill="#87868A" transform="translate(138,100)"/>
<path d="M0 0 C0.33 0 0.66 0 1 0 C1 1.98 1 3.96 1 6 C-0.32 6 -1.64 6 -3 6 C-3 7.32 -3 8.64 -3 10 C-1.68 10 -0.36 10 1 10 C1.33 17.59 1.66 25.18 2 33 C1.34 32.67 0.68 32.34 0 32 C0 25.07 0 18.14 0 11 C-1.32 11 -2.64 11 -4 11 C-4.33 11.99 -4.66 12.98 -5 14 C-6.98 10.535 -6.98 10.535 -9 7 C-8.01 6.67 -7.02 6.34 -6 6 C-5.26676204 3.98491642 -5.26676204 3.98491642 -5 2 C-3.35 2.33 -1.7 2.66 0 3 C0 2.01 0 1.02 0 0 Z " fill="#D7F5FA" transform="translate(82,81)"/>
<path d="M0 0 C7.92 0 15.84 0 24 0 C24 0.33 24 0.66 24 1 C14.595 1.495 14.595 1.495 5 2 C4.67 2.99 4.34 3.98 4 5 C4.99 5 5.98 5 7 5 C7.33 6.32 7.66 7.64 8 9 C8.886875 8.67 9.77375 8.34 10.6875 8 C13.70923347 7.08777857 15.88373706 6.81669042 19 7 C18.67 7.66 18.34 8.32 18 9 C14.27984022 10.24005326 10.86512142 10.53598363 7 10 C2.0608964 7.20833275 1.90992409 5.72977227 0 0 Z " fill="#D5F9FD" transform="translate(54,104)"/>
<path d="M0 0 C1.65 0 3.3 0 5 0 C5.33 0.66 5.66 1.32 6 2 C7.32 1.34 8.64 0.68 10 0 C9.625 2.4375 9.625 2.4375 9 5 C8.01 5.495 8.01 5.495 7 6 C6.04831317 8.85506049 5.8099054 10.90937282 5.68359375 13.88671875 C5.64169922 14.82451172 5.59980469 15.76230469 5.55664062 16.72851562 C5.51732422 17.70498047 5.47800781 18.68144531 5.4375 19.6875 C5.39431641 20.67556641 5.35113281 21.66363281 5.30664062 22.68164062 C5.20058346 25.12095546 5.09852286 27.56037113 5 30 C4.67 30 4.34 30 4 30 C3.98541748 29.44650879 3.97083496 28.89301758 3.95581055 28.32275391 C3.73373248 13.85974124 3.73373248 13.85974124 0 0 Z " fill="#53A1C1" transform="translate(0,87)"/>
<path d="M0 0 C2.475 0.99 2.475 0.99 5 2 C5 2.99 5 3.98 5 5 C5.66 5 6.32 5 7 5 C7.66 3.68 8.32 2.36 9 1 C9.66 1.66 10.32 2.32 11 3 C10.2884375 3.928125 10.2884375 3.928125 9.5625 4.875 C7.41947162 9.16105676 7.26657436 13.26600709 7 18 C6.01 18 5.02 18 4 18 C3.96261719 17.20335938 3.92523438 16.40671875 3.88671875 15.5859375 C3.52043059 9.68223426 3.21397206 5.03056497 0 0 Z " fill="#D4F6FB" transform="translate(43,88)"/>
<path d="M0 0 C2.67578125 1.8203125 2.67578125 1.8203125 5 5 C5.61342303 8.78938335 5.47160657 12.48659898 5.3125 16.3125 C5.27866211 17.85260742 5.27866211 17.85260742 5.24414062 19.42382812 C5.18537575 21.9507179 5.10327849 24.47460255 5 27 C4.67 27 4.34 27 4 27 C3.67 20.07 3.34 13.14 3 6 C1.35 5.67 -0.3 5.34 -2 5 C-2 4.34 -2 3.68 -2 3 C-4.64 3.66 -7.28 4.32 -10 5 C-8.26553147 -0.2034056 -5.03523335 -0.70493267 0 0 Z " fill="#D1F8FC" transform="translate(16,90)"/>
<path d="M0 0 C0.66 0 1.32 0 2 0 C2 1.98 2 3.96 2 6 C3.32 6.33 4.64 6.66 6 7 C5.34 7 4.68 7 4 7 C4 7.66 4 8.32 4 9 C3.34 9 2.68 9 2 9 C2.33 9.99 2.66 10.98 3 12 C3.66 11.67 4.32 11.34 5 11 C7.04055005 10.92934383 9.08334257 10.91578024 11.125 10.9375 C12.22070312 10.94652344 13.31640625 10.95554687 14.4453125 10.96484375 C15.28835937 10.97644531 16.13140625 10.98804687 17 11 C17 11.66 17 12.32 17 13 C16.03900391 12.93039063 16.03900391 12.93039063 15.05859375 12.859375 C14.19363281 12.82328125 13.32867187 12.7871875 12.4375 12.75 C11.59058594 12.70359375 10.74367188 12.6571875 9.87109375 12.609375 C6.08785251 12.94155123 6.08785251 12.94155123 0 17 C0 11.39 0 5.78 0 0 Z " fill="#D4F6FC" transform="translate(105,74)"/>
<path d="M0 0 C0.66 0.66 1.32 1.32 2 2 C-1.67410785 3.17571451 -5.16929183 3.07366746 -9 3 C-9.33 4.98 -9.66 6.96 -10 9 C-5.05 9 -0.1 9 5 9 C5.33 7.68 5.66 6.36 6 5 C6.33 6.65 6.66 8.3 7 10 C0.73 10 -5.54 10 -12 10 C-10.86259542 3.17557252 -10.86259542 3.17557252 -8 1 C-5.23749964 -0.38125018 -3.05268901 -0.19079306 0 0 Z " fill="#CFF4FB" transform="translate(67,90)"/>
<path d="M0 0 C0.99 0 1.98 0 3 0 C3 6.93 3 13.86 3 21 C2.01 20.67 1.02 20.34 0 20 C0 13.4 0 6.8 0 0 Z " fill="#2E89BB" transform="translate(84,94)"/>
<path d="M0 0 C0.66 0.33 1.32 0.66 2 1 C2 8.59 2 16.18 2 24 C0.68 24 -0.64 24 -2 24 C-2 17.07 -2 10.14 -2 3 C-1.67 3 -1.34 3 -1 3 C-0.67 7.95 -0.34 12.9 0 18 C0 12.06 0 6.12 0 0 Z " fill="#3A86AC" transform="translate(125,93)"/>
<path d="M0 0 C0 0.66 0 1.32 0 2 C-0.78375 2.28875 -1.5675 2.5775 -2.375 2.875 C-5.09671632 3.84912254 -5.09671632 3.84912254 -7 6 C-7.66 5.67 -8.32 5.34 -9 5 C-9.75241109 8.65456815 -10.40049704 12.31733897 -11 16 C-11.33 16 -11.66 16 -12 16 C-12.77277888 6.19429464 -12.77277888 6.19429464 -9.9375 1.8125 C-6.36192987 -0.39370285 -4.12981363 -0.40488369 0 0 Z " fill="#D5F1F7" transform="translate(38,90)"/>
<path d="M0 0 C1.5 1.125 1.5 1.125 3 3 C3.42478586 7.07794425 3.31282587 8.53076119 1 12 C-0.32 11.67 -1.64 11.34 -3 11 C-2.979375 9.88625 -2.95875 8.7725 -2.9375 7.625 C-2.73619282 4.16784079 -2.73619282 4.16784079 -4 2 C-2.68 2 -1.36 2 0 2 C0 1.34 0 0.68 0 0 Z " fill="#3092BE" transform="translate(197,103)"/>
<path d="M0 0 C0.66 0 1.32 0 2 0 C3.25248502 2.50497004 3.11374406 4.20853274 3.09765625 7.0078125 C3.09443359 7.99394531 3.09121094 8.98007813 3.08789062 9.99609375 C3.07951172 11.02863281 3.07113281 12.06117187 3.0625 13.125 C3.05798828 14.16527344 3.05347656 15.20554687 3.04882812 16.27734375 C3.03701952 18.85161962 3.02055075 21.42578146 3 24 C2.34 23.67 1.68 23.34 1 23 C0.97494385 22.43490723 0.9498877 21.86981445 0.92407227 21.28759766 C0.80820044 18.73316258 0.68543463 16.1791045 0.5625 13.625 C0.52318359 12.73554687 0.48386719 11.84609375 0.44335938 10.9296875 C0.38051758 9.65351562 0.38051758 9.65351562 0.31640625 8.3515625 C0.27974854 7.56604004 0.24309082 6.78051758 0.20532227 5.97119141 C0.109109 3.92476504 0.109109 3.92476504 -1 2 C-0.67 1.34 -0.34 0.68 0 0 Z " fill="#2C8EBE" transform="translate(42,92)"/>
<path d="M0 0 C0.66 0 1.32 0 2 0 C4.42857143 7.42857143 4.42857143 7.42857143 3 11 C2.34 11 1.68 11 1 11 C1 11.66 1 12.32 1 13 C-1.97 12.67 -4.94 12.34 -8 12 C-8 11.67 -8 11.34 -8 11 C-6.02 11 -4.04 11 -2 11 C-1.24758891 7.34543185 -0.59950296 3.68266103 0 0 Z " fill="#929296" transform="translate(137,89)"/>
<path d="M0 0 C1.984375 1.328125 1.984375 1.328125 4 4 C4.51556954 7.59068254 4.37526282 11.13183171 4.25 14.75 C4.23195313 15.73355469 4.21390625 16.71710938 4.1953125 17.73046875 C4.14824126 20.15463783 4.08250742 22.57682059 4 25 C1.82676182 21.06491181 1.60274394 17.48378286 1.4375 13.0625 C1.24660365 8.63126776 1.0260989 4.33335983 0 0 Z " fill="#D8F7FD" transform="translate(119,92)"/>
<path d="M0 0 C0.33 0.66 0.66 1.32 1 2 C0.67 2.66 0.34 3.32 0 4 C0.66 4 1.32 4 2 4 C1.67 5.98 1.34 7.96 1 10 C7.27 10 13.54 10 20 10 C20 10.33 20 10.66 20 11 C13.4 11 6.8 11 0 11 C0 9.68 0 8.36 0 7 C-1.32 7.33 -2.64 7.66 -4 8 C-2.25 2.25 -2.25 2.25 0 0 Z " fill="#509EC2" transform="translate(54,90)"/>
<path d="M0 0 C0.66 0 1.32 0 2 0 C3.26237731 2.52475462 3.09856404 4.31200466 3.0625 7.125 C3.05347656 8.03507812 3.04445313 8.94515625 3.03515625 9.8828125 C3.02355469 10.58148438 3.01195313 11.28015625 3 12 C2.67 11.34 2.34 10.68 2 10 C1.34 10 0.68 10 0 10 C0 10.66 0 11.32 0 12 C-1.65 12 -3.3 12 -5 12 C-5 11.01 -5 10.02 -5 9 C-3.35 9 -1.7 9 0 9 C0 6.03 0 3.06 0 0 Z " fill="#2E89B3" transform="translate(84,78)"/>
<path d="M0 0 C0.66 0 1.32 0 2 0 C2 6.6 2 13.2 2 20 C1.34 20.33 0.68 20.66 0 21 C-0.19511725 18.25034772 -0.38136433 15.50057868 -0.5625 12.75 C-0.61857422 11.97269531 -0.67464844 11.19539063 -0.73242188 10.39453125 C-0.80493164 9.26337891 -0.80493164 9.26337891 -0.87890625 8.109375 C-0.9260376 7.41811523 -0.97316895 6.72685547 -1.02172852 6.01464844 C-0.99853136 3.86382928 -0.5995764 2.05915129 0 0 Z " fill="#2D8DBA" transform="translate(124,91)"/>
<path d="M0 0 C0.99 0 1.98 0 3 0 C3 0.66 3 1.32 3 2 C3.62648437 1.97679688 4.25296875 1.95359375 4.8984375 1.9296875 C5.71570312 1.91164063 6.53296875 1.89359375 7.375 1.875 C8.18710937 1.85179688 8.99921875 1.82859375 9.8359375 1.8046875 C12 2 12 2 14 4 C9.38 4.33 4.76 4.66 0 5 C0 3.35 0 1.7 0 0 Z " fill="#288DBD" transform="translate(51,99)"/>
<path d="M0 0 C0.33 0 0.66 0 1 0 C1 5.28 1 10.56 1 16 C0.01 15.67 -0.98 15.34 -2 15 C-2 13.68 -2 12.36 -2 11 C-4.97 11 -7.94 11 -11 11 C-11 10.67 -11 10.34 -11 10 C-7.37 10 -3.74 10 0 10 C0 6.7 0 3.4 0 0 Z " fill="#C5EDF6" transform="translate(99,76)"/>
<path d="M0 0 C1.79379098 0.44994757 3.58498928 0.91024143 5.375 1.375 C6.37273437 1.63023438 7.37046875 1.88546875 8.3984375 2.1484375 C11 3 11 3 13 5 C13.125 7.625 13.125 7.625 13 10 C12.01 10.495 12.01 10.495 11 11 C10.938125 9.8553125 10.938125 9.8553125 10.875 8.6875 C10.2292266 5.73632316 10.2292266 5.73632316 7.25 4.25 C4.45852341 3.17635516 1.94934508 2.43372722 -1 2 C-0.67 1.34 -0.34 0.68 0 0 Z " fill="#D6F6FC" transform="translate(182,102)"/>
<path d="M0 0 C5.75 0.75 5.75 0.75 8 3 C6.75 4.5625 6.75 4.5625 5 6 C2.8125 5.6875 2.8125 5.6875 1 5 C0.67 3.35 0.34 1.7 0 0 Z " fill="#F7FDFA" transform="translate(184,91)"/>
<path d="M0 0 C0.66 0.99 1.32 1.98 2 3 C-1.171738 4.585869 -4.63513822 4.37866445 -8.125 4.5625 C-8.87910156 4.60568359 -9.63320312 4.64886719 -10.41015625 4.69335938 C-12.27321888 4.7994832 -14.13658524 4.90025001 -16 5 C-16 4.01 -16 3.02 -16 2 C-15.26394531 2.02320312 -14.52789062 2.04640625 -13.76953125 2.0703125 C-12.30580078 2.09738281 -12.30580078 2.09738281 -10.8125 2.125 C-9.36810547 2.15980469 -9.36810547 2.15980469 -7.89453125 2.1953125 C-4.87187222 1.9913544 -2.73230015 1.26874632 0 0 Z " fill="#D8F4FA" transform="translate(197,115)"/>
<path d="M0 0 C1.32 0.33 2.64 0.66 4 1 C4 1.99 4 2.98 4 4 C1.625 5.75 1.625 5.75 -1 7 C-1.66 6.67 -2.32 6.34 -3 6 C-2.67 5.34 -2.34 4.68 -2 4 C-2.66 3.67 -3.32 3.34 -4 3 C-3.01 2.67 -2.02 2.34 -1 2 C-0.67 1.34 -0.34 0.68 0 0 Z " fill="#5198B7" transform="translate(73,110)"/>
<path d="M0 0 C0.99 0.495 0.99 0.495 2 1 C2.51953125 3.1796875 2.51953125 3.1796875 2.8125 5.875 C2.92207031 6.75929688 3.03164063 7.64359375 3.14453125 8.5546875 C3 11 3 11 0 14 C0 9.38 0 4.76 0 0 Z " fill="#1B8FC6" transform="translate(0,88)"/>
<path d="M0 0 C1.65 0 3.3 0 5 0 C5 1.98 5 3.96 5 6 C3.35 6 1.7 6 0 6 C0 4.02 0 2.04 0 0 Z " fill="#98989A" transform="translate(150,79)"/>
<path d="M0 0 C1.32 0 2.64 0 4 0 C4 0.66 4 1.32 4 2 C4.886875 1.67 5.77375 1.34 6.6875 1 C9.70923347 0.08777857 11.88373706 -0.18330958 15 0 C14.67 0.66 14.34 1.32 14 2 C10.26274081 3.24575306 6.91147543 3.48893443 3 3 C1 1.5 1 1.5 0 0 Z " fill="#D2F3FA" transform="translate(58,111)"/>
<path d="M0 0 C6.75 0.875 6.75 0.875 9 2 C9 3.98 9 5.96 9 8 C8.67 6.68 8.34 5.36 8 4 C5.36 3.67 2.72 3.34 0 3 C0 2.01 0 1.02 0 0 Z " fill="#77777A" transform="translate(129,101)"/>
<path d="M0 0 C2.11984182 1.02572992 3.39936836 2.16864862 4.9375 3.9375 C2.9575 4.5975 0.9775 5.2575 -1.0625 5.9375 C-1.0625 5.2775 -1.0625 4.6175 -1.0625 3.9375 C-2.7125 3.9375 -4.3625 3.9375 -6.0625 3.9375 C-2.6533684 -0.0804051 -2.6533684 -0.0804051 0 0 Z " fill="#4595BE" transform="translate(39.0625,86.0625)"/>
<path d="M0 0 C0 1.65 0 3.3 0 5 C-0.66 5 -1.32 5 -2 5 C-2 4.34 -2 3.68 -2 3 C-4.64 3.66 -7.28 4.32 -10 5 C-8.20177069 -0.39468792 -5.09771267 -0.22656501 0 0 Z " fill="#CAEAF5" transform="translate(16,90)"/>
<path d="M0 0 C-1 3 -1 3 -3 4 C-4.99960012 4.039992 -7.00047242 4.04346799 -9 4 C-8.67 3.01 -8.34 2.02 -8 1 C-5.29120665 -0.35439668 -2.99066732 -0.06501451 0 0 Z " fill="#398CB5" transform="translate(18,86)"/>
<path d="M0 0 C2.97 0 5.94 0 9 0 C9 0.99 9 1.98 9 3 C6.03 3 3.06 3 0 3 C0 2.01 0 1.02 0 0 Z " fill="#3287AD" transform="translate(88,87)"/>
<path d="M0 0 C0.99 0 1.98 0 3 0 C3 2.31 3 4.62 3 7 C1.68 7 0.36 7 -1 7 C-0.67 4.69 -0.34 2.38 0 0 Z " fill="#78787A" transform="translate(166,103)"/>
<path d="M0 0 C2.4375 0.875 2.4375 0.875 3.75 2.9375 C4.0903125 3.8965625 4.0903125 3.8965625 4.4375 4.875 C3.6021875 4.38 3.6021875 4.38 2.75 3.875 C0.13465478 2.7440399 -1.7431646 2.71837026 -4.5625 2.875 C-4.5625 3.865 -4.5625 4.855 -4.5625 5.875 C-5.2225 5.875 -5.8825 5.875 -6.5625 5.875 C-6.25 4 -6.25 4 -5.5625 1.875 C-2.5625 -0.125 -2.5625 -0.125 0 0 Z " fill="#6A9DBB" transform="translate(153.5625,97.125)"/>
<path d="M0 0 C0.66 0 1.32 0 2 0 C2.185625 0.61875 2.37125 1.2375 2.5625 1.875 C4.71437233 5.05602866 7.37533763 5.19451947 11 6 C9.375 7.1875 9.375 7.1875 7 8 C3.8125 6.9375 3.8125 6.9375 1 5 C0.125 2.3125 0.125 2.3125 0 0 Z " fill="#D2F3FB" transform="translate(182,92)"/>
<path d="M0 0 C0.66 0.33 1.32 0.66 2 1 C1.67 5.29 1.34 9.58 1 14 C0.01 13.67 -0.98 13.34 -2 13 C-1.34 10.03 -0.68 7.06 0 4 C-0.66 3.67 -1.32 3.34 -2 3 C-2 2.34 -2 1.68 -2 1 C-1.34 0.67 -0.68 0.34 0 0 Z " fill="#F3FBF9" transform="translate(98,72)"/>
<path d="M0 0 C0 0.99 0 1.98 0 3 C-3.13269705 6.13269705 -5.97328423 6.05494397 -10.25 6.0625 C-12.10625 6.0315625 -12.10625 6.0315625 -14 6 C-14 5.67 -14 5.34 -14 5 C-13.11248047 4.83564453 -13.11248047 4.83564453 -12.20703125 4.66796875 C-7.58654237 3.74085597 -3.9123221 2.77648665 0 0 Z " fill="#CEF0F9" transform="translate(77,113)"/>
<path d="M0 0 C1.32 0.33 2.64 0.66 4 1 C3.67 1.99 3.34 2.98 3 4 C4.32 4.66 5.64 5.32 7 6 C5 8 5 8 2 9 C2 6.36 2 3.72 2 1 C1.34 0.67 0.68 0.34 0 0 Z " fill="#E4F4F6" transform="translate(174,111)"/>
<path d="M0 0 C1.32 0 2.64 0 4 0 C4 0.99 4 1.98 4 3 C3.01 3 2.02 3 1 3 C1 3.66 1 4.32 1 5 C-0.65 5 -2.3 5 -4 5 C-2.25 2.5 -2.25 2.5 0 0 Z " fill="#737376" transform="translate(162,111)"/>
<path d="M0 0 C0 0.33 0 0.66 0 1 C-1.11375 1.12375 -2.2275 1.2475 -3.375 1.375 C-7.03103677 1.6465813 -7.03103677 1.6465813 -9 4 C-9.99 3.34 -10.98 2.68 -12 2 C-7.72424275 -1.23921004 -5.16347713 -1.11369115 0 0 Z " fill="#CDEDF6" transform="translate(119,91)"/>
<path d="M0 0 C0.66 0.66 1.32 1.32 2 2 C-1.67410785 3.17571451 -5.16929183 3.07366746 -9 3 C-6.40257043 -0.46323942 -4.16948329 -0.44356205 0 0 Z " fill="#DFF7FC" transform="translate(67,90)"/>
<path d="M0 0 C0 0.99 0 1.98 0 3 C-0.99 2.67 -1.98 2.34 -3 2 C-4.89470816 1.9314505 -6.7916834 1.91519628 -8.6875 1.9375 C-9.68136719 1.94652344 -10.67523438 1.95554687 -11.69921875 1.96484375 C-12.45847656 1.97644531 -13.21773437 1.98804687 -14 2 C-14 1.34 -14 0.68 -14 0 C-12.2300132 -0.19532961 -10.45895721 -0.38098882 -8.6875 -0.5625 C-7.70136719 -0.66691406 -6.71523438 -0.77132812 -5.69921875 -0.87890625 C-3 -1 -3 -1 0 0 Z " fill="#D9F6FA" transform="translate(43,85)"/>
<path d="M0 0 C2.97 0 5.94 0 9 0 C9 0.66 9 1.32 9 2 C2.25 3.125 2.25 3.125 0 2 C0 1.34 0 0.68 0 0 Z " fill="#348AB5" transform="translate(186,115)"/>
<path d="M0 0 C3.465 1.485 3.465 1.485 7 3 C7 3.33 7 3.66 7 4 C2.545 4.495 2.545 4.495 -2 5 C-2.33 4.01 -2.66 3.02 -3 2 C-2.01 2 -1.02 2 0 2 C0 1.34 0 0.68 0 0 Z " fill="#4494B7" transform="translate(182,96)"/>
<path d="M0 0 C2.475 0.99 2.475 0.99 5 2 C5 2.99 5 3.98 5 5 C5.66 5 6.32 5 7 5 C6.34 6.32 5.68 7.64 5 9 C5 8.01 5 7.02 5 6 C4.34 6 3.68 6 3 6 C2.01 4.02 1.02 2.04 0 0 Z " fill="#E3F8FB" transform="translate(43,88)"/>
<path d="M0 0 C1.32 0.66 2.64 1.32 4 2 C3.34 4.31 2.68 6.62 2 9 C1.01 7.68 0.02 6.36 -1 5 C-0.34 5 0.32 5 1 5 C0.67 3.35 0.34 1.7 0 0 Z " fill="#4798C0" transform="translate(121,87)"/>
<path d="M0 0 C0.66 0 1.32 0 2 0 C2 0.99 2 1.98 2 3 C3.98 3 5.96 3 8 3 C6.68 4.32 5.36 5.64 4 7 C3.67 6.01 3.34 5.02 3 4 C0.49552484 2.78130071 0.49552484 2.78130071 -2 2 C-1.34 1.34 -0.68 0.68 0 0 Z " fill="#C4EBF6" transform="translate(20,85)"/>
<path d="M0 0 C1.98 0 3.96 0 6 0 C6.33 1.32 6.66 2.64 7 4 C6.401875 3.79375 5.80375 3.5875 5.1875 3.375 C2.71549154 2.69328085 2.71549154 2.69328085 0 5 C0 3.35 0 1.7 0 0 Z " fill="#F7F9F9" transform="translate(129,105)"/>
<path d="M0 0 C1.32 0.33 2.64 0.66 4 1 C3.67 1.99 3.34 2.98 3 4 C3.99 4 4.98 4 6 4 C6 4.66 6 5.32 6 6 C4.35 5.67 2.7 5.34 1 5 C0.67 3.35 0.34 1.7 0 0 Z " fill="#E4F8FC" transform="translate(55,105)"/>
<path d="M0 0 C0.66 0.33 1.32 0.66 2 1 C2 1.66 2 2.32 2 3 C1.01 3.495 1.01 3.495 0 4 C0 5.65 0 7.3 0 9 C-0.99 9 -1.98 9 -3 9 C-2.979375 8.21625 -2.95875 7.4325 -2.9375 6.625 C-2.81315937 4.01885039 -2.81315937 4.01885039 -4 2 C-2.68 2 -1.36 2 0 2 C0 1.34 0 0.68 0 0 Z " fill="#519FC1" transform="translate(197,103)"/>
<path d="M0 0 C1.60495567 0.11442461 3.20898119 0.24194694 4.8125 0.375 C5.70582031 0.44460937 6.59914062 0.51421875 7.51953125 0.5859375 C10 1 10 1 13 3 C11.68 3.33 10.36 3.66 9 4 C9 3.34 9 2.68 9 2 C7.6078125 2.3403125 7.6078125 2.3403125 6.1875 2.6875 C5.135625 2.790625 4.08375 2.89375 3 3 C1.30078125 1.51953125 1.30078125 1.51953125 0 0 Z " fill="#CBECF5" transform="translate(185,90)"/>
<path d="M0 0 C1.32 0.66 2.64 1.32 4 2 C2.37660195 3.70884005 0.70680947 5.37446717 -1 7 C-1.66 7 -2.32 7 -3 7 C-3 6.34 -3 5.68 -3 5 C-2.34 5 -1.68 5 -1 5 C-0.67 3.35 -0.34 1.7 0 0 Z " fill="#8B8B8C" transform="translate(167,85)"/>
<path d="M0 0 C2.475 0.99 2.475 0.99 5 2 C4.01 2.495 4.01 2.495 3 3 C3 3.66 3 4.32 3 5 C1.68 4.67 0.36 4.34 -1 4 C-0.67 2.68 -0.34 1.36 0 0 Z " fill="#478DAF" transform="translate(178,111)"/>
<path d="M0 0 C0.99 0.66 1.98 1.32 3 2 C2.67 3.32 2.34 4.64 2 6 C0.68 6.33 -0.64 6.66 -2 7 C-2 6.34 -2 5.68 -2 5 C-1.34 5 -0.68 5 0 5 C0 3.35 0 1.7 0 0 Z " fill="#F7FBF4" transform="translate(79,110)"/>
<path d="M0 0 C2.64 0 5.28 0 8 0 C7.01 0.495 7.01 0.495 6 1 C6 1.66 6 2.32 6 3 C3.03 2.505 3.03 2.505 0 2 C0 1.34 0 0.68 0 0 Z " fill="#338BB1" transform="translate(182,100)"/>
<path d="M0 0 C5.75 -0.125 5.75 -0.125 8 1 C8 2.65 8 4.3 8 6 C7.34 5.67 6.68 5.34 6 5 C6.33 4.34 6.66 3.68 7 3 C4.69 2.34 2.38 1.68 0 1 C0 0.67 0 0.34 0 0 Z " fill="#CFF4FB" transform="translate(192,86)"/>
<path d="M0 0 C3.96 0 7.92 0 12 0 C10.02 0.99 10.02 0.99 8 2 C7.01 2.66 6.02 3.32 5 4 C5 3.01 5 2.02 5 1 C3.35 1 1.7 1 0 1 C0 0.67 0 0.34 0 0 Z " fill="#C5EAF6" transform="translate(0,86)"/>
<path d="M0 0 C0.33 0 0.66 0 1 0 C1.33 2.64 1.66 5.28 2 8 C-0.64 7.67 -3.28 7.34 -6 7 C-6 6.67 -6 6.34 -6 6 C-4.02 6 -2.04 6 0 6 C0 4.02 0 2.04 0 0 Z " fill="#EFF3F3" transform="translate(176,99)"/>
<path d="M0 0 C0.66 0.99 1.32 1.98 2 3 C1.01 4.98 0.02 6.96 -1 9 C-1.33 9 -1.66 9 -2 9 C-2.125 5.625 -2.125 5.625 -2 2 C-1.34 1.34 -0.68 0.68 0 0 Z " fill="#4E9ABC" transform="translate(107,89)"/>
<path d="M0 0 C1.32 0.33 2.64 0.66 4 1 C4 3.31 4 5.62 4 8 C1.53721199 5.53721199 1.00228745 3.29323018 0 0 Z " fill="#D2F1F7" transform="translate(124,88)"/>
</svg>
