<?xml version="1.0" standalone="no"?>
<!DOCTYPE svg PUBLIC "-//W3C//DTD SVG 20010904//EN"
 "http://www.w3.org/TR/2001/REC-SVG-20010904/DTD/svg10.dtd">
<svg version="1.0" xmlns="http://www.w3.org/2000/svg"
 width="300.000000pt" height="475.000000pt" viewBox="0 0 300.000000 475.000000"
 preserveAspectRatio="xMidYMid meet">
<metadata>
Created by potrace 1.16, written by Peter Selinger 2001-2019
</metadata>
<g transform="translate(0.000000,475.000000) scale(0.100000,-0.100000)"
fill="#000000" stroke="none">
<path d="M0 2375 l0 -2375 1500 0 1500 0 0 2375 0 2375 -1500 0 -1500 0 0
-2375z m2130 1530 l625 -625 -628 -628 -627 -627 -627 627 -628 628 625 625
c344 344 627 625 630 625 3 0 286 -281 630 -625z m238 -2062 c3 -28 0 -32 -25
-35 -25 -3 -28 -7 -31 -45 l-3 -43 40 0 c40 0 41 1 41 35 0 36 3 39 68 59 21
7 22 5 22 -43 0 -48 2 -51 25 -51 22 0 25 -4 25 -35 0 -31 -3 -35 -25 -35
l-26 0 3 -92 c3 -88 4 -93 26 -96 18 -3 22 -10 22 -38 l0 -34 -48 0 c-76 0
-86 18 -90 151 l-4 109 -39 0 -39 0 0 -130 0 -130 -45 0 -45 0 0 130 c0 123
-1 130 -20 130 -16 0 -20 7 -20 35 0 28 4 35 20 35 17 0 20 7 20 40 0 46 21
94 47 109 10 6 36 10 58 8 37 -2 40 -4 43 -34z m-1516 10 c41 -37 3 -105 -50
-87 -21 7 -28 17 -30 44 -5 53 41 78 80 43z m-407 -15 c3 -7 20 -80 38 -161
l34 -149 33 161 34 161 63 0 63 0 0 -230 0 -230 -40 0 -40 0 -1 163 -1 162
-36 -160 -37 -160 -42 -3 c-33 -2 -42 1 -47 15 -4 16 -59 251 -69 298 -3 11
-5 -55 -6 -147 l-1 -168 -35 0 -35 0 0 230 0 230 60 0 c39 0 62 -4 65 -12z
m2247 -75 c22 -20 23 -70 1 -95 -37 -41 -115 -10 -115 47 0 56 72 87 114 48z
m-1601 -43 c13 -7 19 -21 19 -44 0 -34 0 -34 -40 -29 -38 5 -41 4 -55 -30 -19
-47 -19 -90 1 -129 14 -28 19 -30 55 -25 39 5 39 5 39 -28 0 -37 -12 -45 -72
-45 -53 0 -92 29 -114 85 -20 55 -15 140 13 188 31 53 107 81 154 57z m247
-37 c3 -41 3 -42 -29 -41 -50 2 -59 -20 -59 -144 l0 -108 -45 0 -45 0 0 165 0
165 45 0 c33 0 45 -4 45 -15 0 -12 5 -10 21 6 11 11 30 19 42 17 18 -2 23 -11
25 -45z m228 22 c36 -23 54 -74 54 -150 0 -110 -44 -165 -131 -165 -68 0 -115
43 -128 115 -11 57 1 136 25 173 33 51 123 64 180 27z m253 19 c28 -6 31 -10
31 -44 l0 -38 -35 10 c-26 9 -38 8 -49 -1 -21 -18 -7 -43 39 -70 47 -27 68
-75 54 -125 -12 -44 -50 -66 -113 -66 -67 0 -76 6 -76 51 0 37 1 39 20 29 26
-14 82 -9 87 7 3 7 -6 20 -18 30 -69 54 -89 81 -89 118 0 48 15 74 53 90 36
16 52 18 96 9z m287 -19 c36 -23 56 -79 56 -151 -1 -106 -48 -164 -132 -164
-86 0 -130 56 -130 167 0 82 22 130 71 156 40 21 96 18 135 -8z m-1246 -151
l0 -165 -42 3 -43 3 -3 163 -2 162 45 0 45 0 0 -166z m890 -565 c0 -176 -1
-190 -17 -187 -16 3 -18 21 -21 191 -2 182 -2 187 18 187 19 0 20 -6 20 -191z
m540 116 c3 -41 8 -65 13 -57 5 6 26 12 48 12 34 0 42 -5 59 -32 13 -22 20
-51 20 -86 0 -102 -47 -159 -111 -135 -17 7 -31 7 -35 2 -3 -5 -12 -9 -20 -9
-12 0 -14 31 -14 191 0 176 1 190 18 187 14 -3 18 -17 22 -73z m228 -112 c-3
-170 -5 -188 -20 -191 -17 -3 -18 11 -18 187 0 185 1 191 20 191 20 0 20 -5
18 -187z m-2137 27 l46 -140 44 141 c41 135 44 140 69 137 l25 -3 0 -175 c0
-157 -2 -175 -17 -178 -16 -3 -18 10 -20 130 l-3 133 -43 -132 c-27 -85 -48
-133 -57 -133 -8 0 -30 49 -58 133 l-45 132 -1 -133 c-1 -121 -3 -133 -18
-130 -16 3 -18 20 -21 168 -1 90 0 170 2 177 3 7 16 13 29 13 21 0 27 -13 68
-140z m939 -5 l37 -140 39 143 c35 127 41 142 61 142 l21 0 -20 -72 c-67 -239
-83 -283 -103 -283 -17 0 -26 23 -62 150 -61 217 -59 207 -32 203 20 -3 26
-18 59 -143z m-240 80 c0 -31 3 -35 26 -35 33 0 30 -33 -4 -38 -21 -3 -22 -8
-22 -93 0 -89 0 -89 26 -89 35 0 29 -34 -7 -38 -47 -6 -59 19 -59 123 0 84 -2
93 -20 98 -11 3 -20 10 -20 17 0 7 9 14 20 17 14 4 20 14 20 32 0 31 7 41 27
41 8 0 13 -12 13 -35z m-300 -60 c49 -52 36 -195 -19 -225 -25 -13 -67 -13
-93 1 -62 34 -63 202 -1 238 34 20 88 13 113 -14z m198 2 c3 -16 -1 -17 -30
-12 -25 5 -38 2 -47 -9 -16 -19 -6 -53 19 -61 26 -8 70 -62 70 -86 0 -30 -44
-69 -79 -69 -41 0 -61 9 -61 29 0 13 8 16 41 13 71 -7 74 34 5 83 -50 37 -60
81 -26 115 27 27 103 25 108 -3z m654 6 c15 -14 18 -32 18 -130 0 -92 -3 -113
-14 -113 -8 0 -18 5 -21 10 -4 7 -12 7 -25 0 -49 -26 -100 6 -100 63 0 45 17
65 70 81 48 14 61 36 39 62 -12 15 -35 15 -71 -1 -14 -5 -18 -2 -18 13 0 24
12 30 64 31 24 1 47 -6 58 -16z m218 -93 l5 -105 30 -3 c45 -6 55 18 55 125 0
86 1 93 20 93 19 0 20 -7 20 -130 0 -123 -1 -130 -20 -130 -11 0 -20 7 -20 16
0 14 -2 14 -22 0 -31 -22 -64 -20 -88 4 -18 18 -20 33 -20 131 0 100 2 110 18
107 14 -3 18 -19 22 -108z m324 88 c12 -17 16 -49 16 -130 0 -101 -1 -108 -20
-108 -11 0 -20 7 -20 16 0 14 -2 14 -22 0 -49 -35 -102 -4 -102 59 0 44 26 72
78 82 44 9 58 32 35 59 -12 15 -40 15 -81 -1 -13 -5 -18 -2 -18 8 0 23 29 36
77 37 32 0 45 -5 57 -22z m545 -4 c14 -18 21 -41 21 -70 l0 -44 -70 0 c-38 0
-70 -2 -70 -5 0 -3 7 -22 15 -42 15 -35 16 -35 65 -31 53 5 69 -11 31 -32 -94
-50 -181 68 -136 185 19 52 36 64 87 65 28 0 41 -6 57 -26z m-1559 -369 c0 -8
-9 -15 -20 -15 -23 0 -40 -28 -40 -64 0 -21 5 -26 25 -26 18 0 25 -5 25 -20 0
-15 -7 -20 -25 -20 l-25 0 0 -111 c0 -100 -2 -110 -17 -107 -16 3 -18 18 -21
111 -2 86 -6 107 -17 107 -8 0 -15 9 -15 20 0 11 7 20 15 20 10 0 15 10 15 31
0 32 15 69 34 81 20 14 66 9 66 -7z m1370 -176 c0 -176 -1 -190 -17 -187 -16
3 -18 21 -21 178 -1 96 0 180 2 187 3 7 12 13 21 13 13 0 15 -26 15 -191z
m-1920 156 c34 -17 44 -48 41 -118 -2 -42 -51 -87 -95 -87 l-35 0 -3 -67 c-3
-60 -5 -68 -23 -68 -19 0 -20 8 -23 165 -1 90 0 170 2 177 7 18 100 17 136 -2z
m1165 -10 c0 -30 -39 -27 -43 3 -3 20 0 23 20 20 15 -2 23 -10 23 -23z m-1035
-87 c0 -9 3 -9 12 0 7 7 25 12 40 12 21 0 28 -5 28 -20 0 -15 -7 -20 -29 -20
-17 0 -33 -6 -38 -12 -4 -7 -10 -56 -13 -108 -4 -80 -8 -95 -22 -98 -16 -3
-18 8 -18 127 0 124 1 131 20 131 11 0 20 -5 20 -12z m244 -19 c46 -54 31
-189 -23 -219 -57 -30 -128 15 -138 87 -13 98 25 163 96 163 32 0 44 -6 65
-31z m335 5 c14 -18 21 -41 21 -70 l0 -44 -65 0 c-62 0 -65 -1 -65 -24 0 -40
27 -59 77 -53 32 3 43 1 43 -9 0 -37 -86 -45 -125 -11 -50 43 -52 162 -4 213
32 34 90 33 118 -2z m189 2 c3 -16 0 -18 -23 -12 -76 19 -89 -34 -20 -82 37
-26 45 -37 45 -62 0 -47 -16 -68 -56 -76 -39 -7 -84 8 -84 29 0 9 14 13 48 13
41 -1 47 2 50 21 2 14 -6 27 -23 40 -52 35 -65 53 -65 85 0 48 25 70 79 66 36
-2 47 -7 49 -22z m170 2 c3 -14 -3 -16 -30 -11 -24 3 -38 0 -47 -11 -16 -19
-6 -53 19 -61 26 -8 70 -62 70 -86 0 -30 -44 -69 -79 -69 -42 0 -61 9 -61 30
0 15 7 17 43 13 34 -4 45 -2 50 11 9 24 0 38 -46 71 -51 37 -61 81 -27 115 27
27 103 25 108 -2z m92 -109 c0 -119 -2 -130 -17 -127 -16 3 -18 19 -21 131 -2
122 -2 127 18 127 19 0 20 -6 20 -131z m217 92 c42 -62 26 -179 -28 -206 -84
-44 -145 13 -137 131 5 85 32 116 97 112 39 -3 49 -8 68 -37z m110 28 c8 -8
13 -8 17 0 4 6 25 11 46 11 61 0 71 -24 68 -151 -3 -90 -5 -104 -20 -107 -16
-3 -18 7 -18 93 0 101 -9 135 -38 135 -40 -1 -47 -16 -52 -122 -4 -88 -8 -103
-22 -106 -16 -3 -18 8 -18 127 0 101 3 131 13 131 7 0 18 -5 24 -11z m317 -5
c23 -23 27 -48 24 -149 -3 -76 -6 -90 -20 -93 -11 -2 -18 3 -18 13 0 15 -2 15
-22 1 -33 -23 -64 -19 -87 10 -42 54 -13 113 64 133 47 12 54 25 32 56 -14 18
-37 18 -79 0 -13 -5 -18 -3 -18 8 0 36 94 51 124 21z"/>
<path d="M700 3305 l0 -375 55 0 55 0 1 308 c1 288 2 303 15 237 7 -38 39
-177 71 -308 l57 -238 65 3 64 3 44 190 c24 105 54 242 67 305 l25 115 0 -307
1 -308 60 0 60 0 0 375 0 375 -98 0 -97 0 -52 -242 c-29 -134 -55 -263 -59
-288 l-7 -45 -9 45 c-8 38 -98 437 -115 508 -5 21 -10 22 -104 22 l-99 0 0
-375z"/>
<path d="M1427 3538 c18 -79 60 -246 92 -373 l57 -230 76 -3 76 -3 20 78 c11
43 53 204 92 358 39 154 73 288 76 298 5 15 -3 17 -65 17 -58 0 -71 -3 -75
-17 -6 -20 -100 -474 -112 -538 l-7 -40 -12 70 c-7 39 -34 172 -60 298 l-48
227 -72 0 -72 0 34 -142z"/>
<path d="M1970 3306 l0 -376 70 0 70 0 0 129 0 128 76 5 c91 6 142 36 189 113
28 45 30 56 30 139 0 109 -22 161 -87 203 -40 27 -47 28 -195 31 l-153 4 0
-376z m261 225 c26 -27 29 -36 29 -96 0 -60 -3 -69 -29 -96 -24 -24 -38 -29
-75 -29 l-46 0 0 125 0 125 46 0 c37 0 51 -5 75 -29z"/>
<path d="M2646 1760 c29 -11 38 -28 25 -44 -8 -10 -8 -16 3 -25 11 -9 15 -8
20 5 3 8 6 20 6 25 0 16 -39 49 -57 48 -14 0 -14 -2 3 -9z"/>
<path d="M2598 1744 c-26 -26 9 -84 50 -84 20 0 21 2 10 20 -16 24 -28 26 -28
3 0 -30 -18 0 -22 35 -2 19 -6 30 -10 26z"/>
<path d="M2630 1730 c0 -5 5 -10 10 -10 6 0 10 5 10 10 0 6 -4 10 -10 10 -5 0
-10 -4 -10 -10z"/>
<path d="M1462 1638 c-15 -15 -16 -132 -2 -159 6 -10 19 -19 30 -19 28 0 40
30 40 102 0 65 -11 88 -40 88 -9 0 -21 -5 -28 -12z"/>
<path d="M2000 1631 c-5 -11 -10 -45 -10 -76 0 -65 13 -95 40 -95 11 0 24 9
30 19 14 27 13 144 -2 159 -18 18 -46 14 -58 -7z"/>
<path d="M2307 1012 c-12 -13 -17 -37 -17 -84 0 -72 12 -92 52 -86 29 4 48 42
48 98 0 76 -45 114 -83 72z"/>
<path d="M686 1014 c-22 -21 -30 -57 -23 -105 6 -49 22 -69 53 -69 38 0 57 40
52 107 -6 74 -44 105 -82 67z"/>
<path d="M1558 923 c-20 -5 -33 -44 -24 -68 7 -18 47 -20 64 -3 7 7 12 27 12
45 0 34 -8 38 -52 26z"/>
<path d="M2092 923 c-42 -17 -32 -83 13 -83 27 0 45 25 45 64 0 21 -5 26 -22
25 -13 0 -29 -3 -36 -6z"/>
<path d="M2626 1014 c-9 -8 -16 -26 -16 -40 0 -22 4 -24 45 -24 39 0 45 3 45
21 0 52 -41 76 -74 43z"/>
<path d="M520 550 l0 -70 28 0 c38 0 62 28 62 73 0 43 -21 67 -61 67 l-29 0 0
-70z"/>
<path d="M885 510 c-23 -25 -30 -107 -13 -140 8 -15 24 -26 40 -28 37 -4 58
30 58 93 0 82 -43 121 -85 75z"/>
<path d="M1227 512 c-10 -10 -17 -28 -17 -40 0 -19 5 -22 45 -22 43 0 45 1 45
28 0 50 -42 69 -73 34z"/>
<path d="M1894 522 c-35 -23 -46 -120 -18 -160 17 -25 56 -29 73 -9 28 34 25
132 -5 162 -17 16 -33 19 -50 7z"/>
<path d="M2330 412 c-18 -14 -22 -25 -16 -45 13 -54 86 -20 86 40 0 29 -37 31
-70 5z"/>
</g>
</svg>
