<?xml version="1.0" encoding="UTF-8"?>
<svg version="1.1" xmlns="http://www.w3.org/2000/svg" width="474" height="248">
<path d="M0 0 C156.42 0 312.84 0 474 0 C474 81.84 474 163.68 474 248 C317.58 248 161.16 248 0 248 C0 166.16 0 84.32 0 0 Z " fill="#FCFCFB" transform="translate(0,0)"/>
<path d="M0 0 C81.18 0 162.36 0 246 0 C246 10.23 246 20.46 246 31 C243.03765381 31.01981934 240.07530762 31.03963867 237.02319336 31.06005859 C227.22828413 31.12700846 217.43348055 31.20464749 207.63869381 31.28752708 C201.70096606 31.33744216 195.76325569 31.38377279 189.82543945 31.421875 C184.09358839 31.45878805 178.36188442 31.50516466 172.63015938 31.55806351 C170.44496812 31.57657541 168.25974538 31.59169516 166.07450676 31.60334396 C163.01037455 31.62026107 159.94657685 31.64930974 156.88256836 31.68115234 C155.98201218 31.68331253 155.08145599 31.68547272 154.15361023 31.68769836 C147.27674545 31.77880634 140.52754779 32.5182045 135 37 C130.48286844 42.59474791 130.55868315 48.6974652 130.56640625 55.6328125 C131.13930264 60.08179165 132.10166681 63.19091428 135.42092896 66.35412598 C142.04214191 71.16073563 148.95389222 70.67867313 156.83984375 70.6015625 C158.28985276 70.60707737 159.7398539 70.61521515 161.18983459 70.62582397 C164.99909299 70.64862745 168.80777619 70.64453577 172.61706543 70.63201904 C179.39974526 70.61150223 186.18226274 70.62330999 192.96484375 70.6640625 C193.6850363 70.66802095 194.40522884 70.67197941 195.14724541 70.67605782 C212.05978413 70.79962665 231.10180119 71.54656667 244 84 C252.30821265 93.84677055 254.69790478 104.70706632 254.57641602 117.36035156 C254.56255575 119.36692917 254.59673249 121.36881352 254.63476562 123.375 C254.61474552 136.90859128 250.60816953 147.91351075 241.5625 158 C226.88658279 172.08349487 204.38285006 171.45433453 185.39208984 171.38818359 C183.39571345 171.39226055 181.39933932 171.39760867 179.40296936 171.40411377 C174.03737211 171.4176578 168.6719501 171.4125432 163.30635023 171.40297651 C157.65911397 171.39531442 152.01189147 171.40244334 146.36465454 171.40713501 C136.88825826 171.41257276 127.41193243 171.40545227 117.93554688 171.39111328 C107.01662061 171.3747812 96.0978624 171.38008742 85.17894018 171.3965925 C75.76098083 171.41025278 66.34307175 171.41210518 56.92510569 171.40427649 C51.31893261 171.39962607 45.71283825 171.39890222 40.10667038 171.40888596 C34.83528042 171.41762015 29.56410501 171.41141713 24.29273796 171.39420319 C22.37082842 171.39027295 20.44890048 171.39131209 18.52699852 171.39799118 C4.37268023 171.44260601 -10.65280317 171.33829453 -23.375 164.3125 C-24.03508057 163.96292236 -24.69516113 163.61334473 -25.37524414 163.25317383 C-42.0606465 154.14814876 -52.84099842 140.08638442 -58.25 121.9375 C-58.88529582 119.63873223 -59.46247477 117.32357497 -60 115 C-60.17805176 114.24533447 -60.35610352 113.49066895 -60.53955078 112.71313477 C-62.33618186 104.20281927 -62.39886184 95.7178923 -62.375 87.0625 C-62.37412384 86.28820648 -62.37324768 85.51391296 -62.37234497 84.71615601 C-62.27813968 59.46685722 -57.29094233 37.28188395 -39.6875 18.25 C-31.88312399 10.91914793 -23.1763499 7.00142861 -13.08984375 3.9453125 C-10.12530839 3.13181122 -10.12530839 3.13181122 -8 2 C-5.3276379 1.86584528 -2.67749512 1.95681459 0 2 C0 1.34 0 0.68 0 0 Z " fill="#5A5A52" transform="translate(218,0)"/>
<path d="M0 0 C34.98 0 69.96 0 106 0 C106 0.66 106 1.32 106 2 C106.58265625 2.01417969 107.1653125 2.02835937 107.765625 2.04296875 C119.11717708 2.70335779 130.03060821 7.32261058 137.6796875 15.87890625 C145.74343372 26.12909112 148.38685307 36.28405541 148.3125 49.1875 C148.30686035 50.20618164 148.3012207 51.22486328 148.29541016 52.27441406 C148.07467723 65.99482318 145.3314051 78.49269845 135.6875 88.875 C129.90673631 94.21996332 121.96569522 99 114 99 C121.77357712 112.1931304 129.59155521 125.35794702 137.48535156 138.47949219 C139.07373287 141.12269796 140.65839838 143.76810279 142.2421875 146.4140625 C143.04450806 147.75380127 143.04450806 147.75380127 143.86303711 149.12060547 C144.87740307 150.81462336 145.8912761 152.50893657 146.90454102 154.20361328 C149.56571202 158.6449138 152.27711802 163.04029889 155.10180664 167.37988281 C156 169 156 169 156 171 C142.47 171 128.94 171 115 171 C108.3360161 158.78269618 108.3360161 158.78269618 105.9921875 154.4140625 C99.70297939 142.72594978 93.28677447 131.12693902 86.65625 119.62890625 C85.77013025 118.08634117 84.88471451 116.54337146 84 115 C83.52046875 114.16710449 83.0409375 113.33420898 82.546875 112.47607422 C82.08796875 111.66799316 81.6290625 110.85991211 81.15625 110.02734375 C80.74181641 109.301521 80.32738281 108.57569824 79.90039062 107.82788086 C79 106 79 106 79 104 C64.81 104 50.62 104 36 104 C36 126.11 36 148.22 36 171 C24.12 171 12.24 171 0 171 C0 114.57 0 58.14 0 0 Z " fill="#5B5B53" transform="translate(2,0)"/>
<path d="M0 0 C18.48 0 36.96 0 56 0 C56 0.66 56 1.32 56 2 C54.90042969 2.20753906 53.80085937 2.41507812 52.66796875 2.62890625 C41.18980732 4.95729985 31.12915702 8.01037875 24 18 C21.71419508 22.21392887 19.83540832 26.573427 18 31 C17.47986328 32.24716797 17.47986328 32.24716797 16.94921875 33.51953125 C11.93170628 48.23915314 13.78602899 65.97044593 20.3203125 79.79296875 C25.88669698 90.08925916 34.84058308 94.85944715 45.71733093 98.4581604 C55.03709451 100.67040266 65.19674644 100.14225364 74.71875 100.17578125 C77.30599783 100.19896659 79.89323746 100.22308338 82.48046875 100.24804688 C86.49566549 100.28314732 90.51055189 100.31422799 94.52587891 100.32592773 C98.44469745 100.34149952 102.36266089 100.38174143 106.28125 100.42578125 C108.05526184 100.42291862 108.05526184 100.42291862 109.8651123 100.41999817 C117.88877893 100.53624153 125.70431086 101.4394885 133 105 C138.15047683 110.66045525 139.4170933 114.63558959 139.24609375 122.1796875 C138.7487522 127.8793795 137.29695857 131.57650888 133.4375 135.8125 C124.22595966 142.44062338 112.55130239 141.42241644 101.765625 141.37231445 C99.92817987 141.37474569 98.09073608 141.37846823 96.2532959 141.38337708 C91.28636154 141.39274418 86.3196257 141.38339587 81.35270691 141.37004495 C76.14171336 141.35868532 70.93072894 141.36284144 65.71972656 141.36479187 C56.97067035 141.36567342 48.22169183 141.35462352 39.47265625 141.33618164 C29.37404864 141.3150162 19.27555478 141.31150501 9.17692947 141.3177436 C-0.55886071 141.32344891 -10.29461106 141.31777783 -20.03039551 141.30657005 C-24.16411073 141.30193953 -28.29780146 141.3010435 -32.43151855 141.3031559 C-37.3038546 141.30504702 -42.17607576 141.29687182 -47.04838562 141.2810955 C-48.83090235 141.27687262 -50.61343078 141.27598858 -52.39595032 141.27878571 C-80.57202632 141.31627482 -80.57202632 141.31627482 -90.078125 131.953125 C-98.02415386 122.27098899 -100 111.31665175 -100 99 C-67 99 -34 99 0 99 C0 89.43 0 79.86 0 70 C-32.67 70 -65.34 70 -99 70 C-99 58.84833207 -97.42931495 49.54801727 -89.96875 40.93359375 C-80.21325079 31.35229988 -68.71517093 29.6055291 -55.42523193 29.66011047 C-54.00744268 29.67542021 -52.58965704 29.69106802 -51.171875 29.70703125 C-49.68687371 29.71264192 -48.20186679 29.71690504 -46.71685791 29.71989441 C-42.85020005 29.73122768 -38.98389225 29.76059209 -35.11737061 29.79400635 C-30.45576713 29.83042231 -25.79404514 29.8439234 -21.13233948 29.86136627 C-14.08798451 29.8902393 -7.04439425 29.94780498 0 30 C0 20.1 0 10.2 0 0 Z " fill="#FBFBFB" transform="translate(296,0)"/>
<path d="M0 0 C3.3 0 6.6 0 10 0 C10 37.29 10 74.58 10 113 C9.34 113 8.68 113 8 113 C7.93683594 112.22398438 7.87367188 111.44796875 7.80859375 110.6484375 C6.64516287 100.38575248 3.47191061 89.57691746 -4.4375 82.375 C-6.1843157 81.08369418 -6.1843157 81.08369418 -8 80 C-8.56976563 79.62746094 -9.13953125 79.25492187 -9.7265625 78.87109375 C-19.47338294 73.25111856 -32.75580051 71.87847747 -43.81811523 71.87402344 C-45.13315536 71.87021667 -46.4481955 71.86640991 -47.80308533 71.86248779 C-48.84289708 71.862197 -48.84289708 71.862197 -49.90371513 71.86190033 C-53.61623702 71.85754958 -57.32859126 71.82645301 -61.04101562 71.80078125 C-65.74590356 71.77044091 -70.45052242 71.74768297 -75.15551758 71.74951172 C-78.97646754 71.75030179 -82.79661673 71.72682084 -86.61735725 71.6876297 C-88.06486466 71.67722231 -89.51246507 71.67560668 -90.95998955 71.68328094 C-99.14099951 71.7223435 -105.72131457 71.70902395 -112 66 C-116.72167977 60.82138348 -116.34559993 55.23131206 -116.26953125 48.5234375 C-115.91415267 43.87776393 -115.0757757 40.54699482 -112 37 C-104.94087558 31.13458973 -98.18385324 30.85146487 -89.34448242 30.88647461 C-88.3781488 30.88632858 -87.41181519 30.88618256 -86.41619873 30.8860321 C-83.22926573 30.88672752 -80.04239152 30.8945026 -76.85546875 30.90234375 C-74.64301078 30.90420925 -72.4305524 30.90563253 -70.21809387 30.90663147 C-64.40006364 30.91044628 -58.58205844 30.92026775 -52.76403809 30.93133545 C-46.82511738 30.94157182 -40.88619262 30.94613386 -34.94726562 30.95117188 C-23.29816432 30.96189093 -11.64908816 30.97947937 0 31 C0 20.77 0 10.54 0 0 Z " fill="#FDFCFB" transform="translate(464,0)"/>
<path d="M0 0 C36.96 0 73.92 0 112 0 C112 10.23 112 20.46 112 31 C99.67758653 31.15619512 87.35513536 31.30516349 75.03250217 31.4429636 C69.30440519 31.50727542 63.57636948 31.57420415 57.84838867 31.64819336 C25.87504191 32.05866219 -6.03517614 31.86517166 -38 31 C-36.30778834 21.84789147 -31.92956791 14.77037523 -24.2890625 9.4296875 C-16.78937001 4.74557922 -9.04778435 1.41627198 0 2 C0 1.34 0 0.68 0 0 Z " fill="#F48A1F" transform="translate(352,0)"/>
<path d="M0 0 C34.98 0 69.96 0 106 0 C106 0.66 106 1.32 106 2 C106.58265625 2.01417969 107.1653125 2.02835937 107.765625 2.04296875 C119.38871249 2.71915466 129.73402542 7.53233096 137.8203125 15.87890625 C142.00269447 20.84913227 142.1068355 23.61010429 142 30 C128.50583504 30.15578578 115.01160787 30.3039059 101.5172596 30.4429636 C95.24730025 30.50780024 88.97738746 30.57501069 82.70751953 30.64819336 C55.09896202 30.96874978 27.59355111 31.07849722 0 30 C0 20.1 0 10.2 0 0 Z " fill="#E72A26" transform="translate(2,0)"/>
<path d="M0 0 C25.74 0 51.48 0 78 0 C78 9.9 78 19.8 78 30 C73.24464844 30.06058594 68.48929687 30.12117188 63.58984375 30.18359375 C60.56835085 30.22411229 57.54686625 30.26489785 54.52539062 30.30664062 C49.73481162 30.3727989 44.94423365 30.43799487 40.15356445 30.49731445 C36.28909384 30.54522761 32.42470598 30.59757793 28.56033516 30.65294075 C27.08965695 30.67324288 25.61895616 30.691975 24.14823723 30.70907402 C22.08043177 30.7333893 20.01277873 30.76340326 17.94506836 30.79467773 C16.77036484 30.81022202 15.59566132 30.8257663 14.38536072 30.84178162 C10.87063076 31.00604621 7.48058514 31.49870549 4 32 C2.29879995 32.0489944 0.59552183 32.05363447 -1.10571289 32.00585938 C-2.04681412 31.9825354 -2.98791534 31.95921143 -3.95753479 31.93518066 C-5.45001991 31.88992249 -5.45001991 31.88992249 -6.97265625 31.84375 C-8.01393173 31.81776733 -9.05520721 31.79178467 -10.1280365 31.76501465 C-13.43969606 31.68222044 -16.75108467 31.59201722 -20.0625 31.5 C-24.42824601 31.37887901 -28.79409383 31.26529537 -33.16015625 31.15625 C-34.65567772 31.11099182 -34.65567772 31.11099182 -36.18141174 31.06481934 C-40.92946497 30.94674952 -45.32838145 30.97463056 -50 32 C-40.99137832 17.25861906 -29.4922328 8.91358173 -13.08984375 3.9453125 C-10.12530839 3.13181122 -10.12530839 3.13181122 -8 2 C-5.3276379 1.86584528 -2.67749512 1.95681459 0 2 C0 1.34 0 0.68 0 0 Z " fill="#F05B22" transform="translate(218,0)"/>
<path d="M0 0 C7.40039488 -0.06309146 14.79980303 -0.12317466 22.20023346 -0.15525055 C25.64719778 -0.17102454 29.09393704 -0.19206704 32.54077148 -0.22631836 C36.50501697 -0.26546007 40.46917387 -0.27976629 44.43359375 -0.29296875 C45.65582138 -0.30845261 46.87804901 -0.32393646 48.13731384 -0.33988953 C55.01062564 -0.34123154 60.66305132 0.28862215 67 3 C67.928125 3.37125 68.85625 3.7425 69.8125 4.125 C74.07425172 7.77793005 75.66604106 12.45988802 76.38671875 17.94140625 C76.6348673 24.64141716 75.83962837 30.38364919 72 36 C64.205039 42.90916998 54.34165825 42.27781987 44.53125 42.1953125 C43.25519897 42.1924826 41.97914795 42.18965271 40.66442871 42.18673706 C37.29752941 42.17747997 33.93090918 42.15955962 30.56408691 42.1373291 C27.1182702 42.11674672 23.67242363 42.10759888 20.2265625 42.09765625 C13.48421962 42.07737243 6.74236022 42.03821237 0 42 C0 28.14 0 14.28 0 0 Z " fill="#FDFCFC" transform="translate(38,31)"/>
<path d="M0 0 C0.68126953 -0.01160156 1.36253906 -0.02320313 2.06445312 -0.03515625 C7.50900754 -0.00377553 11.44096386 1.27907082 15.6171875 4.78515625 C19.17206712 9.69925455 19.42932145 14.4949042 19.5 20.375 C19.52199463 21.51400757 19.52199463 21.51400757 19.54443359 22.67602539 C19.44188776 28.3982067 17.98497503 32.55079596 14.9375 37.375 C14.42703125 38.19484375 13.9165625 39.0146875 13.390625 39.859375 C9.17012725 42.46694367 4.52506773 41.78461518 -0.3125 41.625 C-1.34375 41.60695312 -2.375 41.58890625 -3.4375 41.5703125 C-5.98011064 41.52322712 -8.52083162 41.4574805 -11.0625 41.375 C-11.0625 40.715 -11.0625 40.055 -11.0625 39.375 C-12.0525 39.375 -13.0425 39.375 -14.0625 39.375 C-19.00094608 32.83882136 -19.29478228 27.93988044 -19.375 20.0625 C-19.40400391 19.12470703 -19.43300781 18.18691406 -19.46289062 17.22070312 C-19.51549444 11.47879417 -19.22753957 7.71498469 -15.0625 3.375 C-10.09723338 0.54282626 -5.62341626 -0.0963097 0 0 Z " fill="#5E5E5A" transform="translate(85.0625,206.625)"/>
<path d="M0 0 C2.31 0 4.62 0 7 0 C10.28933342 6.83692922 12.61252559 13.79233489 14.75 21.0625 C15.06582031 22.11888672 15.38164062 23.17527344 15.70703125 24.26367188 C16.47670395 26.84090925 17.24089912 29.41963305 18 32 C19.12389418 28.24719398 20.24480883 24.49351199 21.36303711 20.73901367 C21.92992179 18.83791421 22.49912502 16.93750661 23.06835938 15.03710938 C23.42607422 13.83505859 23.78378906 12.63300781 24.15234375 11.39453125 C24.48226318 10.28956299 24.81218262 9.18459473 25.15209961 8.04614258 C25.89630606 5.37252788 26.500497 2.72839637 27 0 C29.64 0 32.28 0 35 0 C38.2955098 5.77981719 39.88943414 12.001063 41.6875 18.375 C42.00783203 19.49261719 42.32816406 20.61023438 42.65820312 21.76171875 C43.44406162 24.50635887 44.22447974 27.25242433 45 30 C47.03338711 26.94991934 47.86804068 24.54845183 48.91015625 21.0546875 C49.26013672 19.89582031 49.61011719 18.73695313 49.97070312 17.54296875 C50.33099609 16.33253906 50.69128906 15.12210938 51.0625 13.875 C51.77974465 11.47572145 52.4996497 9.07723603 53.22265625 6.6796875 C53.53984619 5.61476074 53.85703613 4.54983398 54.18383789 3.45263672 C55 1 55 1 56 0 C58.33297433 -0.04092937 60.66705225 -0.04241723 63 0 C60.68984685 9.04185136 57.79482775 17.85027185 54.8125 26.6875 C53.224375 31.410625 51.63625 36.13375 50 41 C37.79 41 25.58 41 13 41 C11.30807218 35.80427597 9.61697083 30.608298 7.92797852 25.41162109 C7.35327003 23.64421011 6.77807855 21.87695611 6.20239258 20.10986328 C5.37453924 17.56844639 4.54843006 15.02646823 3.72265625 12.484375 C3.46533218 11.69569031 3.20800812 10.90700562 2.94288635 10.09442139 C2.70271286 9.35395569 2.46253937 8.61348999 2.21508789 7.85058594 C2.00412979 7.20216736 1.79317169 6.55374878 1.57582092 5.88568115 C0.98092783 3.93754303 0.47723005 1.97994403 0 0 Z " fill="#5E5F5A" transform="translate(227,207)"/>
<path d="M0 0 C0.33 0 0.66 0 1 0 C1 10.23 1 20.46 1 31 C-11.32241347 31.15619512 -23.64486464 31.30516349 -35.96749783 31.4429636 C-41.69559481 31.50727542 -47.42363052 31.57420415 -53.15161133 31.64819336 C-85.12495809 32.05866219 -117.03517614 31.86517166 -149 31 C-147.30934023 21.85628466 -142.93684202 14.79247367 -135.31640625 9.44140625 C-131.93709794 7.33859889 -128.67504319 5.5473866 -125 4 C-124.34 4.33 -123.68 4.66 -123 5 C-124.32 5.33 -125.64 5.66 -127 6 C-127 6.99 -127 7.98 -127 9 C-130.62197194 10.49140021 -134.27566618 11.7874262 -138 13 C-138 13.99 -138 14.98 -138 16 C-138.99 16.33 -139.98 16.66 -141 17 C-141.33 18.65 -141.66 20.3 -142 22 C-140.94039063 21.98839844 -139.88078125 21.97679688 -138.7890625 21.96484375 C-137.40104342 21.95546524 -136.01302245 21.94636511 -134.625 21.9375 C-133.92632812 21.92912109 -133.22765625 21.92074219 -132.5078125 21.91210938 C-127.2265625 21.88671875 -127.2265625 21.88671875 -125 23 C-123.34011753 23.0929118 -121.67648753 23.12192033 -120.01400757 23.12025452 C-118.95948898 23.12162918 -117.9049704 23.12300385 -116.8184967 23.12442017 C-115.07601906 23.11902725 -115.07601906 23.11902725 -113.29833984 23.11352539 C-111.46910728 23.11374443 -111.46910728 23.11374443 -109.60292053 23.1139679 C-106.25394819 23.11338955 -102.90503707 23.10836546 -99.55607557 23.10139394 C-96.0580256 23.09515348 -92.55997485 23.09455605 -89.06192017 23.09336853 C-82.43565139 23.09025726 -75.80939906 23.08204662 -69.18313754 23.07201904 C-61.64031071 23.06085157 -54.0974831 23.05534585 -46.55465007 23.05032361 C-31.03642222 23.03986384 -15.51821704 23.02152089 0 23 C0 15.41 0 7.82 0 0 Z " fill="#E48D2C" transform="translate(463,0)"/>
<path d="M0 0 C0.80308594 -0.020625 1.60617187 -0.04125 2.43359375 -0.0625 C7.14812999 -0.09356778 10.3913937 0.06505986 14.125 3.25 C17.83853275 7.89599439 18.61016539 10.92716319 18.515625 16.8359375 C18.50996521 17.53772125 18.50430542 18.239505 18.49847412 18.96255493 C18.47624483 21.18409087 18.42608056 23.40395923 18.375 25.625 C18.35491731 27.13929947 18.33666964 28.65362446 18.3203125 30.16796875 C18.27983982 33.86312413 18.20154213 37.55471616 18.125 41.25 C7.895 41.25 -2.335 41.25 -12.875 41.25 C-12.875 40.59 -12.875 39.93 -12.875 39.25 C-13.49375 39.146875 -14.1125 39.04375 -14.75 38.9375 C-16.875 38.25 -16.875 38.25 -18.875 35.25 C-19.64403631 29.56722643 -19.99549948 24.79447226 -16.5625 20.0625 C-12.89556006 17.58944748 -10.30659885 17.12617213 -5.98828125 17.15234375 C-5.05048828 17.15556641 -4.11269531 17.15878906 -3.14648438 17.16210938 C-2.17001953 17.17048828 -1.19355469 17.17886719 -0.1875 17.1875 C0.80056641 17.19201172 1.78863281 17.19652344 2.80664062 17.20117188 C5.24615474 17.21295697 7.68554689 17.22940989 10.125 17.25 C9.81701674 15.76988629 9.503482 14.29092675 9.1875 12.8125 C9.01347656 11.98878906 8.83945312 11.16507813 8.66015625 10.31640625 C8.31747006 8.27338796 8.31747006 8.27338796 7.125 7.25 C4.59450598 7.17686433 2.09195163 7.15752473 -0.4375 7.1875 C-1.50387695 7.19426758 -1.50387695 7.19426758 -2.59179688 7.20117188 C-4.35290013 7.21299136 -6.11396036 7.23092737 -7.875 7.25 C-8.535 8.9 -9.195 10.55 -9.875 12.25 C-12.515 12.25 -15.155 12.25 -17.875 12.25 C-17.59801826 8.27992844 -17.10815777 6.52610788 -14.5 3.4375 C-9.92649326 -0.37375562 -5.66082784 0.03599891 0 0 Z " fill="#585954" transform="translate(328.875,206.75)"/>
<path d="M0 0 C1.10021484 -0.0299707 1.10021484 -0.0299707 2.22265625 -0.06054688 C8.43448848 -0.05499067 12.07048345 2.00798345 16.5 6.4375 C16.625 9.0625 16.625 9.0625 16.5 11.4375 C14.19 11.4375 11.88 11.4375 9.5 11.4375 C9.17 10.4475 8.84 9.4575 8.5 8.4375 C5.52760209 6.95130105 2.80380422 7.30572991 -0.5 7.3125 C-1.758125 7.30992187 -3.01625 7.30734375 -4.3125 7.3046875 C-7.39677818 7.21522642 -7.39677818 7.21522642 -9.5 8.4375 C-9.5 10.4175 -9.5 12.3975 -9.5 14.4375 C-3.68056933 16.37731022 2.10667547 17.09120632 8.1953125 17.77734375 C11.600818 18.45763977 13.71061554 19.39910366 16.5 21.4375 C18.4771802 25.39186041 18.06992441 30.13828757 17.5 34.4375 C15.125 37.625 15.125 37.625 12.5 39.4375 C11.84 39.4375 11.18 39.4375 10.5 39.4375 C10.5 40.0975 10.5 40.7575 10.5 41.4375 C0.93 41.4375 -8.64 41.4375 -18.5 41.4375 C-18.5 30.2175 -18.5 18.9975 -18.5 7.4375 C-17.84 7.4375 -17.18 7.4375 -16.5 7.4375 C-16.29375 6.839375 -16.0875 6.24125 -15.875 5.625 C-12.32442186 -0.02364704 -6.00939895 -0.05808734 0 0 Z " fill="#575753" transform="translate(18.5,206.5625)"/>
<path d="M0 0 C1.05900513 0.01027222 1.05900513 0.01027222 2.1394043 0.02075195 C7.90748111 0.19856935 11.47491542 1.06390923 16.125 4.4375 C19.125 9.4375 19.125 9.4375 19.125 22.4375 C9.555 22.4375 -0.015 22.4375 -9.875 22.4375 C-9.86410049 31.07309456 -9.86410049 31.07309456 -5.875 34.4375 C-2.44419882 34.80148618 -2.44419882 34.80148618 1.3125 34.625 C2.58480469 34.59792969 3.85710937 34.57085937 5.16796875 34.54296875 C6.14378906 34.50816406 7.11960937 34.47335938 8.125 34.4375 C9.115 32.4575 10.105 30.4775 11.125 28.4375 C13.435 28.4375 15.745 28.4375 18.125 28.4375 C17.63782051 34.77083333 17.63782051 34.77083333 15.25 37.875 C13.125 39.4375 13.125 39.4375 10.125 39.4375 C10.125 40.0975 10.125 40.7575 10.125 41.4375 C3.525 41.4375 -3.075 41.4375 -9.875 41.4375 C-9.875 40.7775 -9.875 40.1175 -9.875 39.4375 C-11.0196875 39.1590625 -11.0196875 39.1590625 -12.1875 38.875 C-15.27165307 37.22533673 -16.00280522 35.79922966 -17.27075195 32.60620117 C-18.43943943 28.41167556 -18.34598658 24.20085785 -18.3125 19.875 C-18.33248047 18.95525391 -18.35246094 18.03550781 -18.37304688 17.08789062 C-18.36896645 11.41201944 -17.89490922 7.77846686 -13.875 3.4375 C-9.3936347 0.4351122 -5.28094727 -0.07811128 0 0 Z " fill="#55554F" transform="translate(447.875,206.5625)"/>
<path d="M0 0 C0.33 0 0.66 0 1 0 C1 9.9 1 19.8 1 30 C-3.75535156 30.06058594 -8.51070313 30.12117188 -13.41015625 30.18359375 C-16.43164915 30.22411229 -19.45313375 30.26489785 -22.47460938 30.30664062 C-27.26518838 30.3727989 -32.05576635 30.43799487 -36.84643555 30.49731445 C-40.71090616 30.54522761 -44.57529402 30.59757793 -48.43966484 30.65294075 C-49.91034305 30.67324288 -51.38104384 30.691975 -52.85176277 30.70907402 C-54.91956823 30.7333893 -56.98722127 30.76340326 -59.05493164 30.79467773 C-60.22963516 30.81022202 -61.40433868 30.8257663 -62.61463928 30.84178162 C-66.12936924 31.00604621 -69.51941486 31.49870549 -73 32 C-74.70120005 32.0489944 -76.40447817 32.05363447 -78.10571289 32.00585938 C-79.04681412 31.9825354 -79.98791534 31.95921143 -80.95753479 31.93518066 C-82.45001991 31.88992249 -82.45001991 31.88992249 -83.97265625 31.84375 C-85.01393173 31.81776733 -86.05520721 31.79178467 -87.1280365 31.76501465 C-90.43969606 31.68222044 -93.75108467 31.59201722 -97.0625 31.5 C-101.42824601 31.37887901 -105.79409383 31.26529537 -110.16015625 31.15625 C-111.65567772 31.11099182 -111.65567772 31.11099182 -113.18141174 31.06481934 C-117.92946497 30.94674952 -122.32838145 30.97463056 -127 32 C-120.1857865 20.84946881 -110.82693887 10.32983757 -97.8125 6.5625 C-96.884375 6.376875 -95.95625 6.19125 -95 6 C-94.505 6.99 -94.505 6.99 -94 8 C-95.62249941 8.83819158 -97.24808497 9.6704116 -98.875 10.5 C-99.77992188 10.9640625 -100.68484375 11.428125 -101.6171875 11.90625 C-104 13 -104 13 -106 13 C-105.52418802 14.31371987 -105.04424851 15.62594546 -104.5625 16.9375 C-104.29566406 17.66839844 -104.02882812 18.39929688 -103.75390625 19.15234375 C-103.14613052 20.98305678 -103.14613052 20.98305678 -102 22 C-100.23669301 22.14686339 -98.46781764 22.22759988 -96.69921875 22.28125 C-95.0121582 22.33732422 -95.0121582 22.33732422 -93.29101562 22.39453125 C-92.10185547 22.42933594 -90.91269531 22.46414062 -89.6875 22.5 C-82.4946344 22.72438749 -75.30961132 22.97387721 -68.12391663 23.36329651 C-55.337318 24.05249707 -42.55188615 24.32567864 -29.75 24.5625 C-27.52864041 24.60584281 -25.30728618 24.64946114 -23.0859375 24.69335938 C-17.72401568 24.79873591 -12.36203877 24.90076224 -7 25 C-7 24.01 -7 23.02 -7 22 C-4.69 22 -2.38 22 0 22 C0 14.74 0 7.48 0 0 Z " fill="#EB5E23" transform="translate(295,0)"/>
<path d="M0 0 C18.48 0 36.96 0 56 0 C56 0.66 56 1.32 56 2 C54.90042969 2.20753906 53.80085938 2.41507812 52.66796875 2.62890625 C41.22234077 4.9507003 31.07280195 7.99351017 24 18 C22.89750971 20.17860522 21.85663655 22.38933561 20.875 24.625 C19.3966364 27.97238287 18.03172607 30.95241089 16 34 C16.11409593 32.54077307 16.24165544 31.08259402 16.375 29.625 C16.44460938 28.81289063 16.51421875 28.00078125 16.5859375 27.1640625 C17 25 17 25 19 23 C18.67958603 20.39719432 18.67958603 20.39719432 18 18 C17.2575 18.391875 16.515 18.78375 15.75 19.1875 C14.8425 19.455625 13.935 19.72375 13 20 C10.6875 18.625 10.6875 18.625 9 17 C6.40772482 21.86051596 6.81310447 26.65271133 7 32 C5.33388095 32.042721 3.66617115 32.04063832 2 32 C1.67 31.67 1.34 31.34 1 31 C-1.11681317 30.9057826 -3.23680758 30.88257239 -5.35571289 30.88647461 C-6.35079613 30.88625557 -6.35079613 30.88625557 -7.36598206 30.8860321 C-9.56823956 30.88673119 -11.77041345 30.89452335 -13.97265625 30.90234375 C-15.49580336 30.90420794 -17.01895107 30.90563184 -18.542099 30.90663147 C-22.55837651 30.91045654 -26.57461808 30.92028672 -30.59088135 30.93133545 C-34.68623366 30.94154981 -38.78159176 30.94612914 -42.87695312 30.95117188 C-50.91798528 30.961909 -58.95898817 30.97898528 -67 31 C-67 30.67 -67 30.34 -67 30 C-44.89 30 -22.78 30 0 30 C0 20.1 0 10.2 0 0 Z " fill="#FBF4EF" transform="translate(296,0)"/>
<path d="M0 0 C1.66869141 -0.03287109 1.66869141 -0.03287109 3.37109375 -0.06640625 C7.64271287 0.77536937 9.05691201 2.01676939 11.5625 5.5625 C12.18705998 8.4284919 12.12858877 11.14277848 12 14.0625 C11.99419922 14.80886719 11.98839844 15.55523437 11.98242188 16.32421875 C11.89118253 20.44823737 11.54762439 23.8536377 9.5625 27.5625 C5.78153698 30.04375698 1.45725009 29.90822304 -2.9375 30.12109375 C-6.81013643 29.25580155 -8.13564501 27.77457885 -10.4375 24.5625 C-11.13266398 21.18720809 -11.09161563 17.93434799 -11 14.5 C-11.01095703 13.60216797 -11.02191406 12.70433594 -11.03320312 11.77929688 C-10.98957973 7.86773267 -10.91978468 5.32630972 -8.8046875 1.9765625 C-5.72154273 0.13481596 -3.58145949 -0.00414042 0 0 Z " fill="#F9F9F8" transform="translate(84.4375,212.4375)"/>
<path d="M0 0 C1.98 0 3.96 0 6 0 C6 7.92 6 15.84 6 24 C9.72434326 23.99214478 9.72434326 23.99214478 13.52392578 23.98413086 C21.734178 23.96754929 29.94443097 23.95651046 38.15469551 23.94818783 C43.1317852 23.9429728 48.1088577 23.93590019 53.0859375 23.92456055 C57.89050337 23.91368266 62.69505274 23.90771276 67.49962997 23.90512276 C69.33120865 23.90327735 71.16278643 23.89967375 72.99435806 23.89426994 C75.56282747 23.88699449 78.13122895 23.88601181 80.69970703 23.88647461 C81.45424667 23.88287933 82.20878632 23.87928406 82.9861908 23.87557983 C87.09712297 23.88357724 90.96701953 24.19883545 95 25 C95 25.33 95 25.66 95 26 C67.61 26 40.22 26 12 26 C12 26.66 12 27.32 12 28 C54.57 28 97.14 28 141 28 C138.71183213 21.46423835 138.71183213 21.46423835 136 19 C136 18.01 136 17.02 136 16 C134.35 15.34 132.7 14.68 131 14 C131 13.34 131 12.68 131 12 C129.02 11.67 127.04 11.34 125 11 C125 10.34 125 9.68 125 9 C123.68 8.67 122.36 8.34 121 8 C121 7.34 121 6.68 121 6 C120.25234375 5.95101563 119.5046875 5.90203125 118.734375 5.8515625 C117.74953125 5.77679687 116.7646875 5.70203125 115.75 5.625 C114.28820312 5.52058594 114.28820312 5.52058594 112.796875 5.4140625 C110.10366811 5.01534751 108.33036721 4.36492937 106 3 C106 2.67 106 2.34 106 2 C118.28527766 2.298978 129.26804928 7.05135558 137.8203125 15.87890625 C142.00269447 20.84913227 142.1068355 23.61010429 142 30 C128.50583504 30.15578578 115.01160787 30.3039059 101.5172596 30.4429636 C95.24730025 30.50780024 88.97738746 30.57501069 82.70751953 30.64819336 C55.09896202 30.96874978 27.59355111 31.07849722 0 30 C0 20.1 0 10.2 0 0 Z " fill="#E32B25" transform="translate(2,0)"/>
<path d="M0 0 C3.1875 2.3125 3.1875 2.3125 6.1875 7.3125 C6.1875 11.6025 6.1875 15.8925 6.1875 20.3125 C-3.3825 20.3125 -12.9525 20.3125 -22.8125 20.3125 C-22.8125 22.6225 -22.8125 24.9325 -22.8125 27.3125 C-23.1425 27.3125 -23.4725 27.3125 -23.8125 27.3125 C-23.8125 24.6725 -23.8125 22.0325 -23.8125 19.3125 C-14.2425 19.3125 -4.6725 19.3125 5.1875 19.3125 C4.8575 17.6625 4.5275 16.0125 4.1875 14.3125 C3.1975 13.9825 2.2075 13.6525 1.1875 13.3125 C1.1875 13.9725 1.1875 14.6325 1.1875 15.3125 C-1.89711506 16.34070502 -3.70935239 16.35832849 -6.91796875 16.19140625 C-7.90087891 16.14306641 -8.88378906 16.09472656 -9.89648438 16.04492188 C-10.92064453 15.98884766 -11.94480469 15.93277344 -13 15.875 C-14.03576172 15.82279297 -15.07152344 15.77058594 -16.13867188 15.71679688 C-18.69692049 15.58711607 -21.25477938 15.45215022 -23.8125 15.3125 C-23.8125 12.6725 -23.8125 10.0325 -23.8125 7.3125 C-24.8025 6.9825 -25.7925 6.6525 -26.8125 6.3125 C-27.1425 7.6325 -27.4725 8.9525 -27.8125 10.3125 C-28.625 7.0625 -28.625 7.0625 -28.8125 3.3125 C-22.34100846 -3.51851885 -8.34097325 -3.87371042 0 0 Z " fill="#73726F" transform="translate(460.8125,208.6875)"/>
<path d="M0 0 C2.64 0 5.28 0 8 0 C8.33 1.32 8.66 2.64 9 4 C9.45375 3.525625 9.9075 3.05125 10.375 2.5625 C13.58184023 -0.52100022 16.43399075 -0.22253555 20.6796875 -0.140625 C23.894496 0.05421188 26.15527645 0.4421752 29 2 C31.29306574 6.05108281 32.42351736 9.34130899 32 14 C29.36 14 26.72 14 24 14 C23.71125 13.030625 23.4225 12.06125 23.125 11.0625 C22.35785318 7.89335797 22.35785318 7.89335797 20 7 C15.2942166 6.51881392 15.2942166 6.51881392 11.125 8.3125 C8.75579701 11.86630449 8.81496268 15.27046384 8.68359375 19.41796875 C8.64169922 20.67158203 8.59980469 21.92519531 8.55664062 23.21679688 C8.51732422 24.52712891 8.47800781 25.83746094 8.4375 27.1875 C8.39429008 28.52279978 8.350675 29.85808652 8.30664062 31.19335938 C8.20043498 34.46213297 8.09839003 37.73098333 8 41 C5.36 41 2.72 41 0 41 C0 27.47 0 13.94 0 0 Z " fill="#5F5F5C" transform="translate(374,207)"/>
<path d="M0 0 C1.07765625 0.01804688 2.1553125 0.03609375 3.265625 0.0546875 C4.49539062 0.08949219 4.49539062 0.08949219 5.75 0.125 C5.75 1.775 5.75 3.425 5.75 5.125 C2.45 5.455 -0.85 5.785 -4.25 6.125 C-4.58 9.095 -4.91 12.065 -5.25 15.125 C-1.95 15.125 1.35 15.125 4.75 15.125 C4.75 16.775 4.75 18.425 4.75 20.125 C1.45 20.125 -1.85 20.125 -5.25 20.125 C-5.25 30.025 -5.25 39.925 -5.25 50.125 C-7.89 50.125 -10.53 50.125 -13.25 50.125 C-13.25 40.225 -13.25 30.325 -13.25 20.125 C-15.23 20.125 -17.21 20.125 -19.25 20.125 C-19.25 18.475 -19.25 16.825 -19.25 15.125 C-17.27 15.125 -15.29 15.125 -13.25 15.125 C-13.3428125 13.578125 -13.3428125 13.578125 -13.4375 12 C-13.23490162 7.81296673 -12.52311598 5.61585668 -10.25 2.125 C-6.88541241 -0.14609663 -3.98601734 -0.08665255 0 0 Z " fill="#5A5A56" transform="translate(150.25,197.875)"/>
<path d="M0 0 C2.31 0 4.62 0 7 0 C7 2.97 7 5.94 7 9 C10.63 9 14.26 9 18 9 C18 10.65 18 12.3 18 14 C14.37 14 10.74 14 7 14 C7.05991309 17.91831616 7.1469154 21.83278527 7.25 25.75 C7.26417969 26.86117187 7.27835938 27.97234375 7.29296875 29.1171875 C7.32519531 30.18710938 7.35742188 31.25703125 7.390625 32.359375 C7.41157227 33.34389648 7.43251953 34.32841797 7.45410156 35.34277344 C8.14547832 38.7081333 9.32204953 39.90426519 12 42 C15.14481791 42.80315654 15.14481791 42.80315654 18 43 C18 44.98 18 46.96 18 49 C13.71 49 9.42 49 5 49 C5 48.34 5 47.68 5 47 C4.01 46.67 3.02 46.34 2 46 C-0.38243458 42.64459775 -0.23183433 39.50177682 -0.1953125 35.484375 C-0.18564453 33.60878906 -0.18564453 33.60878906 -0.17578125 31.6953125 C-0.15902344 30.39335937 -0.14226562 29.09140625 -0.125 27.75 C-0.11597656 26.43257812 -0.10695312 25.11515625 -0.09765625 23.7578125 C-0.07408533 20.50502538 -0.04118022 17.25260411 0 14 C-2.31 14 -4.62 14 -7 14 C-7 12.35 -7 10.7 -7 9 C-4.69 9 -2.38 9 0 9 C0 6.03 0 3.06 0 0 Z " fill="#555650" transform="translate(188,199)"/>
<path d="M0 0 C1.10021484 -0.0299707 1.10021484 -0.0299707 2.22265625 -0.06054688 C8.43448848 -0.05499067 12.07048345 2.00798345 16.5 6.4375 C16.625 9.0625 16.625 9.0625 16.5 11.4375 C14.19 11.4375 11.88 11.4375 9.5 11.4375 C9.17 10.4475 8.84 9.4575 8.5 8.4375 C5.52760209 6.95130105 2.80380422 7.30572991 -0.5 7.3125 C-1.758125 7.30992187 -3.01625 7.30734375 -4.3125 7.3046875 C-7.39677818 7.21522642 -7.39677818 7.21522642 -9.5 8.4375 C-9.5 10.4175 -9.5 12.3975 -9.5 14.4375 C-3.68056933 16.37731022 2.10667547 17.09120632 8.1953125 17.77734375 C11.61872705 18.46121734 13.73053624 19.33250465 16.5 21.4375 C16.995 22.9225 16.995 22.9225 17.5 24.4375 C15.85 25.7575 14.2 27.0775 12.5 28.4375 C12.5 27.7775 12.5 27.1175 12.5 26.4375 C11.87996094 26.32792969 11.25992187 26.21835938 10.62109375 26.10546875 C8.72427705 25.76586401 6.82853623 25.42022386 4.93359375 25.0703125 C3.14182515 24.74008894 1.34977213 24.41117335 -0.44482422 24.09667969 C-2.46535834 23.74209719 -4.48262289 23.37208037 -6.5 23 C-7.758125 22.77441406 -9.01625 22.54882812 -10.3125 22.31640625 C-13.38842997 21.4682638 -14.70155306 21.02276748 -16.5 18.4375 C-16.5 17.7775 -16.5 17.1175 -16.5 16.4375 C-17.16 16.4375 -17.82 16.4375 -18.5 16.4375 C-18.5 13.4675 -18.5 10.4975 -18.5 7.4375 C-17.84 7.4375 -17.18 7.4375 -16.5 7.4375 C-16.29375 6.839375 -16.0875 6.24125 -15.875 5.625 C-12.32442186 -0.02364704 -6.00939895 -0.05808734 0 0 Z " fill="#5E5E59" transform="translate(18.5,206.5625)"/>
<path d="M0 0 C0.99 0.33 1.98 0.66 3 1 C12.08783508 1.97344247 21.20764928 2.15948327 30.33935547 2.20532227 C31.58985687 2.21522186 32.84035828 2.22512146 34.12875366 2.23532104 C37.50797669 2.26121264 40.88717982 2.28319327 44.26643896 2.30332303 C47.81649456 2.32543237 51.36651078 2.35269707 54.91653442 2.37937927 C61.61674749 2.42897338 68.3169828 2.47403334 75.01723874 2.51740164 C82.65468717 2.5670615 90.29209605 2.62187148 97.92950606 2.67708123 C113.61963402 2.79038925 129.30979857 2.89733644 145 3 C145 3.99 145 4.98 145 6 C126.53732284 6.04668658 108.07465763 6.08197243 89.61193371 6.10362434 C81.03969031 6.11394417 72.46748355 6.12801798 63.89526367 6.15087891 C56.42515724 6.17079118 48.95507735 6.18371129 41.48494512 6.18817699 C37.52826708 6.19078805 33.57166496 6.19693977 29.61501122 6.21146011 C25.89275513 6.2250099 22.17060642 6.22922794 18.44832802 6.22621536 C16.42712665 6.22703007 14.40593704 6.23780531 12.38476562 6.24884033 C11.18583176 6.246091 9.98689789 6.24334167 8.75163269 6.24050903 C7.70724124 6.24235262 6.66284979 6.24419621 5.58681011 6.24609566 C3 6 3 6 0 4 C0 2.68 0 1.36 0 0 Z " fill="#F58C1D" transform="translate(318,23)"/>
<path d="M0 0 C0.66 0 1.32 0 2 0 C2.0694429 7.26688753 2.12278189 14.53370378 2.15543652 21.80085564 C2.17110744 25.17513606 2.19237093 28.54918987 2.22631836 31.92333984 C2.2625736 35.80051748 2.27969728 39.67737172 2.29296875 43.5546875 C2.30845261 44.76929657 2.32393646 45.98390564 2.33988953 47.23532104 C2.34011612 48.35633209 2.34034271 49.47734314 2.34057617 50.63232422 C2.34723801 51.62271698 2.35389984 52.61310974 2.36076355 53.6335144 C2.24171158 54.41445465 2.12265961 55.1953949 2 56 C-1.52572807 58.35048538 -2.85013645 58.66397817 -7 58 C-9.625 55.125 -9.625 55.125 -12 52 C-14.14980497 50.62745412 -14.14980497 50.62745412 -16 50 C-16.33 50.99 -16.66 51.98 -17 53 C-22.625 54.125 -22.625 54.125 -26 53 C-24.42447399 51.94964933 -22.84079276 50.90759058 -21.203125 49.95703125 C-11.7494033 44.41715033 -6.89334383 38.25101392 -3 28 C-2.63777344 27.13246094 -2.27554687 26.26492187 -1.90234375 25.37109375 C-0.59429067 20.48429806 -0.53104801 15.66405022 -0.375 10.625 C-0.33632813 9.60277344 -0.29765625 8.58054687 -0.2578125 7.52734375 C-0.16402036 5.01840403 -0.07832121 2.50946236 0 0 Z " fill="#EDEDEB" transform="translate(472,113)"/>
<path d="M0 0 C2.31 0 4.62 0 7 0 C10.28933342 6.83692922 12.61252559 13.79233489 14.75 21.0625 C15.06582031 22.11888672 15.38164062 23.17527344 15.70703125 24.26367188 C16.47670395 26.84090925 17.24089912 29.41963305 18 32 C18.23074219 31.08476562 18.46148437 30.16953125 18.69921875 29.2265625 C19.02535156 28.03804687 19.35148437 26.84953125 19.6875 25.625 C20.00074219 24.44164062 20.31398437 23.25828125 20.63671875 22.0390625 C22 19 22 19 24.64453125 17.5859375 C25.42183594 17.39257812 26.19914062 17.19921875 27 17 C28.29633388 21.40589426 27.59311259 24.13947383 26.125 28.4375 C24.7085107 32.63248754 23.622139 36.61193452 23 41 C19.7 41 16.4 41 13 41 C11.30759748 35.80443464 9.61697026 30.60829625 7.92797852 25.41162109 C7.35327003 23.64421011 6.77807855 21.87695611 6.20239258 20.10986328 C5.37453924 17.56844639 4.54843006 15.02646823 3.72265625 12.484375 C3.46533218 11.69569031 3.20800812 10.90700562 2.94288635 10.09442139 C2.70271286 9.35395569 2.46253937 8.61348999 2.21508789 7.85058594 C2.00412979 7.20216736 1.79317169 6.55374878 1.57582092 5.88568115 C0.98092783 3.93754303 0.47723005 1.97994403 0 0 Z " fill="#5B5C57" transform="translate(227,207)"/>
<path d="M0 0 C-0.33 2.31 -0.66 4.62 -1 7 C34.97 7.33 70.94 7.66 108 8 C108 8.66 108 9.32 108 10 C45.18339815 11.09817382 45.18339815 11.09817382 17.5 11.125 C16.60124146 11.12749756 15.70248291 11.12999512 14.77648926 11.13256836 C12.25720251 11.13840409 9.73803772 11.13702945 7.21875 11.1328125 C6.154216 11.13578842 6.154216 11.13578842 5.06817627 11.13882446 C-0.00570001 11.1153575 -4.96848552 10.64123381 -10 10 C-10.33 9.01 -10.66 8.02 -11 7 C-10.01 7 -9.02 7 -8 7 C-8 5.68 -8 4.36 -8 3 C-2.25 0 -2.25 0 0 0 Z " fill="#F55B1C" transform="translate(185,18)"/>
<path d="M0 0 C11.22 0 22.44 0 34 0 C35 1 35 1 35.12025452 2.75270081 C35.11803391 3.51437057 35.11581329 4.27604034 35.11352539 5.06079102 C35.11344986 5.92160782 35.11337433 6.78242462 35.11329651 7.66932678 C35.10813522 8.60473801 35.10297394 9.54014923 35.09765625 10.50390625 C35.0962413 11.45692123 35.09482635 12.40993622 35.09336853 13.39183044 C35.08775152 16.44875165 35.07519616 19.50560077 35.0625 22.5625 C35.05748719 24.62955624 35.05292391 26.69661362 35.04882812 28.76367188 C35.03777656 33.84247588 35.02050055 38.9212257 35 44 C34.01 43.34 33.02 42.68 32 42 C31.73346054 39.0204901 31.65232216 36.2511418 31.70703125 33.2734375 C31.71127609 32.41062164 31.71552094 31.54780579 31.71989441 30.65884399 C31.73671608 27.89724803 31.77437402 25.13637617 31.8125 22.375 C31.82754236 20.50521886 31.84123154 18.6354263 31.85351562 16.765625 C31.8840821 12.17657849 31.94279513 7.58910174 32 3 C21.77 3 11.54 3 1 3 C1 47.88 1 92.76 1 139 C0.67 139 0.34 139 0 139 C0 93.13 0 47.26 0 0 Z " fill="#5F4E49" transform="translate(2,30)"/>
<path d="M0 0 C2.01401225 3.02101837 2.88267061 5.42391886 3.9453125 8.875 C4.29980469 10.02484375 4.65429688 11.1746875 5.01953125 12.359375 C5.38433594 13.56078125 5.74914062 14.7621875 6.125 16 C6.49753906 17.20140625 6.87007813 18.4028125 7.25390625 19.640625 C10 28.61320971 10 28.61320971 10 32 C4.06 32 -1.88 32 -8 32 C-8 26.55440531 -7.4638439 23.78521494 -5.6875 18.8125 C-5.22675216 17.49563398 -4.76843742 16.17791425 -4.3125 14.859375 C-3.97605469 13.88774414 -3.97605469 13.88774414 -3.6328125 12.89648438 C-2.21813257 8.65681087 -1.10682865 4.32832992 0 0 Z " fill="#F7F7F5" transform="translate(258,216)"/>
<path d="M0 0 C0.66 0 1.32 0 2 0 C2.38800781 0.62648437 2.77601562 1.25296875 3.17578125 1.8984375 C5.81741876 4.94169442 8.26560807 4.97200696 12.1875 5.625 C13.53798385 5.86332068 14.88824722 6.10289426 16.23828125 6.34375 C17.47964844 6.5603125 18.72101562 6.776875 20 7 C27.66727605 8.66727605 27.66727605 8.66727605 29 10 C28.75 13.4375 28.75 13.4375 28 17 C24.46763908 19.35490728 22.75279632 19.32743705 18.5625 19.375 C17.42941406 19.40335938 16.29632812 19.43171875 15.12890625 19.4609375 C12 19 12 19 9.58984375 17.1640625 C8 15 8 15 8 12 C5.36 12 2.72 12 0 12 C0 8.04 0 4.08 0 0 Z " fill="#FAF9F9" transform="translate(0,223)"/>
<path d="M0 0 C1.20366211 0.00483398 1.20366211 0.00483398 2.43164062 0.00976562 C3.68170898 0.02233398 3.68170898 0.02233398 4.95703125 0.03515625 C6.22450195 0.04192383 6.22450195 0.04192383 7.51757812 0.04882812 C9.6015928 0.06060222 11.68557102 0.07853735 13.76953125 0.09765625 C13.76953125 0.42765625 13.76953125 0.75765625 13.76953125 1.09765625 C8.15953125 1.09765625 2.54953125 1.09765625 -3.23046875 1.09765625 C-3.23046875 1.75765625 -3.23046875 2.41765625 -3.23046875 3.09765625 C1.22453125 2.60265625 1.22453125 2.60265625 5.76953125 2.09765625 C5.76953125 3.08765625 5.76953125 4.07765625 5.76953125 5.09765625 C4.49078125 5.40703125 3.21203125 5.71640625 1.89453125 6.03515625 C-0.3314855 6.57370869 -2.17786874 7.07135625 -4.23046875 8.09765625 C-4.46475188 12.88738835 -4.46475188 12.88738835 -2.23046875 17.09765625 C0.55806015 17.31873412 3.11606306 17.3787316 5.89453125 17.28515625 C6.64863281 17.27162109 7.40273438 17.25808594 8.1796875 17.24414062 C10.04327252 17.2087561 11.90649103 17.15494792 13.76953125 17.09765625 C13.43953125 18.74765625 13.10953125 20.39765625 12.76953125 22.09765625 C12.10953125 22.09765625 11.44953125 22.09765625 10.76953125 22.09765625 C10.76953125 22.75765625 10.76953125 23.41765625 10.76953125 24.09765625 C5.15953125 24.09765625 -0.45046875 24.09765625 -6.23046875 24.09765625 C-6.23046875 23.43765625 -6.23046875 22.77765625 -6.23046875 22.09765625 C-6.84921875 21.99453125 -7.46796875 21.89140625 -8.10546875 21.78515625 C-10.23046875 21.09765625 -10.23046875 21.09765625 -12.23046875 18.09765625 C-12.99950506 12.41488268 -13.35096823 7.64212851 -9.91796875 2.91015625 C-6.49228165 0.59980914 -4.03864374 -0.02864286 0 0 Z " fill="#5C5C57" transform="translate(322.23046875,223.90234375)"/>
<path d="M0 0 C0.66 0.33 1.32 0.66 2 1 C0.68 1.33 -0.64 1.66 -2 2 C-2 2.99 -2 3.98 -2 5 C-5.62197194 6.49140021 -9.27566618 7.7874262 -13 9 C-13 9.99 -13 10.98 -13 12 C-13.99 12.33 -14.98 12.66 -16 13 C-17.22520264 16.00847418 -17.22520264 16.00847418 -18 19 C-18.66 19 -19.32 19 -20 19 C-19.65213292 20.97536745 -19.65213292 20.97536745 -19 23 C-15.68307038 24.65846481 -11.96512325 24.23295457 -8.31420898 24.29663086 C-7.41301142 24.31589945 -6.51181385 24.33516804 -5.58330727 24.35502052 C-2.57514869 24.41759997 0.43309333 24.4727226 3.44140625 24.52734375 C5.56254828 24.56895942 7.68368777 24.61070461 9.80482483 24.65257263 C32.44453021 25.08670991 55.08649667 25.3210815 77.72918701 25.53222656 C83.20945169 25.58393799 88.6896848 25.63881429 94.16992188 25.69335938 C104.77992053 25.79852721 115.38994745 25.90042785 126 26 C126 26.33 126 26.66 126 27 C113.67760399 27.15714235 101.35513044 27.30516355 89.03250217 27.4429636 C83.30440519 27.50727542 77.57636948 27.57420415 71.84838867 27.64819336 C39.87504191 28.05866219 7.96482386 27.86517166 -24 27 C-22.30934023 17.85628466 -17.93684202 10.79247367 -10.31640625 5.44140625 C-6.93709794 3.33859889 -3.67504319 1.5473866 0 0 Z " fill="#D39555" transform="translate(338,4)"/>
<path d="M0 0 C0.33 0 0.66 0 1 0 C1 9.57 1 19.14 1 29 C47.2 28.67 93.4 28.34 141 28 C138.71183213 21.46423835 138.71183213 21.46423835 136 19 C136 18.01 136 17.02 136 16 C134.35 15.34 132.7 14.68 131 14 C131 13.34 131 12.68 131 12 C129.02 11.67 127.04 11.34 125 11 C125 10.34 125 9.68 125 9 C123.68 8.67 122.36 8.34 121 8 C121 7.34 121 6.68 121 6 C120.25234375 5.95101563 119.5046875 5.90203125 118.734375 5.8515625 C117.74953125 5.77679687 116.7646875 5.70203125 115.75 5.625 C114.28820312 5.52058594 114.28820312 5.52058594 112.796875 5.4140625 C110.10366811 5.01534751 108.33036721 4.36492937 106 3 C106 2.67 106 2.34 106 2 C118.28527766 2.298978 129.26804928 7.05135558 137.8203125 15.87890625 C142.00269447 20.84913227 142.1068355 23.61010429 142 30 C128.50583504 30.15578578 115.01160787 30.3039059 101.5172596 30.4429636 C95.24730025 30.50780024 88.97738746 30.57501069 82.70751953 30.64819336 C55.09896202 30.96874978 27.59355111 31.07849722 0 30 C0 20.1 0 10.2 0 0 Z " fill="#C4322F" transform="translate(2,0)"/>
<path d="M0 0 C2.64 0 5.28 0 8 0 C8.33 1.32 8.66 2.64 9 4 C9.45375 3.525625 9.9075 3.05125 10.375 2.5625 C13.58184023 -0.52100022 16.43399075 -0.22253555 20.6796875 -0.140625 C23.894496 0.05421188 26.15527645 0.4421752 29 2 C31.29306574 6.05108281 32.42351736 9.34130899 32 14 C29.36 14 26.72 14 24 14 C23.71125 13.030625 23.4225 12.06125 23.125 11.0625 C22.35785318 7.89335797 22.35785318 7.89335797 20 7 C15.2942166 6.51881392 15.2942166 6.51881392 11.125 8.3125 C9.81453877 10.11785467 9.81453877 10.11785467 9 13 C8.01 13 7.02 13 6 13 C6.33 9.04 6.66 5.08 7 1 C5.02 1 3.04 1 1 1 C1 14.2 1 27.4 1 41 C0.67 41 0.34 41 0 41 C0 27.47 0 13.94 0 0 Z " fill="#5D5E59" transform="translate(374,207)"/>
<path d="M0 0 C0.78826172 0.01353516 1.57652344 0.02707031 2.38867188 0.04101562 C4.32191169 0.07616544 6.25479682 0.12996639 8.1875 0.1875 C8.4140625 6.828125 8.4140625 6.828125 6.375 10.0625 C2.92737982 13.41161675 -0.18397423 13.39222795 -4.8125 13.5 C-5.864375 13.53738281 -6.91625 13.57476562 -8 13.61328125 C-10.8125 13.1875 -10.8125 13.1875 -12.65625 11.359375 C-14.2436446 8.3776473 -14.37810773 6.51044541 -13.8125 3.1875 C-9.49307257 -0.45888055 -5.35095195 -0.17492634 0 0 Z " fill="#F5F5F3" transform="translate(330.8125,228.8125)"/>
<path d="M0 0 C0.33 0 0.66 0 1 0 C1 9.9 1 19.8 1 30 C-3.75535156 30.06058594 -8.51070313 30.12117188 -13.41015625 30.18359375 C-16.43164915 30.22411229 -19.45313375 30.26489785 -22.47460938 30.30664062 C-27.26518838 30.3727989 -32.05576635 30.43799487 -36.84643555 30.49731445 C-40.71090616 30.54522761 -44.57529402 30.59757793 -48.43966484 30.65294075 C-49.91034305 30.67324288 -51.38104384 30.691975 -52.85176277 30.70907402 C-54.91956823 30.7333893 -56.98722127 30.76340326 -59.05493164 30.79467773 C-60.22963516 30.81022202 -61.40433868 30.8257663 -62.61463928 30.84178162 C-66.12936924 31.00604621 -69.51941486 31.49870549 -73 32 C-74.70120005 32.0489944 -76.40447817 32.05363447 -78.10571289 32.00585938 C-79.04681412 31.9825354 -79.98791534 31.95921143 -80.95753479 31.93518066 C-82.45001991 31.88992249 -82.45001991 31.88992249 -83.97265625 31.84375 C-85.01393173 31.81776733 -86.05520721 31.79178467 -87.1280365 31.76501465 C-90.43969606 31.68222044 -93.75108467 31.59201722 -97.0625 31.5 C-101.42824601 31.37887901 -105.79409383 31.26529537 -110.16015625 31.15625 C-111.65567772 31.11099182 -111.65567772 31.11099182 -113.18141174 31.06481934 C-117.92946497 30.94674952 -122.32838145 30.97463056 -127 32 C-126.06981474 30.53699018 -125.13055973 29.07974421 -124.1875 27.625 C-123.66542969 26.81289063 -123.14335937 26.00078125 -122.60546875 25.1640625 C-121 23 -121 23 -118 21 C-117.67 21.66 -117.34 22.32 -117 23 C-117.33 23.66 -117.66 24.32 -118 25 C-118.99 25 -119.98 25 -121 25 C-120.67 25.66 -120.34 26.32 -120 27 C-113.27282316 28.06638274 -106.58840223 28.16640446 -99.78881836 28.20532227 C-98.1628775 28.22017166 -98.1628775 28.22017166 -96.50408936 28.23532104 C-92.94936244 28.26670947 -89.39462219 28.2916032 -85.83984375 28.31640625 C-83.36405607 28.33699538 -80.88827176 28.35799234 -78.41249084 28.37937927 C-71.91723361 28.4343977 -65.42194572 28.48389569 -58.92663574 28.53222656 C-52.29025531 28.58258986 -45.65392026 28.6381983 -39.01757812 28.69335938 C-26.01175518 28.80069331 -13.00589443 28.90170754 0 29 C0 19.43 0 9.86 0 0 Z " fill="#C26342" transform="translate(295,0)"/>
<path d="M0 0 C2.31 0 4.62 0 7 0 C6.51282051 6.33333333 6.51282051 6.33333333 4.125 9.4375 C2 11 2 11 -1 11 C-1 11.66 -1 12.32 -1 13 C-7.6 13 -14.2 13 -21 13 C-21 12.34 -21 11.68 -21 11 C-21.78375 10.773125 -22.5675 10.54625 -23.375 10.3125 C-26 9 -26 9 -27.3125 6.375 C-27.539375 5.59125 -27.76625 4.8075 -28 4 C-25.3125 2.75 -25.3125 2.75 -22 2 C-21.2575 2.639375 -20.515 3.27875 -19.75 3.9375 C-16.18795312 6.60903516 -14.08134629 6.41425594 -9.6875 6.25 C-8.43324219 6.21390625 -7.17898438 6.1778125 -5.88671875 6.140625 C-4.93410156 6.09421875 -3.98148437 6.0478125 -3 6 C-2.01 4.02 -1.02 2.04 0 0 Z " fill="#5A5A58" transform="translate(459,235)"/>
<path d="M0 0 C0.66 0 1.32 0 2 0 C2 10.56 2 21.12 2 32 C-2.62 32 -7.24 32 -12 32 C-12 31.34 -12 30.68 -12 30 C-11.34 29.67 -10.68 29.34 -10 29 C-10.061875 28.2575 -10.12375 27.515 -10.1875 26.75 C-9.96397661 23.47165697 -8.98190193 22.53683448 -7 20 C-6.28566879 17.35065178 -6.28566879 17.35065178 -6 15 C-4.35 14.67 -2.7 14.34 -1 14 C-0.67 9.38 -0.34 4.76 0 0 Z " fill="#6A6B66" transform="translate(345,216)"/>
<path d="M0 0 C0.67675781 -0.01998047 1.35351562 -0.03996094 2.05078125 -0.06054688 C5.16961204 -0.0574711 7.04149206 0.05268083 9.46875 2.08984375 C10.5 4.4375 10.5 4.4375 10.5 10.4375 C3.57 10.4375 -3.36 10.4375 -10.5 10.4375 C-10.5 3.4375 -10.5 3.4375 -9.46875 1.52734375 C-6.42486372 -0.15766473 -3.3871712 -0.03548465 0 0 Z " fill="#FAF9F9" transform="translate(448.5,212.5625)"/>
<path d="M0 0 C0.81984375 -0.01224609 1.6396875 -0.02449219 2.484375 -0.03710938 C3.27328125 -0.03904297 4.0621875 -0.04097656 4.875 -0.04296875 C5.59429687 -0.04707764 6.31359375 -0.05118652 7.0546875 -0.05541992 C9 0.1875 9 0.1875 12 2.1875 C11.01 2.1875 10.02 2.1875 9 2.1875 C8.67 3.1775 8.34 4.1675 8 5.1875 C5.0384304 6.6682848 2.16493705 6.54064037 -1.125 6.75 C-2.40632813 6.83378906 -3.68765625 6.91757813 -5.0078125 7.00390625 C-5.99523437 7.06449219 -6.98265625 7.12507812 -8 7.1875 C-8.66 8.8375 -9.32 10.4875 -10 12.1875 C-12.64 12.1875 -15.28 12.1875 -18 12.1875 C-17.72301826 8.21742844 -17.23315777 6.46360788 -14.625 3.375 C-10.00904237 -0.47163135 -5.70802874 0.00448744 0 0 Z " fill="#666662" transform="translate(329,206.8125)"/>
<path d="M0 0 C1.32 0 2.64 0 4 0 C4.495 1.11375 4.99 2.2275 5.5 3.375 C6.8210605 5.74429329 7.54375686 6.79712853 10.046875 7.91015625 C12.0088083 8.37976794 14.00496523 8.70074478 16 9 C16 10.98 16 12.96 16 15 C11.71 15 7.42 15 3 15 C3 14.34 3 13.68 3 13 C2.01 12.67 1.02 12.34 0 12 C-2.12778189 9.23388354 -1.98795808 7.85790531 -1.6875 4.3125 C-1 1 -1 1 0 0 Z " fill="#5E5E58" transform="translate(190,233)"/>
<path d="M0 0 C1.5625 1.8125 1.5625 1.8125 3 4 C2.67 4.99 2.34 5.98 2 7 C-34.04490539 8.05760501 -69.95472155 7.86358418 -106 7 C-106 6.67 -106 6.34 -106 6 C-71.02 6 -36.04 6 0 6 C0 4.02 0 2.04 0 0 Z " fill="#A85554" transform="translate(144,24)"/>
<path d="M0 0 C3 2 3 2 3.3984375 3.875 C3.39070313 4.57625 3.38296875 5.2775 3.375 6 C3.38273437 6.70125 3.39046875 7.4025 3.3984375 8.125 C3 10 3 10 0 12 C-3.12026907 12.32502803 -5.14747535 12.51151479 -7.875 10.875 C-9.52854531 8.11909116 -9.39365568 6.14924548 -9 3 C-6.78229215 -0.69617975 -4.0271794 -0.41949785 0 0 Z " fill="#878884" transform="translate(471,159)"/>
<path d="M0 0 C2.64 0 5.28 0 8 0 C8.66 2.31 9.32 4.62 10 7 C9.01 7.495 9.01 7.495 8 8 C8.33 8.66 8.66 9.32 9 10 C11.52733235 10.65555119 11.52733235 10.65555119 14 11 C9.43362969 14.04424687 5.43284541 13.12783166 0 13 C0 8.71 0 4.42 0 0 Z " fill="#6B6B67" transform="translate(0,235)"/>
<path d="M0 0 C2.64 0 5.28 0 8 0 C8.33 1.32 8.66 2.64 9 4 C9.45375 3.525625 9.9075 3.05125 10.375 2.5625 C13.10912454 -0.0664659 14.94554126 -0.1150637 18.625 -0.0625 C19.85089844 -0.04896484 19.85089844 -0.04896484 21.1015625 -0.03515625 C22.04128906 -0.01775391 22.04128906 -0.01775391 23 0 C21.03742896 0.99556618 19.11586582 1.95514871 17.0625 2.75 C13.10016187 5.15141705 10.45151664 8.64545007 9 13 C8.01 13 7.02 13 6 13 C6.33 9.04 6.66 5.08 7 1 C5.02 1 3.04 1 1 1 C1 14.2 1 27.4 1 41 C0.67 41 0.34 41 0 41 C0 27.47 0 13.94 0 0 Z " fill="#71726E" transform="translate(374,207)"/>
<path d="M0 0 C-0.33 1.32 -0.66 2.64 -1 4 C-12.88 3.67 -24.76 3.34 -37 3 C-37 3.66 -37 4.32 -37 5 C-37.66 5 -38.32 5 -39 5 C-39.33 5.66 -39.66 6.32 -40 7 C-40.556875 6.525625 -41.11375 6.05125 -41.6875 5.5625 C-44.18346074 3.87604004 -46.0446237 3.41046893 -49 3 C-46.58597135 0.58597135 -45.97771555 0.73694814 -42.67382812 0.68115234 C-41.77950073 0.66128265 -40.88517334 0.64141296 -39.96374512 0.62094116 C-38.99602173 0.60938995 -38.02829834 0.59783875 -37.03125 0.5859375 C-36.04000122 0.56657135 -35.04875244 0.5472052 -34.02746582 0.5272522 C-30.85173218 0.46735333 -27.67596175 0.42104929 -24.5 0.375 C-22.3580569 0.33682612 -20.21612924 0.29777474 -18.07421875 0.2578125 C-3.91807005 0 -3.91807005 0 0 0 Z " fill="#705551" transform="translate(148,30)"/>
<path d="M0 0 C0 0.33 0 0.66 0 1 C-2.31 1 -4.62 1 -7 1 C-7 1.66 -7 2.32 -7 3 C-5.68 3 -4.36 3 -3 3 C-3 4.32 -3 5.64 -3 7 C-4.04800781 7.05607422 -4.04800781 7.05607422 -5.1171875 7.11328125 C-6.48230469 7.21189453 -6.48230469 7.21189453 -7.875 7.3125 C-9.23238281 7.39951172 -9.23238281 7.39951172 -10.6171875 7.48828125 C-13.36221601 7.7882039 -13.36221601 7.7882039 -15 11 C-16.32 10.67 -17.64 10.34 -19 10 C-19 7.69 -19 5.38 -19 3 C-12.2011529 0.0879938 -7.31129316 -1.65538713 0 0 Z " fill="#F5882A" transform="translate(355,3)"/>
<path d="M0 0 C0.66 0.33 1.32 0.66 2 1 C2.66 0.67 3.32 0.34 4 0 C5.70702735 -0.06996014 7.41668003 -0.08440154 9.125 -0.0625 C10.03507812 -0.05347656 10.94515625 -0.04445312 11.8828125 -0.03515625 C12.93082031 -0.01775391 12.93082031 -0.01775391 14 0 C14 1.65 14 3.3 14 5 C12.66195312 4.96519531 12.66195312 4.96519531 11.296875 4.9296875 C10.12640625 4.91164062 8.9559375 4.89359375 7.75 4.875 C6.58984375 4.85179687 5.4296875 4.82859375 4.234375 4.8046875 C0.73902973 4.80341236 0.73902973 4.80341236 -3 7 C-3 16.24 -3 25.48 -3 35 C-3.33 35 -3.66 35 -4 35 C-4 25.1 -4 15.2 -4 5 C-5.98 5 -7.96 5 -10 5 C-10 4.67 -10 4.34 -10 4 C-7.03 4 -4.06 4 -1 4 C-0.67 2.68 -0.34 1.36 0 0 Z " fill="#6A6A66" transform="translate(141,213)"/>
<path d="M0 0 C-2.79624958 2.18697502 -5.63307872 3.99152813 -8.75 5.6875 C-9.94882813 6.34298828 -9.94882813 6.34298828 -11.171875 7.01171875 C-11.77515625 7.33785156 -12.3784375 7.66398438 -13 8 C-11.69844994 12.07964281 -11.69844994 12.07964281 -10 16 C-10.33 16.66 -10.66 17.32 -11 18 C-12.98 18 -14.96 18 -17 18 C-16.67 15.69 -16.34 13.38 -16 11 C-16.94875 11.515625 -17.8975 12.03125 -18.875 12.5625 C-19.90625 13.036875 -20.9375 13.51125 -22 14 C-22.66 13.67 -23.32 13.34 -24 13 C-8.19011407 -2.73003802 -8.19011407 -2.73003802 0 0 Z " fill="#E95D2C" transform="translate(201,7)"/>
<path d="M0 0 C1.87811519 3.19051621 2.24719862 5.52839697 2.23046875 9.2109375 C2.22853516 10.20867188 2.22660156 11.20640625 2.22460938 12.234375 C2.21236328 13.27078125 2.20011719 14.3071875 2.1875 15.375 C2.18685547 16.40367188 2.18621094 17.43234375 2.18554688 18.4921875 C2.1569117 23.43016357 2.04177743 28.14948427 1 33 C-1 32 -1 32 -2.0625 29.125 C-2.371875 28.09375 -2.68125 27.0625 -3 26 C-3.33 25.01 -3.66 24.02 -4 23 C-3.75653872 20.59616968 -3.43482615 18.19976765 -3.0625 15.8125 C-2.86785156 14.54019531 -2.67320312 13.26789062 -2.47265625 11.95703125 C-2.31667969 10.98121094 -2.16070312 10.00539063 -2 9 C-1.01 10.485 -1.01 10.485 0 12 C-0.185625 10.7625 -0.37125 9.525 -0.5625 8.25 C-0.94711223 5.23720423 -1.0874594 2.89989173 0 0 Z " fill="#61625D" transform="translate(148,34)"/>
<path d="M0 0 C9.84226785 0.62184263 9.84226785 0.62184263 14 4 C14.33 4.99 14.66 5.98 15 7 C13.35 8.32 11.7 9.64 10 11 C10 10.34 10 9.68 10 9 C4.01270113 7.88482498 -1.96251023 6.80499864 -8 6 C-8 5.67 -8 5.34 -8 5 C-6.576875 4.87625 -6.576875 4.87625 -5.125 4.75 C-4.09375 4.5025 -3.0625 4.255 -2 4 C-0.77763798 2.01437054 -0.77763798 2.01437054 0 0 Z " fill="#5D5D58" transform="translate(21,224)"/>
<path d="M0 0 C2.475 0.99 2.475 0.99 5 2 C5 2.99 5 3.98 5 5 C5.66 5 6.32 5 7 5 C7.50471197 6.76949612 8.00360685 8.54065223 8.5 10.3125 C8.7784375 11.29863281 9.056875 12.28476563 9.34375 13.30078125 C10 16 10 16 10 19 C8.02 19 6.04 19 4 19 C3.32263519 16.96185767 2.65856466 14.91929445 2 12.875 C1.62875 11.73804688 1.2575 10.60109375 0.875 9.4296875 C0.03088051 6.12104059 -0.16509276 3.39471984 0 0 Z " fill="#585856" transform="translate(264,229)"/>
<path d="M0 0 C1.98 0 3.96 0 6 0 C6.05395478 1.62463842 6.09277195 3.24978541 6.125 4.875 C6.14820313 5.77992188 6.17140625 6.68484375 6.1953125 7.6171875 C6 10 6 10 4 12 C3.67 10.35 3.34 8.7 3 7 C2.07446257 10.13850064 1.88335353 12.93680778 1.90234375 16.203125 C1.90556641 17.1828125 1.90878906 18.1625 1.91210938 19.171875 C1.92048828 20.18765625 1.92886719 21.2034375 1.9375 22.25 C1.94201172 23.28125 1.94652344 24.3125 1.95117188 25.375 C1.96293912 27.91672573 1.97937989 30.45833319 2 33 C1.01 33.495 1.01 33.495 0 34 C0 22.78 0 11.56 0 0 Z " fill="#54554F" transform="translate(375,208)"/>
<path d="M0 0 C0.99 0 1.98 0 3 0 C3 10.56 3 21.12 3 32 C2.01 31.67 1.02 31.34 0 31 C0 20.77 0 10.54 0 0 Z " fill="#FEFBEC" transform="translate(465,0)"/>
<path d="M0 0 C0.66 0 1.32 0 2 0 C2 0.99 2 1.98 2 3 C2.7425 2.67 3.485 2.34 4.25 2 C7 1 7 1 11 1 C11 1.66 11 2.32 11 3 C12.155 2.67 13.31 2.34 14.5 2 C18.77500587 0.91598066 22.60361453 0.84298623 27 1 C26.67 2.32 26.34 3.64 26 5 C16.1 5 6.2 5 -4 5 C-3.67 4.34 -3.34 3.68 -3 3 C-2.01 3 -1.02 3 0 3 C0 2.01 0 1.02 0 0 Z " fill="#EC8B2D" transform="translate(325,13)"/>
<path d="M0 0 C6.93 0 13.86 0 21 0 C21 0.66 21 1.32 21 2 C20.41734375 2.09796875 19.8346875 2.1959375 19.234375 2.296875 C13.09646686 3.41636768 7.35038937 5.11854808 1.46875 7.1953125 C-1 8 -1 8 -3 8 C-3 7.01 -3 6.02 -3 5 C-2.34 5 -1.68 5 -1 5 C-0.67 3.35 -0.34 1.7 0 0 Z " fill="#FAF4EA" transform="translate(197,0)"/>
<path d="M0 0 C0.66 0.66 1.32 1.32 2 2 C1.67 2.66 1.34 3.32 1 4 C0.01 4 -0.98 4 -2 4 C-1.67 4.66 -1.34 5.32 -1 6 C4.85544951 7.35342596 11.20367548 7.18888837 17.19140625 7.31640625 C18.43747902 7.3475779 18.43747902 7.3475779 19.70872498 7.37937927 C22.32657715 7.44404482 24.9445176 7.50336792 27.5625 7.5625 C29.35222217 7.60576445 31.14193586 7.64938106 32.93164062 7.69335938 C37.28767315 7.79963924 41.64379319 7.90113258 46 8 C46 8.33 46 8.66 46 9 C45.41197601 9.01030746 44.82395203 9.02061493 44.21810913 9.03123474 C38.08589224 9.13959832 31.95381345 9.25417108 25.82177734 9.37231445 C23.53469742 9.41556777 21.24758721 9.45724947 18.96044922 9.49731445 C15.66885254 9.55524999 12.37740699 9.6188771 9.0859375 9.68359375 C8.06696381 9.70030624 7.04799011 9.71701874 5.99813843 9.73423767 C1.23558827 9.83312978 -3.31697674 10.02523738 -8 11 C-7.04454634 9.53977837 -6.08553322 8.08188532 -5.125 6.625 C-4.59132812 5.81289063 -4.05765625 5.00078125 -3.5078125 4.1640625 C-2 2 -2 2 0 0 Z " fill="#D7673D" transform="translate(176,21)"/>
<path d="M0 0 C2.58445773 -0.1081866 5.16437352 -0.18737237 7.75 -0.25 C8.47960937 -0.28351562 9.20921875 -0.31703125 9.9609375 -0.3515625 C13.61521264 -0.41800387 15.52935603 -0.39143428 18.390625 1.98828125 C18.92171875 2.65214844 19.4528125 3.31601563 20 4 C20.99 4.2165625 20.99 4.2165625 22 4.4375 C25.06410489 5.2992795 26.19903272 7.49150986 28 10 C27.67 10.66 27.34 11.32 27 12 C26.14019531 11.52949219 25.28039062 11.05898437 24.39453125 10.57421875 C16.42523259 6.33535084 8.97230478 3.56493688 0 2 C0 1.34 0 0.68 0 0 Z " fill="#FAE2DC" transform="translate(108,0)"/>
<path d="M0 0 C1.65 0 3.3 0 5 0 C5 2.31 5 4.62 5 7 C-17.11 7 -39.22 7 -62 7 C-62 6.67 -62 6.34 -62 6 C-40.55 6 -19.1 6 3 6 C3 5.01 3 4.02 3 3 C2.01 3 1.02 3 0 3 C0 2.01 0 1.02 0 0 Z " fill="#E45D2B" transform="translate(290,22)"/>
<path d="M0 0 C0.72509766 -0.01224609 1.45019531 -0.02449219 2.19726562 -0.03710938 C6.01743278 -0.04759474 8.95185611 0.03889658 12.1875 2.1875 C11.16796875 3.67578125 11.16796875 3.67578125 9.1875 5.1875 C6.53753674 5.4047101 4.13673442 5.47101554 1.5 5.375 C0.79810547 5.36146484 0.09621094 5.34792969 -0.62695312 5.33398438 C-2.35579829 5.29870182 -4.08424765 5.24489583 -5.8125 5.1875 C-5.8125 4.1975 -5.8125 3.2075 -5.8125 2.1875 C-6.8025 1.8575 -7.7925 1.5275 -8.8125 1.1875 C-6.78557871 -0.83942129 -2.77501392 0.00242783 0 0 Z " fill="#605F5E" transform="translate(447.8125,206.8125)"/>
<path d="M0 0 C0.8971875 0.309375 0.8971875 0.309375 1.8125 0.625 C1.11125 1.0375 0.41 1.45 -0.3125 1.875 C-8.28443271 6.72748078 -14.72182221 11.92448784 -20.0625 19.625 C-20.76375 20.615 -21.465 21.605 -22.1875 22.625 C-22.8475 22.625 -23.5075 22.625 -24.1875 22.625 C-23.05285866 19.32422518 -21.55292129 16.32744518 -19.8125 13.3125 C-19.41289062 12.61511719 -19.01328125 11.91773438 -18.6015625 11.19921875 C-18.13492188 10.67972656 -17.66828125 10.16023438 -17.1875 9.625 C-15.8675 9.625 -14.5475 9.625 -13.1875 9.625 C-13.1875 8.635 -13.1875 7.645 -13.1875 6.625 C-13.8475 6.295 -14.5075 5.965 -15.1875 5.625 C-14.50042969 5.35945312 -13.81335938 5.09390625 -13.10546875 4.8203125 C-12.20441406 4.46710937 -11.30335938 4.11390625 -10.375 3.75 C-9.48167969 3.40195313 -8.58835938 3.05390625 -7.66796875 2.6953125 C-1.01735075 -0.17440299 -1.01735075 -0.17440299 0 0 Z " fill="#FCECE2" transform="translate(191.1875,8.375)"/>
<path d="M0 0 C0.75410156 0.00451172 1.50820312 0.00902344 2.28515625 0.01367188 C4.14847127 0.02546501 6.01174555 0.04340058 7.875 0.0625 C8.205 1.3825 8.535 2.7025 8.875 4.0625 C8.215 3.7325 7.555 3.4025 6.875 3.0625 C6.545 3.3925 6.215 3.7225 5.875 4.0625 C3.99675109 5.94074891 0.83564724 5.45352397 -1.6875 5.625 C-2.88503906 5.70878906 -4.08257812 5.79257813 -5.31640625 5.87890625 C-6.24324219 5.93949219 -7.17007813 6.00007812 -8.125 6.0625 C-8.455 5.4025 -8.785 4.7425 -9.125 4.0625 C-8.135 4.0625 -7.145 4.0625 -6.125 4.0625 C-7.445 3.0725 -8.765 2.0825 -10.125 1.0625 C-6.93675432 -0.53162284 -3.49603338 -0.03924735 0 0 Z " fill="#585954" transform="translate(85.125,206.9375)"/>
<path d="M0 0 C4.62 0 9.24 0 14 0 C13.34 0.66 12.68 1.32 12 2 C12.33 3.32 12.66 4.64 13 6 C8.05 6 3.1 6 -2 6 C-1.01 4.68 -0.02 3.36 1 2 C0.67 1.34 0.34 0.68 0 0 Z " fill="#565550" transform="translate(78,242)"/>
<path d="M0 0 C1.0828125 0.37125 1.0828125 0.37125 2.1875 0.75 C2.1875 1.74 2.1875 2.73 2.1875 3.75 C6.1475 3.75 10.1075 3.75 14.1875 3.75 C14.1875 4.08 14.1875 4.41 14.1875 4.75 C13.29546875 4.79898438 12.4034375 4.84796875 11.484375 4.8984375 C9.72867187 5.01058594 9.72867187 5.01058594 7.9375 5.125 C6.19726562 5.22941406 6.19726562 5.22941406 4.421875 5.3359375 C1.42425428 5.71969088 -0.18872285 6.41489216 -2.8125 7.75 C-3.8025 7.42 -4.7925 7.09 -5.8125 6.75 C-6.1425 8.07 -6.4725 9.39 -6.8125 10.75 C-7.625 7.5 -7.625 7.5 -7.8125 3.75 C-5.24894617 0.73405432 -4.00528758 -0.35602556 0 0 Z " fill="#60605D" transform="translate(439.8125,208.25)"/>
<path d="M0 0 C0 0.66 0 1.32 0 2 C1.24716797 2.07347656 1.24716797 2.07347656 2.51953125 2.1484375 C3.60621094 2.22320312 4.69289062 2.29796875 5.8125 2.375 C6.89144531 2.44460938 7.97039062 2.51421875 9.08203125 2.5859375 C12 3 12 3 15 5 C12.56348622 5.36262997 10.12623023 5.71538964 7.6875 6.0625 C6.99720703 6.16626953 6.30691406 6.27003906 5.59570312 6.37695312 C2.30415164 6.83808836 0.19783876 7.06594625 -3 6 C-3 5.34 -3 4.68 -3 4 C-4.65 3.67 -6.3 3.34 -8 3 C-5.48696401 0.48696401 -3.51117809 0 0 0 Z " fill="#ED5B2A" transform="translate(208,4)"/>
<path d="M0 0 C0.99 0.66 1.98 1.32 3 2 C3 2.99 3 3.98 3 5 C2.34 5 1.68 5 1 5 C1.20625 5.7425 1.4125 6.485 1.625 7.25 C2.04408751 10.32330841 1.61949011 11.42786866 0 14 C-2.31 14 -4.62 14 -7 14 C-7 13.34 -7 12.68 -7 12 C-6.34 11.67 -5.68 11.34 -5 11 C-5.103125 10.29875 -5.20625 9.5975 -5.3125 8.875 C-4.85789966 4.69267689 -2.83533849 3.04798887 0 0 Z " fill="#686867" transform="translate(340,234)"/>
<path d="M0 0 C0 0.66 0 1.32 0 2 C-1.64935547 2.31130859 -1.64935547 2.31130859 -3.33203125 2.62890625 C-12.81378781 4.55446855 -20.18794883 7.01954875 -28 13 C-29.13501953 13.84884766 -29.13501953 13.84884766 -30.29296875 14.71484375 C-30.85628906 15.13894531 -31.41960937 15.56304687 -32 16 C-31.68153629 12.92499793 -31.44511885 11.4151319 -29.14453125 9.26953125 C-28.37496094 8.78871094 -27.60539062 8.30789063 -26.8125 7.8125 C-26.05582031 7.32394531 -25.29914063 6.83539062 -24.51953125 6.33203125 C-19.52262398 3.69025547 -14.2510784 2.53373779 -8.75 1.375 C-6.91695313 0.98441406 -6.91695313 0.98441406 -5.046875 0.5859375 C-2 0 -2 0 0 0 Z " fill="#FCEAC2" transform="translate(352,0)"/>
<path d="M0 0 C0 0.66 0 1.32 0 2 C-0.99 2.495 -0.99 2.495 -2 3 C-1.96519531 3.62648437 -1.93039063 4.25296875 -1.89453125 4.8984375 C-1.86746094 5.71570313 -1.84039063 6.53296875 -1.8125 7.375 C-1.77769531 8.18710938 -1.74289063 8.99921875 -1.70703125 9.8359375 C-1.80371094 10.55007812 -1.90039062 11.26421875 -2 12 C-2.99 12.66 -3.98 13.32 -5 14 C-4.979375 13.195625 -4.95875 12.39125 -4.9375 11.5625 C-4.70366379 9.06645115 -4.70366379 9.06645115 -6 8 C-6.33 10.31 -6.66 12.62 -7 15 C-7.66 15 -8.32 15 -9 15 C-9 12.03 -9 9.06 -9 6 C-8.34 6 -7.68 6 -7 6 C-6.731875 5.38125 -6.46375 4.7625 -6.1875 4.125 C-4.67436553 1.41728569 -3.21502868 0 0 0 Z " fill="#666562" transform="translate(9,208)"/>
<path d="M0 0 C3.77258731 0.29019902 6.32665983 0.51657629 9.4375 2.75 C11.28286337 5.40732325 11.35205968 6.8314629 11 10 C8.69 10 6.38 10 4 10 C2 5.25 2 5.25 2 3 C1.34 2.01 0.68 1.02 0 0 Z " fill="#535450" transform="translate(24,208)"/>
<path d="M0 0 C1.75 1.6875 1.75 1.6875 3 4 C2.6875 7.25 2.6875 7.25 2 10 C1.01 10 0.02 10 -1 10 C-1 9.34 -1 8.68 -1 8 C-1.78375 7.773125 -2.5675 7.54625 -3.375 7.3125 C-6 6 -6 6 -7.3125 3.375 C-7.539375 2.59125 -7.76625 1.8075 -8 1 C-3.375 -1.125 -3.375 -1.125 0 0 Z " fill="#595856" transform="translate(439,238)"/>
<path d="M0 0 C1.3303125 0.4021875 1.3303125 0.4021875 2.6875 0.8125 C2.048125 1.06 1.40875 1.3075 0.75 1.5625 C-1.49979876 2.6050291 -1.49979876 2.6050291 -1.875 4.8125 C-2.019375 5.4725 -2.16375 6.1325 -2.3125 6.8125 C-3.3025 7.4725 -4.2925 8.1325 -5.3125 8.8125 C-4.3225 9.1425 -3.3325 9.4725 -2.3125 9.8125 C-1.9825 9.1525 -1.6525 8.4925 -1.3125 7.8125 C-1.3125 8.8025 -1.3125 9.7925 -1.3125 10.8125 C-3.9525 10.8125 -6.5925 10.8125 -9.3125 10.8125 C-9.0427742 6.94643026 -8.46756349 5.02072811 -6.125 1.875 C-3.3125 -0.1875 -3.3125 -0.1875 0 0 Z " fill="#6B6C67" transform="translate(320.3125,208.1875)"/>
<path d="M0 0 C1.09570312 0.00902344 2.19140625 0.01804688 3.3203125 0.02734375 C4.16335937 0.03894531 5.00640625 0.05054688 5.875 0.0625 C5.875 1.7125 5.875 3.3625 5.875 5.0625 C4.988125 4.876875 4.10125 4.69125 3.1875 4.5 C0.02321189 4.08207516 -2.07339642 4.25472258 -5.125 5.0625 C-6.115 3.7425 -7.105 2.4225 -8.125 1.0625 C-5.36047967 -0.31976016 -3.0788637 -0.03275387 0 0 Z " fill="#62635C" transform="translate(150.125,197.9375)"/>
<path d="M0 0 C0.66 0 1.32 0 2 0 C2 2.31 2 4.62 2 7 C2.66 7 3.32 7 4 7 C4.33 6.34 4.66 5.68 5 5 C5 6.65 5 8.3 5 10 C3.35 10.66 1.7 11.32 0 12 C0 14.31 0 16.62 0 19 C-0.33 19 -0.66 19 -1 19 C-1.02690104 16.20826945 -1.04679053 13.41679652 -1.0625 10.625 C-1.07087891 9.8309375 -1.07925781 9.036875 -1.08789062 8.21875 C-1.11328125 2.2265625 -1.11328125 2.2265625 0 0 Z " fill="#5D5E58" transform="translate(431,214)"/>
<path d="M0 0 C5.94 0.99 5.94 0.99 12 2 C7.75 6.85714286 7.75 6.85714286 4.375 7.5 C2 7 2 7 0.125 5.75 C-0.24625 5.1725 -0.6175 4.595 -1 4 C-0.67 2.68 -0.34 1.36 0 0 Z " fill="#575652" transform="translate(9,241)"/>
<path d="M0 0 C0.66 0 1.32 0 2 0 C2 0.66 2 1.32 2 2 C2.99 1.67 3.98 1.34 5 1 C5.33 1.99 5.66 2.98 6 4 C5.34 4.66 4.68 5.32 4 6 C3.34 5.34 2.68 4.68 2 4 C1.67 4.99 1.34 5.98 1 7 C2.65 7 4.3 7 6 7 C6 8.32 6 9.64 6 11 C5.01 11 4.02 11 3 11 C3 10.34 3 9.68 3 9 C2.38125 8.938125 1.7625 8.87625 1.125 8.8125 C-1 8 -1 8 -2.25 5.4375 C-2.4975 4.633125 -2.745 3.82875 -3 3 C-2.01 2.67 -1.02 2.34 0 2 C0 1.34 0 0.68 0 0 Z " fill="#61625D" transform="translate(313,237)"/>
<path d="M0 0 C3.375 -0.1875 3.375 -0.1875 7 0 C9 3 9 3 8.625 5.1875 C8.41875 5.785625 8.2125 6.38375 8 7 C6.02 7 4.04 7 2 7 C0.5393715 4.35261084 0 3.10551666 0 0 Z " fill="#666762" transform="translate(227,207)"/>
<path d="M0 0 C2.5 1.25 2.5 1.25 5 3 C5 4.32 5 5.64 5 7 C3.68 7.33 2.36 7.66 1 8 C1 8.66 1 9.32 1 10 C0.01 10 -0.98 10 -2 10 C-2.6875 6.6875 -2.6875 6.6875 -3 3 C-1.5625 1.0625 -1.5625 1.0625 0 0 Z " fill="#61605C" transform="translate(28,238)"/>
<path d="M0 0 C0 0.33 0 0.66 0 1 C-2.31 1 -4.62 1 -7 1 C-7 1.66 -7 2.32 -7 3 C-5.68 3.33 -4.36 3.66 -3 4 C-7.29 4 -11.58 4 -16 4 C-15.67 3.01 -15.34 2.02 -15 1 C-9.58175752 -1.21152754 -5.71577709 -1.00276791 0 0 Z " fill="#E3902C" transform="translate(355,3)"/>
<path d="M0 0 C1.32 0 2.64 0 4 0 C4 1.65 4 3.3 4 5 C5.32 5 6.64 5 8 5 C7.67 5.99 7.34 6.98 7 8 C-0.425 7.01 -0.425 7.01 -8 6 C-8 5.67 -8 5.34 -8 5 C-6.576875 4.87625 -6.576875 4.87625 -5.125 4.75 C-1.89538209 4.34925077 -1.89538209 4.34925077 -0.625 1.9375 C-0.41875 1.298125 -0.2125 0.65875 0 0 Z " fill="#6C6B67" transform="translate(21,224)"/>
<path d="M0 0 C0.66 0.33 1.32 0.66 2 1 C0.68 1.33 -0.64 1.66 -2 2 C-2 2.99 -2 3.98 -2 5 C-5.62197194 6.49140021 -9.27566618 7.7874262 -13 9 C-13 9.99 -13 10.98 -13 12 C-14.65 12.66 -16.3 13.32 -18 14 C-14.90665232 6.75094282 -6.92749505 2.98598924 0 0 Z " fill="#DD9F57" transform="translate(338,4)"/>
<path d="M0 0 C-0.33 2.31 -0.66 4.62 -1 7 C-3.3125 7.25 -3.3125 7.25 -6 7 C-7.8125 5 -7.8125 5 -9 3 C-8.34 2.67 -7.68 2.34 -7 2 C-7.33 1.34 -7.66 0.68 -8 0 C-4.71023192 -1.09658936 -3.28696233 -0.79953138 0 0 Z " fill="#656560" transform="translate(97,241)"/>
<path d="M0 0 C0.33 0.99 0.66 1.98 1 3 C2.98 2.34 4.96 1.68 7 1 C6.01 4.3 5.02 7.6 4 11 C3.01 11 2.02 11 1 11 C-1.125 3.375 -1.125 3.375 0 0 Z " fill="#646560" transform="translate(273,237)"/>
<path d="M0 0 C-3.16393989 2.53115191 -6.45648516 4.40901101 -10.0625 6.25 C-11.62677734 7.06210937 -11.62677734 7.06210937 -13.22265625 7.890625 C-16 9 -16 9 -19 8 C-17.27430361 6.86968397 -15.54428261 5.74596893 -13.8125 4.625 C-12.84957031 3.99851562 -11.88664063 3.37203125 -10.89453125 2.7265625 C-4.05660377 -1.35220126 -4.05660377 -1.35220126 0 0 Z " fill="#D26F4E" transform="translate(201,7)"/>
<path d="M0 0 C0.33 0.99 0.66 1.98 1 3 C1.66 2.67 2.32 2.34 3 2 C3.86380259 3.28524261 4.71580369 4.57842419 5.5625 5.875 C6.27599609 6.95394531 6.27599609 6.95394531 7.00390625 8.0546875 C7.49697266 9.01761719 7.49697266 9.01761719 8 10 C7.67 10.66 7.34 11.32 7 12 C5.68 11.67 4.36 11.34 3 11 C3 10.01 3 9.02 3 8 C2.01 8 1.02 8 0 8 C-0.38063221 5.6739143 -0.71269945 3.33944736 -1 1 C-0.67 0.67 -0.34 0.34 0 0 Z " fill="#61605B" transform="translate(113,97)"/>
<path d="M0 0 C1.32 0 2.64 0 4 0 C4 2.97 4 5.94 4 9 C2.35 9 0.7 9 -1 9 C-1.07427838 5.65747276 -1.06546953 3.1964086 0 0 Z " fill="#555650" transform="translate(341,239)"/>
<path d="M0 0 C0.33 0.66 0.66 1.32 1 2 C1.66 2 2.32 2 3 2 C3 2.66 3 3.32 3 4 C3.66 4 4.32 4 5 4 C5.66 2.68 6.32 1.36 7 0 C7 2.64 7 5.28 7 8 C6.34 8 5.68 8 5 8 C5 7.34 5 6.68 5 6 C4.34 6 3.68 6 3 6 C3 6.66 3 7.32 3 8 C2.01 8.33 1.02 8.66 0 9 C0 6.03 0 3.06 0 0 Z " fill="#52534F" transform="translate(310,231)"/>
<path d="M0 0 C2.31 0.33 4.62 0.66 7 1 C6.01 1.495 6.01 1.495 5 2 C5 2.99 5 3.98 5 5 C3.36368108 6.04892238 1.69514137 7.04906703 0 8 C-0.33 8.66 -0.66 9.32 -1 10 C-2.98 10 -4.96 10 -7 10 C-5 7 -5 7 -2.9375 6.5 C-2.298125 6.335 -1.65875 6.17 -1 6 C-0.67 5.01 -0.34 4.02 0 3 C0.66 2.67 1.32 2.34 2 2 C1.34 1.34 0.68 0.68 0 0 Z " fill="#52534E" transform="translate(319,208)"/>
<path d="M0 0 C0.33 0.99 0.66 1.98 1 3 C1.99 3.33 2.98 3.66 4 4 C5.34090759 4.65129797 6.67592331 5.31513275 8 6 C7.01 6.495 7.01 6.495 6 7 C7.65 7.33 9.3 7.66 11 8 C11 8.33 11 8.66 11 9 C7.37 9 3.74 9 0 9 C0 6.03 0 3.06 0 0 Z " fill="#D4D4D2" transform="translate(195,199)"/>
<path d="M0 0 C5.51436031 -0.25065274 5.51436031 -0.25065274 7.9375 1 C12.01102146 2.97504071 16.77315859 2.35258925 21 1 C19.98046875 2.48828125 19.98046875 2.48828125 18 4 C15.35003674 4.2172101 12.94923442 4.28351554 10.3125 4.1875 C9.61060547 4.17396484 8.90871094 4.16042969 8.18554688 4.14648438 C6.45670171 4.11120182 4.72825235 4.05739583 3 4 C3 3.01 3 2.02 3 1 C2.01 0.67 1.02 0.34 0 0 Z " fill="#504F4D" transform="translate(439,208)"/>
<path d="M0 0 C0.66 0 1.32 0 2 0 C2 0.66 2 1.32 2 2 C3.0828125 2.185625 3.0828125 2.185625 4.1875 2.375 C6.95721894 2.9904931 9.3970354 3.88444374 12 5 C9 7 9 7 6.6875 6.8125 C3.57930187 5.87281219 0.85906047 4.5292649 -2 3 C-1.34 2.67 -0.68 2.34 0 2 C0 1.34 0 0.68 0 0 Z " fill="#61625D" transform="translate(194,160)"/>
<path d="M0 0 C1.49080078 0.02707031 1.49080078 0.02707031 3.01171875 0.0546875 C3.77097656 0.07789063 4.53023437 0.10109375 5.3125 0.125 C5.3125 0.785 5.3125 1.445 5.3125 2.125 C-0.0087615 3.20818169 -5.32236869 4.277874 -10.6875 5.125 C-10.0275 4.795 -9.3675 4.465 -8.6875 4.125 C-8.6875 3.465 -8.6875 2.805 -8.6875 2.125 C-5.26655758 -0.15562828 -4.00562778 -0.09425007 0 0 Z " fill="#FBDCCD" transform="translate(212.6875,-0.125)"/>
<path d="M0 0 C0.33 0 0.66 0 1 0 C1.19412181 1.47831221 1.38012131 2.95769316 1.5625 4.4375 C1.66691406 5.26121094 1.77132812 6.08492187 1.87890625 6.93359375 C1.91886719 7.61550781 1.95882812 8.29742187 2 9 C1 10 1 10 -2.5625 10.0625 C-3.696875 10.041875 -4.83125 10.02125 -6 10 C-4.87687034 6.63061102 -3.46825907 5.46825907 -1 3 C-0.67 2.01 -0.34 1.02 0 0 Z " fill="#EEEEEE" transform="translate(102,238)"/>
<path d="M0 0 C1.98 0 3.96 0 6 0 C5.67 1.65 5.34 3.3 5 5 C5.66 5 6.32 5 7 5 C6.67 5.99 6.34 6.98 6 8 C4.68 7.67 3.36 7.34 2 7 C2 6.34 2 5.68 2 5 C1.34 5 0.68 5 0 5 C0 3.35 0 1.7 0 0 Z " fill="#565650" transform="translate(0,236)"/>
<path d="M0 0 C2.97 0 5.94 0 9 0 C9 1.32 9 2.64 9 4 C6.03 4 3.06 4 0 4 C0 2.68 0 1.36 0 0 Z " fill="#555652" transform="translate(146,213)"/>
<path d="M0 0 C1.98 0 3.96 0 6 0 C6 0.66 6 1.32 6 2 C2.5233662 4.14336161 -0.21229195 4.21277626 -4.25 4.125 C-5.32765625 4.10695313 -6.4053125 4.08890625 -7.515625 4.0703125 C-8.33546875 4.04710937 -9.1553125 4.02390625 -10 4 C-8 2 -8 2 -6.0546875 1.8046875 C-4.03645833 1.86979167 -2.01822917 1.93489583 0 2 C0 1.34 0 0.68 0 0 Z " fill="#E46E40" transform="translate(218,0)"/>
<path d="M0 0 C0.66 0 1.32 0 2 0 C2.33 3.3 2.66 6.6 3 10 C1.35 9.67 -0.3 9.34 -2 9 C-1.125 1.125 -1.125 1.125 0 0 Z " fill="#555651" transform="translate(262,212)"/>
<path d="M0 0 C1.65 1.65 3.3 3.3 5 5 C4.67 5.99 4.34 6.98 4 8 C3.67 8 3.34 8 3 8 C2.67 10.31 2.34 12.62 2 15 C1.67 15 1.34 15 1 15 C0.855625 14.21625 0.71125 13.4325 0.5625 12.625 C0.12201075 10.03578982 0.12201075 10.03578982 -1 8 C-0.68770276 6.66158328 -0.35169068 5.32860925 0 4 C0 2.68 0 1.36 0 0 Z " fill="#61615B" transform="translate(465,92)"/>
<path d="M0 0 C0.33 0 0.66 0 1 0 C1 8.58 1 17.16 1 26 C1.66 26 2.32 26 3 26 C3 26.99 3 27.98 3 29 C2.01 29 1.02 29 0 29 C0 19.43 0 9.86 0 0 Z " fill="#E62E2B" transform="translate(3,0)"/>
<path d="M0 0 C0.66 0.33 1.32 0.66 2 1 C1.125 7.75 1.125 7.75 0 10 C-0.66 10 -1.32 10 -2 10 C-2 8.35 -2 6.7 -2 5 C-2.66 5 -3.32 5 -4 5 C-3.6875 3.0625 -3.6875 3.0625 -3 1 C-2.01 0.67 -1.02 0.34 0 0 Z " fill="#595A54" transform="translate(253,224)"/>
<path d="M0 0 C2.64 0 5.28 0 8 0 C8 0.99 8 1.98 8 3 C7.01 3 6.02 3 5 3 C5 3.66 5 4.32 5 5 C3.35 5 1.7 5 0 5 C0 3.35 0 1.7 0 0 Z " fill="#5B5B58" transform="translate(181,208)"/>
<path d="M0 0 C4.875 0.875 4.875 0.875 6 2 C6.04080783 3.99958364 6.04254356 6.00045254 6 8 C4.35 8.66 2.7 9.32 1 10 C0.34 9.34 -0.32 8.68 -1 8 C-0.34 8 0.32 8 1 8 C1.33 7.34 1.66 6.68 2 6 C2.33 5.67 2.66 5.34 3 5 C3.33 4.01 3.66 3.02 4 2 C2.35 2 0.7 2 -1 2 C-0.67 1.34 -0.34 0.68 0 0 Z " fill="#E2E3DE" transform="translate(466,160)"/>
<path d="M0 0 C1.5625 1.8125 1.5625 1.8125 3 4 C2.67 4.99 2.34 5.98 2 7 C-0.31 7.33 -2.62 7.66 -5 8 C-5.3125 5.6875 -5.3125 5.6875 -5 3 C-2.5 1.1875 -2.5 1.1875 0 0 Z " fill="#60615C" transform="translate(429,135)"/>
<path d="M0 0 C1.98 0.99 1.98 0.99 4 2 C4.66 1.34 5.32 0.68 6 0 C7.65 1.65 9.3 3.3 11 5 C9.02 5.99 9.02 5.99 7 7 C6.67 6.67 6.34 6.34 6 6 C5.67 6.66 5.34 7.32 5 8 C4.731875 7.360625 4.46375 6.72125 4.1875 6.0625 C3.11332248 3.66868314 3.11332248 3.66868314 0 3 C0 2.01 0 1.02 0 0 Z " fill="#62615B" transform="translate(345,64)"/>
<path d="M0 0 C2.02045442 0.60183749 4.02111039 1.27306096 6 2 C6.33 2.66 6.66 3.32 7 4 C6.01 4 5.02 4 4 4 C4 4.99 4 5.98 4 7 C3.34 7.66 2.68 8.32 2 9 C1.01 9 0.02 9 -1 9 C-0.67 6.03 -0.34 3.06 0 0 Z " fill="#64645E" transform="translate(73,208)"/>
<path d="M0 0 C0.99 0.33 1.98 0.66 3 1 C3.6875 3.25 3.6875 3.25 4 6 C2.6875 8.3125 2.6875 8.3125 1 10 C0.34 10 -0.32 10 -1 10 C-1.125 3.375 -1.125 3.375 0 0 Z " fill="#63635C" transform="translate(161,46)"/>
<path d="M0 0 C0.66 0 1.32 0 2 0 C0.64474464 4.21775732 -0.90200114 8.29421322 -2.625 12.375 C-3.07101562 13.43460938 -3.51703125 14.49421875 -3.9765625 15.5859375 C-4.31429688 16.38257812 -4.65203125 17.17921875 -5 18 C-5.33 18 -5.66 18 -6 18 C-5.88590407 16.54077307 -5.75834456 15.08259402 -5.625 13.625 C-5.55539062 12.81289063 -5.48578125 12.00078125 -5.4140625 11.1640625 C-5 9 -5 9 -3 7 C-2.3574765 4.93125966 -2.3574765 4.93125966 -2 3 C-1.34 3 -0.68 3 0 3 C0 2.01 0 1.02 0 0 Z " fill="#FBE8C3" transform="translate(318,16)"/>
<path d="M0 0 C0.33 0 0.66 0 1 0 C1 6.93 1 13.86 1 21 C-0.65 21 -2.3 21 -4 21 C-4 20.01 -4 19.02 -4 18 C-2.68 18 -1.36 18 0 18 C0 12.06 0 6.12 0 0 Z " fill="#F75818" transform="translate(292,0)"/>
<path d="M0 0 C0.99 0 1.98 0 3 0 C4.25664978 2.90600261 5 4.79604584 5 8 C3.68 8 2.36 8 1 8 C0.26919734 6.02253397 -0.39421747 4.01927511 -1 2 C-0.67 1.34 -0.34 0.68 0 0 Z " fill="#60605E" transform="translate(236,220)"/>
<path d="M0 0 C0.66 0.33 1.32 0.66 2 1 C1.67 2.32 1.34 3.64 1 5 C1.99 5.33 2.98 5.66 4 6 C3.195625 6.12375 2.39125 6.2475 1.5625 6.375 C0.2940625 6.684375 0.2940625 6.684375 -1 7 C-1.33 7.66 -1.66 8.32 -2 9 C-3 8 -3 8 -3.25 5.0625 C-3.1675 4.051875 -3.085 3.04125 -3 2 C-2.01 1.34 -1.02 0.68 0 0 Z " fill="#E1E0DE" transform="translate(11,213)"/>
<path d="M0 0 C3.69418201 1.231394 5.35109746 3.20791354 8 6 C8.33 4.68 8.66 3.36 9 2 C9 3.65 9 5.3 9 7 C6.36 7 3.72 7 1 7 C0.67 4.69 0.34 2.38 0 0 Z " fill="#61625E" transform="translate(397,214)"/>
<path d="M0 0 C2.475 0.99 2.475 0.99 5 2 C5.33 1.34 5.66 0.68 6 0 C6.66 0 7.32 0 8 0 C7.67 1.98 7.34 3.96 7 6 C6.34 6 5.68 6 5 6 C4.67 6.66 4.34 7.32 4 8 C2 6.25 2 6.25 0 4 C0 2.68 0 1.36 0 0 Z " fill="#61615C" transform="translate(175,146)"/>
<path d="M0 0 C4.75 0.75 4.75 0.75 7 3 C3.5980513 5.09350689 0.94727588 5.17942163 -3 5 C-3 4.01 -3 3.02 -3 2 C-2.34 2 -1.68 2 -1 2 C-0.67 1.34 -0.34 0.68 0 0 Z " fill="#585753" transform="translate(193,239)"/>
<path d="M0 0 C2.29633824 3.44450737 2.54016485 5.93812283 3 10 C2.01 10 1.02 10 0 10 C-0.33 10.66 -0.66 11.32 -1 12 C-2.09898702 8.70303895 -1.87124444 7.59505097 -1.0625 4.3125 C-0.86785156 3.50425781 -0.67320312 2.69601563 -0.47265625 1.86328125 C-0.31667969 1.24839844 -0.16070312 0.63351563 0 0 Z " fill="#65645F" transform="translate(435,120)"/>
<path d="M0 0 C0.99 0.33 1.98 0.66 3 1 C3 1.99 3 2.98 3 4 C3.99 4.33 4.98 4.66 6 5 C6 6.65 6 8.3 6 10 C5.01 10.495 5.01 10.495 4 11 C2.35 7.7 0.7 4.4 -1 1 C-0.67 0.67 -0.34 0.34 0 0 Z " fill="#FBE1DE" transform="translate(142,17)"/>
<path d="M0 0 C2 0 2 0 4.625 2.375 C7 5 7 5 7 7 C4.69 7 2.38 7 0 7 C0 4.69 0 2.38 0 0 Z " fill="#EFEDEF" transform="translate(0,241)"/>
<path d="M0 0 C0.66 0.66 1.32 1.32 2 2 C1.67 2.99 1.34 3.98 1 5 C1.99 5.66 2.98 6.32 4 7 C3.67 8.32 3.34 9.64 3 11 C2.34 10.34 1.68 9.68 1 9 C0.34 9.99 -0.32 10.98 -1 12 C-2.11658501 7.31034294 -1.80619523 4.46236469 0 0 Z " fill="#6C6D67" transform="translate(252,216)"/>
<path d="M0 0 C2.64 0 5.28 0 8 0 C8.66 1.65 9.32 3.3 10 5 C9.01 5.495 9.01 5.495 8 6 C7.27306096 7.97888961 6.60183749 9.97954558 6 12 C5.67 12 5.34 12 5 12 C4.80377759 7.78121808 5.19769832 4.82989106 7 1 C4.69 1.33 2.38 1.66 0 2 C0 1.34 0 0.68 0 0 Z " fill="#7B7C78" transform="translate(254,207)"/>
<path d="M0 0 C-0.625 2.4375 -0.625 2.4375 -2 5 C-5.59356359 6.0704232 -7.4268387 6.19105377 -11 5 C-3.5 0 -3.5 0 0 0 Z " fill="#F2F3EE" transform="translate(457,161)"/>
<path d="M0 0 C0.66 0 1.32 0 2 0 C3.65 3.3 5.3 6.6 7 10 C6.01 10.66 5.02 11.32 4 12 C4 10.68 4 9.36 4 8 C3.34 8 2.68 8 2 8 C0.74335022 5.09399739 0 3.20395416 0 0 Z " fill="#5F605A" transform="translate(141,144)"/>
<path d="M0 0 C2.97 0.495 2.97 0.495 6 1 C5.67 1.66 5.34 2.32 5 3 C5.60578253 5.01927511 6.26919734 7.02253397 7 9 C6.01 9.495 6.01 9.495 5 10 C4.16121545 8.71186658 3.32913217 7.41936744 2.5 6.125 C2.0359375 5.40570313 1.571875 4.68640625 1.09375 3.9453125 C0 2 0 2 0 0 Z " fill="#EEEDEA" transform="translate(116,99)"/>
<path d="M0 0 C2.5654594 2.5654594 2.54046087 4.47686668 3 8 C1.02 8 -0.96 8 -3 8 C-2.37240135 5.07120629 -1.41377341 2.63904371 0 0 Z " fill="#55564D" transform="translate(271,240)"/>
<path d="M0 0 C2.31 0 4.62 0 7 0 C5.515 2.475 5.515 2.475 4 5 C4.66 5.33 5.32 5.66 6 6 C5.67 6.99 5.34 7.98 5 9 C5 8.34 5 7.68 5 7 C4.01 7 3.02 7 2 7 C1.34 4.69 0.68 2.38 0 0 Z " fill="#5C5C5A" transform="translate(188,199)"/>
<path d="M0 0 C2.64 0.33 5.28 0.66 8 1 C8 1.33 8 1.66 8 2 C7.01 2.33 6.02 2.66 5 3 C5.66 3 6.32 3 7 3 C7.33 3.99 7.66 4.98 8 6 C5.69 6 3.38 6 1 6 C0.67 4.02 0.34 2.04 0 0 Z " fill="#52514F" transform="translate(440,242)"/>
<path d="M0 0 C0.99 0.66 1.98 1.32 3 2 C2.67 3.98 2.34 5.96 2 8 C1.01 8 0.02 8 -1 8 C-1 7.34 -1 6.68 -1 6 C-1.66 5.67 -2.32 5.34 -3 5 C-3 4.01 -3 3.02 -3 2 C-2.01 1.34 -1.02 0.68 0 0 Z " fill="#656462" transform="translate(439,240)"/>
<path d="M0 0 C2.97 0.495 2.97 0.495 6 1 C5.6875 2.9375 5.6875 2.9375 5 5 C4.01 5.33 3.02 5.66 2 6 C1.01 5.01 0.02 4.02 -1 3 C-0.67 2.01 -0.34 1.02 0 0 Z " fill="#62625B" transform="translate(185,154)"/>
<path d="M0 0 C-0.33 1.98 -0.66 3.96 -1 6 C-1.66 6 -2.32 6 -3 6 C-3 5.34 -3 4.68 -3 4 C-4.65 3.67 -6.3 3.34 -8 3 C-5.48696401 0.48696401 -3.51117809 0 0 0 Z " fill="#DD6028" transform="translate(208,4)"/>
<path d="M0 0 C1.15518918 0.90484792 2.29885406 1.8244206 3.4375 2.75 C4.07558594 3.26046875 4.71367187 3.7709375 5.37109375 4.296875 C7.18810554 6.19667629 7.60423197 7.43586908 8 10 C6.68 9.34 5.36 8.68 4 8 C4 7.01 4 6.02 4 5 C1.525 4.01 1.525 4.01 -1 3 C-0.67 2.01 -0.34 1.02 0 0 Z " fill="#BB443E" transform="translate(134,11)"/>
<path d="M0 0 C2.97 0.495 2.97 0.495 6 1 C6.33 2.65 6.66 4.3 7 6 C6.01 5.34 5.02 4.68 4 4 C3.01 4.495 3.01 4.495 2 5 C2 4.01 2 3.02 2 2 C1.34 2 0.68 2 0 2 C0 1.34 0 0.68 0 0 Z M-1 4 C0.98 4.99 0.98 4.99 3 6 C2.67 6.66 2.34 7.32 2 8 C1.01 6.68 0.02 5.36 -1 4 Z " fill="#F7F0EB" transform="translate(137,8)"/>
<path d="M0 0 C0.99 0 1.98 0 3 0 C3 1.65 3 3.3 3 5 C3.66 5 4.32 5 5 5 C4.67 5.99 4.34 6.98 4 8 C4 7.34 4 6.68 4 6 C2.35 6.33 0.7 6.66 -1 7 C-0.67 4.69 -0.34 2.38 0 0 Z " fill="#696A67" transform="translate(248,229)"/>
<path d="M0 0 C3 1 3 1 4.75 3.375 C6 6 6 6 5 9 C1.7457985 6.16569547 0.4793247 4.31392226 0 0 Z " fill="#61605C" transform="translate(167,136)"/>
<path d="M0 0 C1 2 1 2 1 3 C1.66 2.67 2.32 2.34 3 2 C3.33 2.99 3.66 3.98 4 5 C2 8 2 8 -1 9 C-1.80967438 6.08517222 -2.21845993 4.53886783 -1.0625 1.6875 C-0.711875 1.130625 -0.36125 0.57375 0 0 Z " fill="#63635B" transform="translate(346,37)"/>
<path d="M0 0 C1.2380014 3.57644848 0.74926071 6.33694766 0 10 C-0.66 9.01 -1.32 8.02 -2 7 C-2.66 7 -3.32 7 -4 7 C-3.67 5.02 -3.34 3.04 -3 1 C-2.01 0.67 -1.02 0.34 0 0 Z " fill="#51524B" transform="translate(437,214)"/>
<path d="M0 0 C2.31 0.33 4.62 0.66 7 1 C7 1.99 7 2.98 7 4 C4.69 4 2.38 4 0 4 C0 2.68 0 1.36 0 0 Z " fill="#545352" transform="translate(131,213)"/>
<path d="M0 0 C2.97 0 5.94 0 9 0 C8.01 0.495 8.01 0.495 7 1 C7 1.66 7 2.32 7 3 C6.2575 2.95875 5.515 2.9175 4.75 2.875 C1.91241048 3.00398134 0.41226062 3.57051222 -2 5 C-1.34 3.35 -0.68 1.7 0 0 Z " fill="#50514C" transform="translate(390,208)"/>
<path d="M0 0 C4.55737263 0.43820891 7.57653445 0.85041169 11 4 C10.67 4.66 10.34 5.32 10 6 C8.02 5.34 6.04 4.68 4 4 C4 3.34 4 2.68 4 2 C2.68 1.67 1.36 1.34 0 1 C0 0.67 0 0.34 0 0 Z " fill="#CF2F32" transform="translate(123,7)"/>
<path d="M0 0 C1.2077558 3.62326739 0.54311128 4.64146369 -1 8 C-1.99 8 -2.98 8 -4 8 C-4.33 6.35 -4.66 4.7 -5 3 C-3.35 2.67 -1.7 2.34 0 2 C0 1.34 0 0.68 0 0 Z " fill="#61625C" transform="translate(271,237)"/>
<path d="M0 0 C1.60379341 -0.05416188 3.20811406 -0.09286638 4.8125 -0.125 C5.70582031 -0.14820313 6.59914063 -0.17140625 7.51953125 -0.1953125 C10 0 10 0 13 2 C9.7 2.33 6.4 2.66 3 3 C3 2.34 3 1.68 3 1 C2.01 0.67 1.02 0.34 0 0 Z " fill="#54544D" transform="translate(11,224)"/>
<path d="M0 0 C1.48831242 0.00667405 2.97660807 0.01863442 4.46484375 0.03515625 C5.22345703 0.03966797 5.98207031 0.04417969 6.76367188 0.04882812 C8.64326246 0.06064945 10.52281274 0.07858547 12.40234375 0.09765625 C12.40234375 0.42765625 12.40234375 0.75765625 12.40234375 1.09765625 C11.49871094 1.14664063 10.59507812 1.195625 9.6640625 1.24609375 C8.48457031 1.32085937 7.30507813 1.395625 6.08984375 1.47265625 C4.33220703 1.57707031 4.33220703 1.57707031 2.5390625 1.68359375 C-0.75465512 1.88379372 -0.75465512 1.88379372 -3.59765625 4.09765625 C-3.92765625 3.10765625 -4.25765625 2.11765625 -4.59765625 1.09765625 C-3.59765625 0.09765625 -3.59765625 0.09765625 0 0 Z " fill="#7D7C7B" transform="translate(441.59765625,211.90234375)"/>
<path d="M0 0 C1.32 0.33 2.64 0.66 4 1 C4.33 2.32 4.66 3.64 5 5 C2.69 5 0.38 5 -2 5 C-2.33 4.34 -2.66 3.68 -3 3 C-2.01 3 -1.02 3 0 3 C0 2.01 0 1.02 0 0 Z " fill="#676862" transform="translate(95,211)"/>
<path d="M0 0 C2.35953094 2.35953094 2.49141413 3.77895617 3 7 C1.68 7.33 0.36 7.66 -1 8 C-1.33 6.02 -1.66 4.04 -2 2 C-1.34 2 -0.68 2 0 2 C0 1.34 0 0.68 0 0 Z " fill="#F5F7F2" transform="translate(149,26)"/>
<path d="M0 0 C0 3.11227195 -0.45627049 5.94152152 -1 9 C-1.66 9 -2.32 9 -3 9 C-3.33 6.69 -3.66 4.38 -4 2 C-2.68 1.34 -1.36 0.68 0 0 Z " fill="#565751" transform="translate(242,235)"/>
<path d="M0 0 C0.33 1.32 0.66 2.64 1 4 C1.99 4 2.98 4 4 4 C4 4.99 4 5.98 4 7 C2.02 7.99 2.02 7.99 0 9 C-0.84454356 5.62182575 -1.10844919 3.32534757 0 0 Z " fill="#636361" transform="translate(275,230)"/>
<path d="M0 0 C1.04449911 3.13349732 0.93423645 3.98968256 0 7 C-1.32 6.67 -2.64 6.34 -4 6 C-3.6875 4.125 -3.6875 4.125 -3 2 C-2.01 1.34 -1.02 0.68 0 0 Z " fill="#565751" transform="translate(285,217)"/>
<path d="M0 0 C0.33 1.32 0.66 2.64 1 4 C1.66 4 2.32 4 3 4 C2.67 5.98 2.34 7.96 2 10 C0.68 9.67 -0.64 9.34 -2 9 C-1.34 6.03 -0.68 3.06 0 0 Z " fill="#5F6058" transform="translate(468,131)"/>
<path d="M0 0 C0.66 0.33 1.32 0.66 2 1 C2 1.66 2 2.32 2 3 C1.34 3 0.68 3 0 3 C0 3.99 0 4.98 0 6 C-0.99 6.33 -1.98 6.66 -3 7 C-3.625 5.125 -3.625 5.125 -4 3 C-2 1 -2 1 0 0 Z " fill="#F3F4F1" transform="translate(84,112)"/>
<path d="M0 0 C-3.1254959 2.64465038 -6.08788267 3.84414715 -10 5 C-8.94958421 2.13522966 -8.29875437 1.16086774 -5.5625 -0.3125 C-3 -1 -3 -1 0 0 Z " fill="#D6653E" transform="translate(201,7)"/>
<path d="M0 0 C6.52307692 0.61538462 6.52307692 0.61538462 8.9375 2.5625 C9.288125 3.036875 9.63875 3.51125 10 4 C9.67 4.66 9.34 5.32 9 6 C6.03 4.35 3.06 2.7 0 1 C0 0.67 0 0.34 0 0 Z " fill="#FAD4CB" transform="translate(126,6)"/>
<path d="M0 0 C0.66 0.33 1.32 0.66 2 1 C1.34 3.64 0.68 6.28 0 9 C-1.74627478 6.38058783 -2.38722388 4.96175123 -3 2 C-2.01 1.34 -1.02 0.68 0 0 Z " fill="#F3F3F4" transform="translate(273,231)"/>
<path d="M0 0 C-0.66 1.65 -1.32 3.3 -2 5 C-2.66 5 -3.32 5 -4 5 C-4 4.01 -4 3.02 -4 2 C-4.66 2 -5.32 2 -6 2 C-6 1.34 -6 0.68 -6 0 C-3.50907189 -1.24546405 -2.58919267 -0.7767578 0 0 Z " fill="#D8321D" transform="translate(10,24)"/>
<path d="M0 0 C0.33 0.99 0.66 1.98 1 3 C-0.6396875 2.9071875 -0.6396875 2.9071875 -2.3125 2.8125 C-5.92126083 2.64402086 -5.92126083 2.64402086 -7.9375 4.5 C-8.288125 4.995 -8.63875 5.49 -9 6 C-9.66 5.67 -10.32 5.34 -11 5 C-7.40395171 1.01866082 -5.30153148 0 0 0 Z " fill="#D86432" transform="translate(188,15)"/>
<path d="M0 0 C1.22589844 0.01353516 1.22589844 0.01353516 2.4765625 0.02734375 C3.41628906 0.04474609 3.41628906 0.04474609 4.375 0.0625 C1.04166667 1.72916667 -2.29166667 3.39583333 -5.625 5.0625 C-5.955 3.7425 -6.285 2.4225 -6.625 1.0625 C-4.21954362 -0.14022819 -2.67503047 -0.03821472 0 0 Z " fill="#686865" transform="translate(392.625,206.9375)"/>
<path d="M0 0 C0.66 0.33 1.32 0.66 2 1 C1.67 2.98 1.34 4.96 1 7 C-0.32 7.33 -1.64 7.66 -3 8 C-1.125 2.25 -1.125 2.25 0 0 Z " fill="#605F5C" transform="translate(166,35)"/>
<path d="M0 0 C2.625 0.9375 2.625 0.9375 5 2 C4.67 2.66 4.34 3.32 4 4 C1.9375 4.625 1.9375 4.625 0 5 C-0.66 3.68 -1.32 2.36 -2 1 C-1.34 0.67 -0.68 0.34 0 0 Z " fill="#EDEEE6" transform="translate(105,35)"/>
<path d="M0 0 C-4.95 2.97 -4.95 2.97 -10 6 C-10 5.01 -10 4.02 -10 3 C-4.85106383 -1.21276596 -4.85106383 -1.21276596 0 0 Z " fill="#FEE3D2" transform="translate(193,9)"/>
<path d="M0 0 C0 1.65 0 3.3 0 5 C-1.98 5 -3.96 5 -6 5 C-6 4.34 -6 3.68 -6 3 C-1.5 0 -1.5 0 0 0 Z " fill="#ECEBEA" transform="translate(339,243)"/>
<path d="M0 0 C0.66 0.33 1.32 0.66 2 1 C2 1.66 2 2.32 2 3 C2.99 3 3.98 3 5 3 C5 3.66 5 4.32 5 5 C3.02 5 1.04 5 -1 5 C-0.67 3.35 -0.34 1.7 0 0 Z " fill="#EEEDEC" transform="translate(69,243)"/>
<path d="M0 0 C0.66 0.33 1.32 0.66 2 1 C1.67 2.98 1.34 4.96 1 7 C0.34 7 -0.32 7 -1 7 C-0.67 4.69 -0.34 2.38 0 0 Z M-2 7 C-1.67 7.99 -1.34 8.98 -1 10 C-1.66 9.67 -2.32 9.34 -3 9 C-2.67 8.34 -2.34 7.68 -2 7 Z " fill="#F0F1EC" transform="translate(281,233)"/>
<path d="M0 0 C0.99 0.33 1.98 0.66 3 1 C3 2.65 3 4.3 3 6 C1.68 6.33 0.36 6.66 -1 7 C-1.04254356 5.00045254 -1.04080783 2.99958364 -1 1 C-0.67 0.67 -0.34 0.34 0 0 Z " fill="#E9E7E7" transform="translate(26,232)"/>
<path d="M0 0 C0.99 0.33 1.98 0.66 3 1 C3.6875 3.0625 3.6875 3.0625 4 5 C2.68 5 1.36 5 0 5 C-0.66 3.68 -1.32 2.36 -2 1 C-1.34 0.67 -0.68 0.34 0 0 Z " fill="#5D5D5B" transform="translate(30,212)"/>
<path d="M0 0 C2.31 0 4.62 0 7 0 C6.67 1.65 6.34 3.3 6 5 C5.34 4.67 4.68 4.34 4 4 C4 3.34 4 2.68 4 2 C2.68 2 1.36 2 0 2 C0 1.34 0 0.68 0 0 Z " fill="#737370" transform="translate(283,207)"/>
<path d="M0 0 C-0.25 1.875 -0.25 1.875 -1 4 C-3.0625 5.25 -3.0625 5.25 -5 6 C-5 4.68 -5 3.36 -5 2 C-2 0 -2 0 0 0 Z " fill="#F75716" transform="translate(185,18)"/>
<path d="M0 0 C2.86724686 0.57344937 3.8614515 0.8614515 6 3 C5 4 5 4 2.4375 4.0625 C1.2309375 4.0315625 1.2309375 4.0315625 0 4 C-0.33 3.34 -0.66 2.68 -1 2 C-0.67 1.34 -0.34 0.68 0 0 Z " fill="#ED2530" transform="translate(132,14)"/>
<path d="M0 0 C1.65 0 3.3 0 5 0 C5 0.99 5 1.98 5 3 C3.68 3.33 2.36 3.66 1 4 C0.67 2.68 0.34 1.36 0 0 Z " fill="#E88F24" transform="translate(336,10)"/>
<path d="M0 0 C1.32 0 2.64 0 4 0 C4.33 0.99 4.66 1.98 5 3 C5.99 3.66 6.98 4.32 8 5 C2.25 4.125 2.25 4.125 0 3 C0 2.01 0 1.02 0 0 Z " fill="#E23232" transform="translate(104,0)"/>
<path d="M0 0 C2.0625 2.3125 2.0625 2.3125 4 5 C3.67 5.99 3.34 6.98 3 8 C2.67 7.34 2.34 6.68 2 6 C1.01 5.67 0.02 5.34 -1 5 C-0.67 3.35 -0.34 1.7 0 0 Z " fill="#EFF0EB" transform="translate(33,222)"/>
<path d="M0 0 C0.99 0.33 1.98 0.66 3 1 C3 1.99 3 2.98 3 4 C2.34 4 1.68 4 1 4 C1 4.66 1 5.32 1 6 C0.01 5.67 -0.98 5.34 -2 5 C-1.34 3.35 -0.68 1.7 0 0 Z " fill="#F0EEEE" transform="translate(114,167)"/>
<path d="M0 0 C2.31 0.33 4.62 0.66 7 1 C6.67 1.66 6.34 2.32 6 3 C4.02 3 2.04 3 0 3 C0 2.01 0 1.02 0 0 Z " fill="#60615C" transform="translate(443,75)"/>
<path d="M0 0 C2.475 0.99 2.475 0.99 5 2 C5 2.99 5 3.98 5 5 C3.35 5 1.7 5 0 5 C0 3.35 0 1.7 0 0 Z " fill="#FEFDEB" transform="translate(298,17)"/>
<path d="M0 0 C1.875 0.1875 1.875 0.1875 4 1 C5.25 3.5625 5.25 3.5625 6 6 C3.5625 5.25 3.5625 5.25 1 4 C0.1875 1.875 0.1875 1.875 0 0 Z " fill="#5F5E5B" transform="translate(431,239)"/>
<path d="M0 0 C2.31 0 4.62 0 7 0 C7 1.65 7 3.3 7 5 C6.67 4.34 6.34 3.68 6 3 C5.01 3 4.02 3 3 3 C3 2.34 3 1.68 3 1 C2.01 0.67 1.02 0.34 0 0 Z " fill="#606061" transform="translate(459,235)"/>
<path d="M0 0 C0.66 0 1.32 0 2 0 C2.66 1.32 3.32 2.64 4 4 C2.68 4.99 1.36 5.98 0 7 C0 4.69 0 2.38 0 0 Z " fill="#F0F0EE" transform="translate(0,223)"/>
<path d="M0 0 C1.65 0.33 3.3 0.66 5 1 C5 1.99 5 2.98 5 4 C2.03 3.505 2.03 3.505 -1 3 C-0.67 2.01 -0.34 1.02 0 0 Z " fill="#5C5D58" transform="translate(391,210)"/>
<path d="M0 0 C0.99 0 1.98 0 3 0 C3.33 1.32 3.66 2.64 4 4 C3.34 4 2.68 4 2 4 C1.67 4.66 1.34 5.32 1 6 C1 5.34 1 4.68 1 4 C0.34 4 -0.32 4 -1 4 C-0.67 2.68 -0.34 1.36 0 0 Z " fill="#595A54" transform="translate(71,209)"/>
<path d="M0 0 C0.66 0 1.32 0 2 0 C0.79618552 2.49361571 -0.45428722 4.68143083 -2 7 C-2.66 7 -3.32 7 -4 7 C-2.92598892 4.08482708 -2.22189824 2.22189824 0 0 Z " fill="#FBE5C8" transform="translate(171,24)"/>
<path d="M0 0 C1.5625 1.8125 1.5625 1.8125 3 4 C2.67 4.99 2.34 5.98 2 7 C0.35 7 -1.3 7 -3 7 C-2.01 6.67 -1.02 6.34 0 6 C0 4.02 0 2.04 0 0 Z " fill="#B0434C" transform="translate(144,24)"/>
<path d="M0 0 C0.33 0.99 0.66 1.98 1 3 C-0.65 4.32 -2.3 5.64 -4 7 C-3.6875 4.625 -3.6875 4.625 -3 2 C-2.01 1.34 -1.02 0.68 0 0 Z " fill="#FEF3DA" transform="translate(324,9)"/>
</svg>
