<?xml version="1.0" standalone="no"?>
<!DOCTYPE svg PUBLIC "-//W3C//DTD SVG 20010904//EN"
 "http://www.w3.org/TR/2001/REC-SVG-20010904/DTD/svg10.dtd">
<svg version="1.0" xmlns="http://www.w3.org/2000/svg"
 width="400.000000pt" height="300.000000pt" viewBox="0 0 400.000000 300.000000"
 preserveAspectRatio="xMidYMid meet">

<g transform="translate(0.000000,300.000000) scale(0.100000,-0.100000)"
fill="#000000" stroke="none">
<path d="M344 2430 c-147 -38 -242 -109 -296 -218 -29 -59 -33 -76 -33 -152 0
-187 90 -276 408 -405 114 -46 159 -105 127 -166 -39 -71 -249 -74 -420 -5
-35 14 -65 24 -66 23 0 -1 -13 -54 -27 -117 -15 -63 -29 -125 -33 -136 -5 -19
1 -25 49 -42 187 -70 471 -68 624 5 74 34 157 113 189 179 32 66 43 177 25
251 -17 69 -73 147 -140 197 -32 23 -120 69 -195 101 -159 67 -213 107 -202
152 11 43 36 62 99 73 69 13 195 -1 270 -31 27 -11 53 -16 57 -12 6 7 70 241
70 256 0 11 -85 38 -166 52 -117 20 -252 18 -340 -5z"/>
<path d="M1090 2425 c0 -3 0 -283 0 -622 l0 -618 405 -3 406 -2 -3 137 -3 138
-237 3 -238 2 0 485 0 485 -165 0 c-91 0 -165 -2 -165 -5z"/>
<path d="M1790 2290 l0 -139 158 -3 157 -3 3 -482 2 -483 165 0 165 0 0 485 0
485 160 0 160 0 0 140 0 140 -485 0 -485 0 0 -140z"/>
<path d="M2920 1805 l0 -625 151 0 151 0 -4 430 c-2 236 0 426 3 422 4 -4 26
-52 50 -107 23 -55 116 -244 205 -420 l162 -320 181 -3 181 -2 0 625 0 625
-155 0 -155 0 0 -212 c0 -117 5 -297 11 -401 6 -104 9 -190 7 -192 -2 -3 -21
39 -42 93 -34 86 -165 353 -303 619 l-48 93 -197 0 -198 0 0 -625z"/>
<path d="M700 1045 l0 -45 -40 0 c-54 0 -56 -27 -2 -32 l37 -3 5 -175 c3 -114
9 -183 18 -197 17 -30 78 -48 115 -34 39 15 33 31 -11 31 -74 0 -77 6 -80 204
l-3 176 60 0 c48 0 61 3 61 15 0 12 -13 15 -60 15 l-60 0 0 45 c0 38 -3 45
-20 45 -17 0 -20 -7 -20 -45z"/>
<path d="M1065 1007 c-51 -20 -80 -45 -106 -89 -21 -37 -24 -56 -24 -138 0
-82 3 -100 23 -132 49 -79 142 -112 247 -87 44 10 61 19 63 33 3 16 0 18 -25
12 -85 -19 -138 -18 -183 6 -66 34 -93 91 -87 184 4 83 26 127 77 161 37 26
91 30 130 10 33 -17 70 -74 70 -108 l0 -29 -114 0 c-93 0 -115 -3 -120 -15 -9
-23 8 -26 150 -23 l129 3 -3 49 c-6 125 -118 205 -227 163z"/>
<path d="M1845 1011 c-49 -12 -75 -30 -69 -46 7 -18 4 -18 47 0 76 32 156 11
176 -46 6 -18 11 -80 11 -139 0 -94 -3 -111 -21 -134 -72 -92 -199 -68 -199
38 0 37 5 48 30 70 31 26 87 46 128 46 17 0 22 5 20 18 -3 13 -12 16 -38 14
-115 -10 -190 -72 -190 -157 0 -64 63 -125 129 -125 39 0 120 36 128 56 9 23
21 16 25 -13 2 -15 10 -29 19 -31 13 -2 15 18 11 175 -4 191 -10 216 -62 254
-29 22 -101 32 -145 20z"/>
<path d="M3097 1005 c-78 -27 -127 -100 -134 -200 -7 -85 11 -141 61 -191 62
-63 158 -79 251 -44 34 13 34 44 0 36 -142 -36 -236 5 -266 116 -21 80 12 198
66 234 85 56 189 9 208 -93 l6 -32 -117 -3 c-102 -3 -117 -5 -120 -20 -3 -16
9 -18 137 -18 l141 0 0 40 c0 81 -54 162 -119 180 -47 13 -68 12 -114 -5z"/>
<path d="M304 996 c-17 -8 -40 -26 -52 -41 l-22 -28 0 37 c0 29 -4 36 -20 36
-20 0 -20 -5 -18 -217 3 -210 4 -218 23 -218 19 0 20 8 25 165 5 177 13 205
62 231 36 19 114 16 139 -6 39 -37 44 -57 49 -225 5 -157 6 -165 25 -165 19 0
20 7 20 165 -1 148 -3 170 -21 200 -42 73 -131 100 -210 66z"/>
<path d="M1493 991 c-17 -11 -34 -29 -38 -40 -9 -29 -25 -16 -25 20 0 22 -4
30 -16 27 -14 -3 -15 -29 -14 -218 0 -118 3 -216 5 -218 2 -3 11 -2 20 1 12 5
15 30 15 149 0 118 4 150 19 184 22 48 54 74 93 74 21 0 28 5 28 20 0 27 -44
27 -87 1z"/>
<path d="M2275 991 c-49 -23 -89 -64 -109 -113 -19 -44 -21 -141 -5 -189 14
-40 62 -94 104 -117 55 -29 224 -13 212 21 -4 13 -19 13 -79 2 -55 -11 -104 2
-145 38 -45 40 -63 82 -63 149 1 72 29 130 79 163 36 25 47 27 108 23 37 -3
74 -7 82 -9 8 -2 16 3 18 12 9 39 -132 52 -202 20z"/>
<path d="M2685 991 c-89 -41 -129 -108 -128 -217 0 -115 54 -189 155 -214 69
-18 199 13 172 40 -7 7 -25 7 -61 -1 -90 -21 -167 10 -204 82 -17 35 -20 55
-17 115 4 81 20 112 78 152 36 24 126 31 174 12 14 -5 26 -8 26 -6 0 3 3 11 6
19 14 36 -132 50 -201 18z"/>
<path d="M3485 1000 c-35 -14 -66 -57 -72 -97 -7 -50 25 -90 99 -126 29 -13
64 -36 77 -51 29 -31 31 -81 3 -109 -27 -26 -98 -33 -144 -14 -32 14 -37 14
-42 0 -9 -23 0 -30 52 -43 104 -24 194 28 196 113 1 61 -23 91 -109 136 -75
40 -100 72 -89 116 3 14 16 31 27 37 27 14 98 13 125 -1 16 -8 21 -7 26 6 7
18 8 16 -21 32 -25 13 -98 14 -128 1z"/>
<path d="M3825 1000 c-42 -17 -70 -59 -70 -105 0 -54 25 -83 101 -119 29 -14
63 -35 74 -46 27 -27 27 -90 0 -115 -27 -24 -97 -31 -142 -12 -32 14 -37 14
-42 0 -9 -23 0 -30 55 -43 102 -25 194 30 194 115 0 59 -26 91 -108 133 -80
41 -106 77 -87 122 19 46 92 59 152 29 11 -6 18 -4 22 8 7 18 8 16 -21 32 -25
13 -98 14 -128 1z"/>
<path d="M2 783 c3 -186 5 -218 18 -218 13 0 15 32 18 218 2 213 2 217 -18
217 -20 0 -20 -4 -18 -217z"/>
</g>
</svg>
